<svg width="70" height="70" viewBox="0 0 70 70" fill="none" xmlns="http://www.w3.org/2000/svg">
<circle cx="35" cy="35" r="35" transform="matrix(1 0 0 -1 0 69.999)" fill="#FFC145"/>
<path d="M34 16.6985C26.0333 17.2152 20 24.1985 20 32.1819V43.3319C20 46.0985 22.2333 48.3319 25 48.3319H26.6667C28.5 48.3319 30 46.8319 30 44.9985V38.3319C30 36.4985 28.5 34.9985 26.6667 34.9985H23.3333V32.1485C23.3333 25.7485 28.2667 20.1819 34.65 19.9985C41.2667 19.8152 46.6667 25.0985 46.6667 31.6652V34.9985H43.3333C41.5 34.9985 40 36.4985 40 38.3319V44.9985C40 46.8319 41.5 48.3319 43.3333 48.3319H46.6667V49.9985H36.6667C35.75 49.9985 35 50.7485 35 51.6652C35 52.5819 35.75 53.3319 36.6667 53.3319H45C47.7667 53.3319 50 51.0985 50 48.3319V31.6652C50 23.0485 42.7333 16.1319 34 16.6985Z" fill="white"/>
</svg>
