<svg width="70" height="70" viewBox="0 0 70 70" fill="none" xmlns="http://www.w3.org/2000/svg">
<circle cx="35" cy="35" r="35" transform="matrix(1 0 0 -1 0 69.999)" fill="#7DE7B4"/>
<path d="M22.423 36.959V41.6423C22.423 42.859 23.0896 43.9923 24.1563 44.5757L32.4896 49.1256C33.4896 49.6756 34.6896 49.6756 35.6896 49.1256L44.023 44.5757C45.0896 43.9923 45.7563 42.859 45.7563 41.6423V36.959L35.6896 42.459C34.6896 43.009 33.4896 43.009 32.4896 42.459L22.423 36.959ZM32.4896 20.859L18.4396 28.5257C17.2896 29.159 17.2896 30.8257 18.4396 31.459L32.4896 39.1257C33.4896 39.6756 34.6896 39.6756 35.6896 39.1257L49.0896 31.809V41.659C49.0896 42.5757 49.8396 43.3257 50.7563 43.3257C51.673 43.3257 52.423 42.5757 52.423 41.659V30.9757C52.423 30.359 52.0896 29.809 51.5563 29.509L35.6896 20.859C34.6896 20.3257 33.4896 20.3257 32.4896 20.859Z" fill="white"/>
</svg>
