<svg width="70" height="70" viewBox="0 0 70 70" fill="none" xmlns="http://www.w3.org/2000/svg">
<circle cx="35" cy="35" r="35" transform="matrix(1 0 0 -1 0 69.999)" fill="#FF6B6C"/>
<path d="M49.1667 24.9987C44.8167 26.1654 39.7167 26.6654 35 26.6654C30.2833 26.6654 25.1833 26.1654 20.8333 24.9987L20 28.332C23.1 29.1654 26.6667 29.7154 30 29.9987V51.6654H33.3333V41.6654H36.6667V51.6654H40V29.9987C43.3333 29.7154 46.9 29.1654 50 28.332L49.1667 24.9987ZM35 24.9987C36.8333 24.9987 38.3333 23.4987 38.3333 21.6654C38.3333 19.832 36.8333 18.332 35 18.332C33.1667 18.332 31.6667 19.832 31.6667 21.6654C31.6667 23.4987 33.1667 24.9987 35 24.9987Z" fill="white"/>
</svg>
