<svg width="70" height="70" viewBox="0 0 70 70" fill="none" xmlns="http://www.w3.org/2000/svg">
<circle cx="35" cy="35" r="35" transform="matrix(1 0 0 -1 0 70)" fill="#FF6B6C"/>
<path d="M25.0007 39.9993C23.6173 39.9993 22.3673 40.566 21.4673 41.466C19.5007 43.4326 18.334 51.666 18.334 51.666C18.334 51.666 26.5673 50.4993 28.534 48.5327C29.434 47.6327 30.0007 46.3827 30.0007 44.9993C30.0007 42.2327 27.7673 39.9993 25.0007 39.9993ZM26.184 46.1826C25.7173 46.6493 22.5673 47.4493 22.5673 47.4493C22.5673 47.4493 23.3507 44.316 23.834 43.8326C24.1173 43.516 24.534 43.3327 25.0007 43.3327C25.9173 43.3327 26.6673 44.0827 26.6673 44.9993C26.6673 45.466 26.484 45.8827 26.184 46.1826ZM44.034 37.7493C54.634 27.1493 51.1007 18.8993 51.1007 18.8993C51.1007 18.8993 42.8507 15.366 32.2507 25.966L28.1007 25.1327C27.0173 24.916 25.884 25.266 25.084 26.0493L18.334 32.816L26.6673 36.3827L33.6173 43.3327L37.184 51.666L43.934 44.916C44.7173 44.1327 45.0673 42.9993 44.8507 41.8993L44.034 37.7493ZM27.3507 33.0493L24.1673 31.6827L27.4507 28.3993L29.8507 28.8827C28.9007 30.266 28.0507 31.716 27.3507 33.0493ZM38.3173 45.8327L36.9507 42.6493C38.284 41.9493 39.734 41.0993 41.1007 40.1493L41.584 42.5493L38.3173 45.8327ZM41.6673 35.3993C39.4673 37.5993 36.034 39.3993 34.934 39.9493L30.0507 35.066C30.584 33.9827 32.384 30.5493 34.6007 28.3327C42.4007 20.5327 48.3173 21.6827 48.3173 21.6827C48.3173 21.6827 49.4673 27.5993 41.6673 35.3993ZM40.0007 33.3327C41.834 33.3327 43.334 31.8327 43.334 29.9993C43.334 28.166 41.834 26.666 40.0007 26.666C38.1673 26.666 36.6673 28.166 36.6673 29.9993C36.6673 31.8327 38.1673 33.3327 40.0007 33.3327Z" fill="white"/>
</svg>
