<svg width="70" height="70" viewBox="0 0 70 70" fill="none" xmlns="http://www.w3.org/2000/svg">
<circle cx="35" cy="35" r="35" transform="matrix(1 0 0 -1 0 70)" fill="#FFC145"/>
<g clip-path="url(#clip0_1030_61)">
<path d="M50 26.6666C47.2333 26.6666 45 28.8999 45 31.6666C45 31.7833 45 31.8999 45.0167 32.0166L41.6333 33.1499C40.5667 31.1333 38.6 29.6666 36.2667 29.2833V25.6833C38.4 25.1166 40 23.1666 40 20.8333C40 18.0666 37.7667 15.8333 35 15.8333C32.2333 15.8333 30 18.0666 30 20.8333C30 23.1666 31.6 25.1166 33.75 25.6833V29.2833C31.4167 29.6666 29.45 31.1333 28.3833 33.1499L24.9833 32.0166C25 31.8999 25 31.7833 25 31.6666C25 28.8999 22.7667 26.6666 20 26.6666C17.2333 26.6666 15 28.8999 15 31.6666C15 34.4333 17.2333 36.6666 20 36.6666C21.7667 36.6666 23.3 35.7499 24.2 34.3833L27.5833 35.5166C27.25 37.6666 27.8667 39.9499 29.4 41.6666L27.05 44.6166C26.4167 44.3166 25.7333 44.1666 25 44.1666C22.2333 44.1666 20 46.3999 20 49.1666C20 51.9333 22.2333 54.1666 25 54.1666C27.7667 54.1666 30 51.9333 30 49.1666C30 48.0333 29.6333 46.9999 29 46.1666L31.35 43.2166C33.6167 44.4833 36.3833 44.4666 38.6333 43.2166L40.9833 46.1666C40.3667 46.9999 40 48.0333 40 49.1666C40 51.9333 42.2333 54.1666 45 54.1666C47.7667 54.1666 50 51.9333 50 49.1666C50 46.3999 47.7667 44.1666 45 44.1666C44.2667 44.1666 43.5833 44.3166 42.95 44.5999L40.6 41.6499C42.15 39.9166 42.75 37.6499 42.4167 35.4999L45.8 34.3666C46.6833 35.7333 48.2333 36.6499 50 36.6499C52.7667 36.6499 55 34.4166 55 31.6499C55 28.8833 52.7667 26.6666 50 26.6666ZM20 33.3333C19.0833 33.3333 18.3333 32.5833 18.3333 31.6666C18.3333 30.7499 19.0833 29.9999 20 29.9999C20.9167 29.9999 21.6667 30.7499 21.6667 31.6666C21.6667 32.5833 20.9167 33.3333 20 33.3333ZM25 50.8333C24.0833 50.8333 23.3333 50.0833 23.3333 49.1666C23.3333 48.2499 24.0833 47.4999 25 47.4999C25.9167 47.4999 26.6667 48.2499 26.6667 49.1666C26.6667 50.0833 25.9167 50.8333 25 50.8333ZM33.3333 20.8333C33.3333 19.9166 34.0833 19.1666 35 19.1666C35.9167 19.1666 36.6667 19.9166 36.6667 20.8333C36.6667 21.7499 35.9167 22.4999 35 22.4999C34.0833 22.4999 33.3333 21.7499 33.3333 20.8333ZM35 40.8333C32.7 40.8333 30.8333 38.9666 30.8333 36.6666C30.8333 34.3666 32.7 32.4999 35 32.4999C37.3 32.4999 39.1667 34.3666 39.1667 36.6666C39.1667 38.9666 37.3 40.8333 35 40.8333ZM45 47.4999C45.9167 47.4999 46.6667 48.2499 46.6667 49.1666C46.6667 50.0833 45.9167 50.8333 45 50.8333C44.0833 50.8333 43.3333 50.0833 43.3333 49.1666C43.3333 48.2499 44.0833 47.4999 45 47.4999ZM50 33.3333C49.0833 33.3333 48.3333 32.5833 48.3333 31.6666C48.3333 30.7499 49.0833 29.9999 50 29.9999C50.9167 29.9999 51.6667 30.7499 51.6667 31.6666C51.6667 32.5833 50.9167 33.3333 50 33.3333Z" fill="white"/>
</g>
<defs>
<clipPath id="clip0_1030_61">
<rect width="40" height="40" fill="white" transform="translate(15 15)"/>
</clipPath>
</defs>
</svg>
