<svg width="70" height="70" viewBox="0 0 70 70" fill="none" xmlns="http://www.w3.org/2000/svg">
<circle cx="35" cy="35" r="35" transform="matrix(1 0 0 -1 0 70)" fill="#7DE7B4"/>
<path d="M25 40C26.8334 40 28.3334 41.5 28.3334 43.3333C28.3334 45.1667 26.8334 46.6667 25 46.6667C23.1667 46.6667 21.6667 45.1667 21.6667 43.3333C21.6667 41.5 23.1667 40 25 40ZM25 36.6667C21.3334 36.6667 18.3334 39.6667 18.3334 43.3333C18.3334 47 21.3334 50 25 50C28.6667 50 31.6667 47 31.6667 43.3333C31.6667 39.6667 28.6667 36.6667 25 36.6667ZM35 23.3333C36.8334 23.3333 38.3334 24.8333 38.3334 26.6667C38.3334 28.5 36.8334 30 35 30C33.1667 30 31.6667 28.5 31.6667 26.6667C31.6667 24.8333 33.1667 23.3333 35 23.3333ZM35 20C31.3334 20 28.3334 23 28.3334 26.6667C28.3334 30.3333 31.3334 33.3333 35 33.3333C38.6667 33.3333 41.6667 30.3333 41.6667 26.6667C41.6667 23 38.6667 20 35 20ZM45 40C46.8334 40 48.3334 41.5 48.3334 43.3333C48.3334 45.1667 46.8334 46.6667 45 46.6667C43.1667 46.6667 41.6667 45.1667 41.6667 43.3333C41.6667 41.5 43.1667 40 45 40ZM45 36.6667C41.3334 36.6667 38.3334 39.6667 38.3334 43.3333C38.3334 47 41.3334 50 45 50C48.6667 50 51.6667 47 51.6667 43.3333C51.6667 39.6667 48.6667 36.6667 45 36.6667Z" fill="white"/>
</svg>
