<svg width="564" height="354" viewBox="0 0 564 354" fill="none" xmlns="http://www.w3.org/2000/svg">
<path d="M492.492 142.574C492.492 142.574 494.714 145.377 496.986 145.781C499.259 146.185 514.915 148.659 527.389 164.896C539.862 181.132 550.468 205.373 553.346 215.902C556.2 226.457 562.866 251.304 553.346 266.48C553.346 266.48 550.241 275.141 540.645 279.358V308.75L438.708 309.28C438.708 309.28 440.223 292.993 440.501 282.867C440.778 272.717 440.551 264.939 440.551 264.939C440.551 264.939 427.269 282.766 406.058 270.217L371.086 192.798C371.086 192.798 400.731 180.046 404.67 180.248C408.609 180.45 409.038 183.935 409.038 183.935L416.639 198.631L421.133 202.065L433.153 166.89C433.153 166.89 445.223 146.488 468.454 144.872L492.492 142.624V142.574Z" fill="#000B33"/>
<path d="M200.34 76.2397H67.773C50.9127 76.2397 37.2451 89.9078 37.2451 106.768V173.657C37.2451 190.518 50.9127 204.186 67.773 204.186H200.34C217.2 204.186 230.868 190.518 230.868 173.657V106.768C230.868 89.9078 217.2 76.2397 200.34 76.2397Z" fill="#FFC145"/>
<path d="M165.872 195.575C165.872 195.575 144.182 197.292 121.305 230.523C98.4278 263.753 88.7565 284.66 87.5697 290.291C86.3829 295.922 83.1763 310.618 97.9227 319.557C97.9227 319.557 101.357 323.749 126.153 323.749C150.949 323.749 183.17 323.143 183.17 323.143C183.17 323.143 185.846 321.451 186.932 316.3C188.018 311.149 213.748 308.295 213.748 308.295L210.743 292.614C210.743 292.614 233.696 314.608 251.195 311.25C268.694 307.891 271.673 295.67 271.673 295.67L267.431 233.654L252.458 197.015C252.458 197.015 243.468 193.303 232.257 199.035C221.046 204.767 220.844 206.383 220.844 206.383C220.844 206.383 217.94 197.823 213.369 196.156C208.799 194.49 200.34 194.894 200.34 194.894L165.872 195.55V195.575Z" fill="#000B33"/>
<path d="M204.33 7.20361H356.314C363.637 7.20361 369.596 13.1628 369.596 20.4856V75.4818C369.596 82.8045 363.637 88.7637 356.314 88.7637H204.33C197.007 88.7637 191.048 82.8045 191.048 75.4818V20.4856C191.048 13.1628 197.007 7.20361 204.33 7.20361Z" fill="#FFC145"/>
<path d="M224.277 160.982C224.277 160.982 228.419 159.619 228.924 152.902C229.403 146.185 229.656 141.413 226.601 136.565C223.545 131.717 214.581 130 207.612 130.176C200.618 130.353 192.739 134.141 190.34 136.691C190.34 136.691 182.487 139.797 180.947 141.211C179.432 142.625 175.972 144.746 177.563 151.74C179.154 158.76 180.442 167.043 180.543 172.471C180.644 177.9 178.725 182.496 174.938 183.355C171.15 184.213 160.494 185.577 159.383 196.788L165.898 195.525C165.898 195.525 182.487 204.944 190.416 198.884C198.345 192.824 197.007 192.167 197.007 192.167L208.849 195.702L213.395 196.157C213.395 196.157 225.818 196.106 227.661 183.86C229.504 171.638 224.05 163.937 224.05 163.937L224.277 160.957V160.982Z" fill="#000B33"/>
<path d="M239.277 196.383C239.58 196.332 235.918 192.217 235.918 192.217C235.918 192.217 234.58 180.45 232.358 174.036C230.136 167.622 224.277 161.815 224.277 161.815L223.546 149.088C223.546 149.088 222.586 143.407 214.228 142.624C214.228 142.624 209.178 156.36 197.537 160.552C197.537 160.552 189.533 158.583 187.462 165.375C185.392 172.168 194.658 173.304 194.658 173.304C194.658 173.304 200.416 181.636 198.623 188.151C196.83 194.666 191.35 200.221 184.583 200.625C184.583 200.625 187.538 218.048 200.416 215.296C213.293 212.569 206.249 201.837 206.249 201.837L210.819 184.818C210.819 184.818 209.607 196.484 217.536 199.312L220.818 206.382C220.818 206.382 230.793 198.049 239.226 196.358L239.277 196.383Z" fill="white"/>
<path d="M175.998 295.063C175.998 295.063 186.755 293.8 196.072 294.33C205.39 294.861 209.178 295.063 212.586 298.244C215.995 301.426 224.101 311.046 225.616 314.48C227.131 317.914 224.353 319.455 222.99 319.253C221.601 319.051 218.091 317.081 218.091 317.081C218.091 317.081 222.055 323.874 217.308 324.808C212.561 325.742 210.213 320.162 208.47 317.612C206.728 315.061 203.471 310.693 203.471 310.693L208.446 322.965C208.446 322.965 209.607 326.551 205.643 327.056C201.703 327.561 198.471 321.349 198.471 321.349L193.749 312.713C193.749 312.713 187.083 318.621 177.438 317.005C177.438 317.005 175.165 303.32 175.973 295.088L175.998 295.063Z" fill="white"/>
<path d="M178.801 331.702L228.596 314.103L284.627 327.814L245.715 352.635L178.801 331.702Z" fill="white"/>
<path d="M113.326 105.834C109.917 100.001 104.337 100.001 100.928 105.834L74.7422 150.68C71.3334 156.513 74.0861 161.285 80.8281 161.285H133.45C140.218 161.285 142.945 156.513 139.536 150.68L113.326 105.834Z" fill="white"/>
<path d="M275.31 61.0641C275.31 67.0486 270.462 71.8967 264.477 71.8967C258.493 71.8967 253.645 67.0486 253.645 61.0641C253.645 55.0797 258.493 50.2314 264.477 50.2314C270.462 50.2314 275.31 55.0797 275.31 61.0641Z" fill="white"/>
<path d="M223.445 61.0641C223.445 67.0486 218.596 71.8967 212.612 71.8967C206.628 71.8967 201.779 67.0486 201.779 61.0641C201.779 55.0797 206.628 50.2314 212.612 50.2314C218.596 50.2314 223.445 55.0797 223.445 61.0641Z" fill="white"/>
<path d="M329.245 61.0641C329.245 67.0486 324.397 71.8967 318.413 71.8967C312.428 71.8967 307.58 67.0486 307.58 61.0641C307.58 55.0797 312.428 50.2314 318.413 50.2314C324.397 50.2314 329.245 55.0797 329.245 61.0641Z" fill="white"/>
<path d="M401.564 189.591C401.564 189.591 404.392 178.051 404.973 174.188C405.553 170.324 407.245 165.35 404.064 162.194C400.882 159.037 393.585 155.805 390.554 155.78C387.524 155.78 385.226 156.007 384.646 158.153C384.09 160.3 383.939 164.441 396.413 170.956L363.385 171.309C363.385 171.309 370 184.566 377.878 193.53L394.62 193.075L401.564 189.591Z" fill="white"/>
<path d="M492.492 142.573C492.492 142.573 488.831 137.776 489.184 130.453C489.513 123.13 489.816 121.161 489.816 121.161C489.816 121.161 495.295 118.711 494.461 113.282C493.653 107.853 489.058 107.752 484.917 108.636L478.352 104.773C478.352 104.773 477.645 99.7732 473.403 99.0409C473.403 99.0409 469.615 94.0159 469.514 88.8647C469.514 88.8647 461.055 93.1321 458.656 99.5963C458.656 99.5963 452.924 99.4954 452.797 108.636C452.671 117.752 457.772 119.317 457.772 119.317C457.772 119.317 457.671 129.645 461.812 132.296C465.953 134.948 468.175 133.761 468.175 133.761L468.453 144.821L471.256 159.037L492.518 142.573H492.492Z" fill="white"/>
<path d="M489.79 136.21C489.79 136.21 493.704 137.17 496.886 136.21C500.067 135.251 501.557 132.776 501.557 132.776L501.38 129.999C501.38 129.999 503.224 130.63 505.471 132.776C507.718 134.922 507.188 140.326 502.542 143.154C497.896 145.982 494.638 144.821 494.638 144.821C494.638 144.821 490.775 142.195 489.765 136.21H489.79Z" fill="#000B33"/>
<path d="M507.238 134.291C507.238 134.291 517.894 141.412 521.96 149.593C526.025 157.775 526.808 164.895 526.808 164.895C526.808 164.895 521.707 156.638 511.456 151.31C501.204 145.982 495.674 144.871 495.674 144.871C495.674 144.871 502.365 145.099 504.512 141.109C506.658 137.119 507.213 134.266 507.213 134.266L507.238 134.291Z" fill="#FFC145"/>
<path d="M501.582 132.751C501.582 132.751 500.774 128.585 503.35 114.899C505.9 101.213 506.708 97.7284 506.708 97.7284C506.708 97.7284 507.365 87.2747 495.345 83.487C483.326 79.6994 470.6 80.3306 465.07 82.4517C459.54 84.5475 457.621 89.3451 457.57 93.3095C457.545 97.2739 457.57 99.193 457.57 99.193C458.58 99.193 460.727 94.3953 468.908 88.8906C468.908 88.8906 471.054 97.0719 473.403 99.0667C473.403 99.0667 477.594 99.4708 478.352 104.799C478.352 104.799 483.023 108.006 484.917 108.662C484.917 108.662 487.189 107.223 490.219 108.788C493.25 110.354 494.689 113.258 494.461 116.49C494.234 119.722 489.816 121.212 489.816 121.212C489.816 121.212 488.831 127.247 489.159 131.186C489.487 135.125 489.816 136.236 489.816 136.236C489.816 136.236 498.83 138.231 501.608 132.802L501.582 132.751Z" fill="#FFC145"/>
<path d="M467.115 198.605C467.115 198.605 461.888 174.617 458.554 168.102L412.699 168.001C412.699 168.001 418.911 189.414 420.123 199.843C421.335 210.271 424.82 237.062 423.709 242.441H464.741L467.14 198.605H467.115Z" fill="white"/>
<path d="M478.831 216.735C478.831 216.735 475.069 212.821 475.296 207.316C475.498 201.812 474.084 198.1 471.18 194.439C468.276 190.777 465.145 189.59 465.145 189.59L467.115 199.842C467.115 199.842 468.251 207.872 463.504 207.089C458.731 206.306 442.597 193.529 442.597 193.529C442.597 193.529 439.364 192.393 437.748 194.06C436.132 195.726 437.218 200.145 437.218 200.145C437.218 200.145 433.708 199.615 432.42 201.206C431.133 202.797 434.34 207.72 434.34 207.72C434.34 207.72 433.38 209.135 433.582 210.675C433.784 212.215 433.683 216.785 444.364 222.391C455.045 227.997 465.777 235.193 465.777 235.193C465.777 235.193 473.529 220.977 478.856 216.735H478.831Z" fill="white"/>
<path d="M412.346 196.863L400.933 193.53L295.435 193.479L289.652 195.171L283.592 198.807L280.36 202.494L251.22 277.691L251.523 282.716L253.796 288.195L261.548 293.346L412.346 196.863Z" fill="white"/>
<path d="M405.427 196.383H304.399C295.334 196.383 287.304 201.231 284.552 208.377L257.937 277.691C253.67 288.801 263.695 300.114 277.784 300.114H378.813C387.878 300.114 395.908 295.266 398.66 288.12L425.274 218.806C429.542 207.696 419.517 196.383 405.427 196.383Z" fill="#FFC145"/>
<path d="M333.563 265.899L321.569 266.302L317.883 264.005L317.226 260.672L325.382 239.739L328.362 237.163H360.708L363.94 239.309L364.824 242.542L357.249 262.464C357.249 262.464 355.38 252.97 350.002 248.273H330.71V255.167C330.71 255.167 333.488 262.313 333.563 265.368V265.899Z" fill="#000B33"/>
<path d="M330.71 255.142C330.71 255.142 335.053 265.166 336.012 281.529C336.972 297.866 339.017 319.228 337.881 327.586L342.552 330.566H362.122C362.122 330.566 362.501 308.951 361.087 293.321C359.647 277.69 357.754 262.641 355.355 256.808C352.956 250.95 350.027 247.743 350.027 247.743L330.71 248.248V255.142Z" fill="white"/>
<path d="M337.528 318.598H295.712L293.667 320.744V324.683L293.162 330.188L310.156 341.778L403.963 341.879C403.963 341.879 406.337 340.515 406.665 339.152C407.018 337.813 406.866 330.566 406.866 330.566C406.866 330.566 407.17 329.809 401.438 326.148C395.706 322.486 389.115 318.572 389.115 318.572H337.553L337.528 318.598Z" fill="white"/>
<path d="M401.564 189.59L403.256 180.248C403.256 180.248 408.205 180.197 408.078 183.303C407.977 186.409 401.539 189.59 401.539 189.59H401.564Z" fill="#00233D"/>
<path d="M374.47 189.844L371.086 192.798L377.879 193.53L374.47 189.844Z" fill="#00233D"/>
<path d="M310.13 341.777C310.13 341.777 403.407 342.56 405.074 341.879C405.149 341.727 406.589 339.328 406.639 339.177C406.867 338.318 406.866 335.136 406.866 332.889C406.715 332.839 406.008 334.329 406.008 334.329L403.281 335.944H310.358L293.642 324.683L293.136 330.187L310.13 341.777Z" fill="#FFC145"/>
<path d="M224.051 163.986L224.277 161.006C224.277 161.006 228.419 159.643 228.924 152.926C229.404 146.209 229.656 141.437 226.601 136.589C223.546 131.74 214.581 130.023 207.612 130.2C207.158 130.2 206.678 130.251 206.198 130.276C206.122 130.453 221.071 137.573 203.521 156.613C194.431 166.46 213.697 167.799 226.298 168.632C225.237 165.652 224.051 163.986 224.051 163.986Z" fill="white"/>
<path d="M190.417 198.909C198.345 192.849 197.007 192.192 197.007 192.192L206.476 195.02C204.381 186.864 201.704 176.537 201.704 176.537L195.492 173.279H191.73C191.73 173.279 198.118 184.592 188.548 192.066C178.978 199.54 165.873 195.55 165.873 195.55C165.873 195.55 182.462 204.969 190.391 198.909H190.417Z" fill="white"/>
<path d="M557.841 254.157C557.841 254.157 546.352 244.663 532.312 256.177C518.298 267.691 524.308 281.099 524.308 281.099C524.308 281.099 538.575 285.064 549.104 273.171C559.634 261.252 557.841 254.157 557.841 254.157Z" fill="#FFC145"/>
<path d="M479.387 80.8109C473.326 80.5836 468.1 81.3158 465.044 82.4521C459.514 84.5479 457.595 89.3455 457.545 93.3099C457.52 97.2743 457.545 99.1934 457.545 99.1934C458.555 99.1934 460.701 94.3957 468.883 88.891C468.883 88.891 471.029 97.0724 473.377 99.0672C473.377 99.0672 477.569 99.4712 478.326 104.799C478.326 104.799 482.998 108.006 484.892 108.662C482.72 105.43 475.574 96.9713 474.614 89.7496C474.034 85.255 476.634 82.4774 479.361 80.8109H479.387Z" fill="white"/>
<path d="M501.582 133.383C500.193 130.353 500.85 127.298 500.875 127.171C503.324 108.965 505.799 98.7641 506.052 97.6783C505.749 92.9059 503.552 89.0929 499.462 86.3406C488.907 79.2451 469.64 81.4167 465.247 83.0327C464.994 83.0832 462.721 83.3106 460.802 85.6842C458.479 88.5375 457.621 93.3351 458.353 99.5973C456.333 93.0321 457.267 88.0072 459.868 84.8509C461.938 82.3258 464.388 81.8965 464.918 81.8207C470.675 79.7249 489.941 78.3866 500.193 85.2801C504.637 88.2597 507.036 92.4514 507.339 97.6783C507.289 97.9813 504.713 108.233 502.138 127.373C502.138 127.449 501.506 130.277 502.213 132.55C501.734 133.358 501.683 133.358 501.607 133.358L501.582 133.383Z" fill="#000B33"/>
<path d="M432.395 168.632C440.678 153.709 452.722 146.033 468.655 144.265C453.252 147.245 441.511 154.719 432.925 168.355C432.799 168.557 432.597 168.658 432.395 168.658V168.632Z" fill="#000B33"/>
<path d="M467.772 134.772C466.358 134.772 465.146 134.595 464.06 134.267C461.408 133.434 459.615 131.464 458.555 128.282C457.721 125.732 457.267 122.904 457.141 119.394C458.53 122.752 458.959 125.479 459.741 127.904C460.65 130.681 462.191 132.373 464.438 133.08C465.802 133.509 467.418 133.636 469.514 133.459C471.584 133.282 474.64 132.903 476.736 132.499C474.842 134.166 471.736 134.545 469.615 134.721C468.958 134.772 468.352 134.797 467.772 134.797V134.772Z" fill="#000B33"/>
<path d="M484.917 109.697C482.14 108.334 479.917 107.097 477.923 105.253C480.65 106.061 482.796 107.248 485.22 108.511C485.371 109.571 485.144 109.697 484.917 109.697Z" fill="#000B33"/>
<path d="M458.353 100.254C457.823 100.102 457.646 99.749 457.747 99.4207C459.464 94.4968 468.428 88.6133 468.807 88.3608C469.791 88.8659 470.271 93.4614 473.882 98.6883C470.019 95.33 469.009 91.6687 468.68 89.9517C466.433 91.5172 460.196 96.1128 458.909 99.8247C458.808 100.077 458.58 100.254 458.303 100.254H458.353Z" fill="#000B33"/>
<path d="M487.896 122.096C486.735 122.096 485.598 121.818 484.588 121.288C486.129 120.656 487.189 120.884 488.275 120.833C491.532 120.631 494.032 117.803 493.83 114.546C493.628 111.288 490.775 108.789 487.542 108.991C486.356 109.066 485.22 109.496 484.286 110.203C484.639 108.334 486.003 107.829 487.467 107.728C491.684 107.728 494.84 110.657 495.092 114.47C495.345 118.434 492.315 121.843 488.376 122.096C488.224 122.096 488.073 122.096 487.922 122.096H487.896Z" fill="#000B33"/>
<path d="M489.336 118.863C488.957 118.737 484.513 115.303 484.513 115.303C484.513 114.293 489.411 110.682 489.411 110.682C490.169 111.692 485.927 114.823 485.927 114.823L489.689 117.727C489.689 118.762 489.487 118.863 489.311 118.863H489.336Z" fill="#000B33"/>
<path d="M471.231 159.669C470.599 159.139 468.125 144.973 468.125 144.973L467.544 134.292C468.807 134.216 469.362 144.821 469.362 144.821L471.66 157.876L492.088 142.044C492.871 143.029 471.61 159.492 471.61 159.492C471.509 159.568 471.357 159.618 471.231 159.618V159.669Z" fill="#000B33"/>
<path d="M450.02 218.881C449.263 218.477 448.227 217.871 446.914 217.114C442.016 214.311 433.809 209.614 432.168 205.524C430.855 202.19 432.041 200.6 432.875 199.918C434.314 198.756 436.435 198.883 437.572 199.615C436.132 200.17 434.592 200.145 433.683 200.877C432.698 201.66 432.597 203.099 433.354 205.044C434.819 208.73 443.101 213.478 447.546 216.003C448.96 216.811 449.969 217.391 450.424 217.745C450.424 218.78 450.222 218.881 450.045 218.881H450.02Z" fill="#000B33"/>
<path d="M465.751 235.825C465.322 235.673 455.07 229.386 441.965 221.71C436.814 218.705 433.835 215.473 433.102 212.114C432.471 209.261 433.759 207.418 433.809 207.342C434.794 208.125 433.809 209.589 434.34 211.887C434.996 214.841 437.849 217.871 442.597 220.649C455.727 228.325 465.978 234.613 466.079 234.663C466.18 235.724 465.953 235.825 465.751 235.825Z" fill="#000B33"/>
<path d="M467.09 200.474C463.479 182.42 458.908 170.829 457.999 168.633H432.395C432.395 167.37 458.429 167.37 458.429 167.37C459.06 167.875 464.388 180.147 467.721 199.742C467.166 200.474 467.14 200.474 467.09 200.474Z" fill="#000B33"/>
<path d="M420.325 201.812C416.487 179.39 412.144 168.33 412.119 168.229C412.699 167.37 432.42 167.37 432.42 167.37C432.42 168.633 413.609 168.633 413.609 168.633C414.669 171.638 418.229 182.521 420.956 201.105C420.401 201.812 420.376 201.838 420.325 201.838V201.812Z" fill="#000B33"/>
<path d="M464.742 243.072H423.709C423.002 236.154 422.775 231.053 422.32 224.867C424.012 230.801 424.214 235.775 424.315 241.81H464.742C465.373 242.795 465.095 243.072 464.742 243.072Z" fill="#000B33"/>
<path d="M438.708 309.886C439.264 307.007 440.349 276.555 440.577 242.416C441.688 267.288 440.829 307.512 439.213 309.633C439.087 309.785 438.91 309.886 438.708 309.886Z" fill="#000B33"/>
<path d="M540.645 309.76C540.443 300.442 540.014 279.888 540.014 279.686C541.276 279.863 541.705 300.442 541.276 309.154C541.276 309.482 540.973 309.76 540.645 309.76Z" fill="#000B33"/>
<path d="M515.47 236.456C504.435 215.321 503.097 181.99 503.097 181.662C504.36 181.94 505.698 214.993 516.051 235.547C515.672 236.431 515.571 236.456 515.495 236.456H515.47Z" fill="#000B33"/>
<path d="M462.848 119.974C461.535 119.192 459.616 117.096 459.414 115.429C459.313 114.697 459.565 114.242 459.792 113.99C460.726 112.904 462.343 113.611 463.429 114.066C464.035 112.904 464.514 109.42 464.817 107.147C465.903 108.511 465.095 114.444 464.943 115.05C464.11 115.732 463.655 115.53 462.948 115.227C462.292 114.949 461.08 114.419 460.752 114.798C460.802 116.414 462.418 118.257 463.226 118.788C463.277 119.848 463.075 119.949 462.873 119.949L462.848 119.974Z" fill="#000B33"/>
<path d="M468.302 124.62C467.721 124.62 467.064 124.519 466.408 124.342C468.15 123.509 469.312 123.408 470.17 122.827C471.61 121.817 471.837 119.772 471.837 119.747C473.074 119.974 472.822 122.549 470.903 123.862C470.17 124.367 469.312 124.62 468.327 124.62H468.302Z" fill="#000B33"/>
<path d="M478.831 217.367C478.251 217.19 475.17 215.751 474.64 207.014C473.807 193.227 465.019 190.197 464.943 190.172C465.726 189.111 475.019 192.293 475.902 206.938C476.382 214.867 479.059 216.13 479.084 216.155C479.311 217.216 479.084 217.367 478.831 217.367Z" fill="#000B33"/>
<path d="M454.237 213.856C446.182 210.271 437.167 203.958 435.879 198.428C435.501 196.787 435.804 195.322 436.814 194.11C437.597 193.126 438.657 192.595 439.768 192.595C441.308 192.595 442.672 193.403 443.934 194.211C445.096 194.969 446.232 195.802 447.318 196.635C447.773 196.964 448.202 197.317 448.656 197.645C451.055 199.413 453.555 200.979 455.904 202.418C456.51 202.797 457.116 203.175 457.722 203.605C459.186 204.564 460.701 205.574 462.266 206.18C462.999 206.458 463.555 206.534 464.034 206.433C466.332 205.978 466.559 202.999 466.458 199.867C467.797 202.14 467.948 206.913 464.287 207.67C463.352 207.872 462.418 207.569 461.812 207.342C460.12 206.685 458.555 205.65 457.015 204.64C456.409 204.236 455.828 203.857 455.222 203.478C452.848 202.039 450.323 200.448 447.874 198.655C447.419 198.327 446.964 197.974 446.51 197.645C445.449 196.837 444.339 196.004 443.203 195.272C442.091 194.54 440.904 193.858 439.718 193.858C438.758 193.858 438.101 194.438 437.723 194.918C436.965 195.853 436.738 196.888 437.041 198.15C438.051 202.443 445.374 208.554 454.439 212.644C454.641 213.705 454.439 213.856 454.186 213.856H454.237Z" fill="#000B33"/>
<path d="M471.13 86.1893C471.003 84.9015 475.372 82.4017 477.973 81.8462C475.827 83.6137 471.483 86.0883 471.433 86.1136C471.332 86.1641 471.231 86.1893 471.13 86.1893Z" fill="#000B33"/>
<path d="M116.103 287.993C134.536 277.387 180.089 280.645 182.033 280.771C181.477 281.983 134.814 278.65 116.406 287.917C116.305 287.968 116.23 287.993 116.129 287.993H116.103Z" fill="#000B33"/>
<path d="M150.722 324.38C145.874 324.38 141.076 324.38 136.253 324.38H131.405C125.244 324.405 118.855 324.43 112.643 324.001C106.129 323.546 100.978 322.158 96.9122 319.708C90.8015 316.022 86.4838 309.153 85.701 301.755C84.5394 290.973 91.2564 279.029 96.6601 269.409C97.5943 267.742 98.5029 266.151 99.3109 264.611C105.699 252.718 112.946 241.128 120.825 230.144C131.481 215.271 145.167 199.489 165.771 194.944C145.848 200.6 132.365 216.205 121.86 230.876C114.007 241.809 106.811 253.349 100.448 265.192C99.6144 266.732 98.7305 268.348 97.7709 270.014C92.4683 279.458 85.8525 291.225 86.9635 301.603C87.721 308.598 91.7863 315.112 97.5687 318.597C101.457 320.945 106.432 322.284 112.745 322.713C118.931 323.142 125.269 323.117 131.43 323.092H134.157C137.288 323.092 140.445 323.092 143.576 323.092C156.176 323.117 169.205 323.142 181.982 322.486C171.654 324.279 161.1 324.354 150.772 324.354L150.722 324.38Z" fill="#000B33"/>
<path d="M144.031 282.034C143.475 281.125 168.195 231.936 168.195 231.936C169.306 232.492 144.611 281.705 144.611 281.705C144.51 281.933 144.283 282.059 144.056 282.059L144.031 282.034Z" fill="#000B33"/>
<path d="M204.405 327.914C203.092 327.914 201.779 327.308 200.719 326.121C199.936 325.263 199.38 324.227 198.825 323.243C197.562 321.046 196.83 319.707 196.123 318.344C195.694 317.536 195.441 317.081 195.213 316.602C194.254 314.758 193.244 312.839 191.982 311.198C194.305 312.157 195.34 314.127 196.325 316.021C196.578 316.501 196.805 316.955 197.057 317.41C197.966 319.101 198.673 320.44 199.456 321.753C200.466 323.545 200.996 324.505 201.678 325.288C202.89 326.651 204.405 327.03 205.845 326.323C206.552 325.995 207.082 325.54 207.385 325.035C207.814 324.354 207.865 323.571 207.814 323.015C207.764 322.03 207.41 321.096 207.031 320.162C206.602 319.051 206.097 317.915 205.44 316.576C203.95 313.496 202.259 310.365 200.39 307.233C203.37 309.733 205.087 312.915 206.576 316.021C207.233 317.41 207.764 318.571 208.193 319.682C208.597 320.692 209.001 321.778 209.052 322.914C209.127 323.95 208.9 324.909 208.42 325.667C207.966 326.374 207.259 327.005 206.35 327.434C205.693 327.737 205.036 327.889 204.38 327.889L204.405 327.914Z" fill="#000B33"/>
<path d="M216.121 325.642C215.086 325.642 213.698 325.238 212.208 323.723C207.057 318.42 200.668 307.663 200.39 307.209C201.526 306.678 208.041 317.637 213.117 322.839C214.404 324.177 215.768 324.657 217.005 324.253C218.167 323.874 218.925 322.814 219 322.208C219.505 318.319 211.703 308.623 208.647 305.214C210.061 304.886 220.945 317.107 220.238 322.384C220.086 323.47 218.975 324.935 217.384 325.465C217.056 325.566 216.626 325.667 216.121 325.667V325.642Z" fill="#000B33"/>
<path d="M222.864 319.885C219.404 319.582 216.904 316.248 216.803 316.122C217.838 315.39 220.086 318.369 222.535 318.622C223.419 318.698 224.227 318.42 224.984 317.738C226.651 316.223 223.242 311.198 220.692 308.37C216.222 301.982 211.45 297.437 208.521 296.679C196.198 293.548 177.185 295.694 177.008 295.72C177.058 294.457 196.3 292.286 208.849 295.467C212.763 296.452 218.041 302.386 221.702 307.587C222.409 308.37 228.974 315.844 225.843 318.673C224.934 319.481 223.924 319.91 222.838 319.91L222.864 319.885Z" fill="#000B33"/>
<path d="M180.594 317.839C179.584 317.839 178.498 317.763 177.387 317.611C187.084 317.687 192.967 312.283 193.017 312.233C193.649 313.369 188.775 317.839 180.594 317.839Z" fill="#000B33"/>
<path d="M401.564 190.223C400.983 189.112 402.246 179.845 404.392 173.987C406.538 168.103 405.124 163.382 402.726 161.917C399.519 159.973 389.166 154.922 386.009 156.842C385.353 157.246 385.05 157.953 385.101 159.064C385.479 165.982 399.19 171.537 399.342 171.588C398.281 172.522 384.293 166.841 383.863 159.139C383.762 157.17 384.621 156.235 385.378 155.781C389.923 153.054 403.256 160.781 403.382 160.856C406.766 162.902 407.674 168.608 405.553 174.416C403.483 180.148 402.195 189.592 402.17 189.693C402.12 190.021 401.867 190.248 401.539 190.248L401.564 190.223Z" fill="#000B33"/>
<path d="M377.878 193.858C373.46 189.237 366.238 177.849 362.829 171.612C367.248 177.041 374.495 188.53 378.333 192.797C378.156 193.807 378.005 193.858 377.853 193.858H377.878Z" fill="#000B33"/>
<path d="M390.529 181.99C387.802 174.692 380 171.94 379.924 171.915C380.681 170.829 388.812 173.708 391.135 181.182C390.655 181.99 390.605 181.99 390.529 181.99Z" fill="#000B33"/>
<path d="M420.805 275.165C415.628 275.165 410.578 273.701 405.73 270.746C413.861 274.18 421.79 275.089 429.946 272.337C434.239 270.873 437.976 267.868 440.678 263.625C438.885 268.802 434.945 271.983 430.35 273.549C427.143 274.635 423.961 275.165 420.83 275.165H420.805Z" fill="#000B33"/>
<path d="M416.639 199.237C411.033 188.53 407.069 181.738 407.018 181.662C408.154 181.106 412.119 187.924 417.194 198.328C416.815 199.211 416.715 199.237 416.639 199.237Z" fill="#000B33"/>
<path d="M370.783 193.858C371.01 191.636 371.894 190.803 374.116 189.313C372.803 191.712 371.97 192.469 371.338 193.555C371.212 193.757 371.01 193.858 370.808 193.858H370.783Z" fill="#000B33"/>
<path d="M394.241 193.859C403.18 188.859 408.104 184.39 407.397 182.395C407.144 181.663 406.487 180.931 403.533 180.855C406.513 179.668 408.028 180.375 408.583 181.966C409.871 185.577 402.17 190.627 394.468 193.783C394.393 193.808 394.317 193.834 394.241 193.834V193.859Z" fill="#000B33"/>
<path d="M458.025 119.696C454.54 119.62 452.015 115.024 452.141 109.192C452.192 106.49 452.849 103.939 453.96 102.046C455.121 100.051 456.636 98.9648 458.278 98.9648C461.712 99.0406 464.237 103.662 464.111 109.469C464.06 111.616 463.833 113.03 463.252 114.519C462.595 112.701 462.823 111.439 462.848 109.444C462.949 104.52 460.879 100.303 458.328 100.253C457.091 100.253 455.954 101.111 455.045 102.702C454.061 104.419 453.454 106.742 453.404 109.242C453.303 114.166 455.373 118.383 457.924 118.459C458.808 118.459 459.363 118.307 460.146 117.423C460.171 119.292 459.262 119.721 458 119.721L458.025 119.696Z" fill="#000B33"/>
<path d="M473.251 119.141C469.817 119.065 467.292 114.469 467.418 108.662C467.544 102.904 470.246 98.4351 473.554 98.4351C476.988 98.5108 479.513 103.106 479.387 108.939C479.336 111.641 478.68 114.192 477.569 116.085C476.407 118.08 474.892 119.166 473.251 119.166V119.141ZM473.554 99.6723C471.004 99.6723 468.781 103.763 468.68 108.662C468.579 113.586 470.65 117.802 473.2 117.853C474.438 117.853 475.574 116.994 476.483 115.404C477.468 113.686 478.074 111.363 478.124 108.864C478.225 103.94 476.155 99.7228 473.604 99.6723H473.554Z" fill="#000B33"/>
<path d="M463.479 110.353C463.732 108.384 465.852 107.096 468.428 109.015C465.448 108.359 464.135 109.924 463.984 110.101C463.858 110.252 463.681 110.328 463.479 110.328V110.353Z" fill="#000B33"/>
<path d="M249.074 312.007C241.095 312.007 232.61 308.75 225.515 304.281C221.904 302.008 218.546 299.205 215.314 296.529C213.95 295.392 212.586 294.231 211.172 293.145C213.369 293.271 214.733 294.433 216.096 295.569C219.303 298.246 222.611 300.998 226.146 303.22C238.973 311.275 256.321 315.34 266.523 302.513C267.482 301.301 268.391 299.963 269.173 298.498C269.451 300.619 268.517 302.008 267.507 303.296C262.533 309.558 255.967 312.007 249.049 312.007H249.074Z" fill="#000B33"/>
<path d="M234.201 273.499C235.262 269.56 234.479 266.404 233.646 263.07L230.06 248.551C228.949 244.057 226.197 237.365 223.546 230.876C220.869 224.336 218.091 217.594 216.955 212.998C216.98 212.468 218.167 205.499 230.691 199.161C244.604 192.141 252.457 196.257 252.786 196.459C254.528 200.347 256.119 204.059 257.735 207.822C261.371 216.281 265.108 225.043 268.037 233.451C263.947 225.497 260.209 216.76 256.573 208.327C254.982 204.64 253.417 201.004 251.978 197.494C250.741 196.938 243.367 194.186 231.247 200.322C220.187 205.903 218.394 211.988 218.192 212.872C219.303 217.366 222.056 224.007 224.682 230.421C227.358 236.936 230.136 243.703 231.247 248.273L234.833 262.793C235.691 266.201 236.575 269.762 234.732 273.196C234.605 273.398 234.403 273.524 234.176 273.524L234.201 273.499Z" fill="#000B33"/>
<path d="M213.37 197.014C212.208 196.711 209.758 196.434 208.774 196.383C209.733 195.171 212.359 195.449 213.546 195.777C213.899 196.838 213.647 197.014 213.37 197.014Z" fill="#000B33"/>
<path d="M193.876 173.935C191.982 173.935 190.164 173.203 188.826 171.865C187.462 170.501 186.704 168.709 186.679 166.789C186.679 162.825 189.861 159.568 193.825 159.542C195.265 159.467 196.653 159.946 197.865 160.754C196.199 161.158 195.063 160.805 193.876 160.805C190.568 160.805 187.916 163.507 187.942 166.764C187.942 168.355 188.573 169.845 189.709 170.956C190.82 172.067 192.31 172.673 193.876 172.673C194.987 172.673 196.047 172.37 196.956 171.814C196.502 173.557 195.214 173.935 193.901 173.935H193.851H193.876Z" fill="#000B33"/>
<path d="M192.664 170.778C192.235 169.667 195.82 166.511 195.82 166.511L191.401 163.683C192.083 162.622 197.209 165.905 197.209 165.905C197.284 166.915 193.093 170.627 193.093 170.627C192.967 170.728 192.815 170.778 192.689 170.778H192.664Z" fill="#000B33"/>
<path d="M213.066 175.855C212.233 175.855 211.476 175.653 210.819 175.249C208.799 174.062 208.37 171.512 208.344 171.411C209.582 171.234 209.961 173.279 211.476 174.163C212.359 174.693 213.521 174.719 214.909 174.239C214.531 175.703 213.773 175.855 213.091 175.855H213.066Z" fill="#000B33"/>
<path d="M206.35 202.166C205.845 202.065 205.643 201.711 205.744 201.383L210.137 184.919C211.349 185.248 206.956 201.711 206.956 201.711C206.88 201.989 206.628 202.191 206.35 202.191V202.166Z" fill="#000B33"/>
<path d="M220.919 156.614C220.414 156.563 220.086 156.765 220.01 158.583C219.909 160.603 220.465 160.957 220.894 160.906C221.349 160.881 221.778 160.224 221.702 158.785C221.627 157.346 221.576 156.664 220.919 156.588V156.614Z" fill="#000B33"/>
<path d="M206.4 156.689C205.895 156.638 205.567 156.866 205.542 158.684C205.491 160.704 206.047 161.032 206.501 160.982C206.956 160.931 207.359 160.274 207.258 158.835C207.157 157.396 207.082 156.714 206.4 156.664V156.689Z" fill="#000B33"/>
<path d="M223.545 153.937C223.268 153.886 221.323 153.003 219.328 153.129C221.626 151.765 223.697 152.7 223.798 152.75C224 153.811 223.798 153.962 223.545 153.962V153.937Z" fill="#000B33"/>
<path d="M210.743 153.254C210.264 153.052 209.91 152.875 208.9 152.799C210.491 151.663 211.021 151.966 211.223 152.219C211.021 153.204 210.87 153.254 210.743 153.254Z" fill="#000B33"/>
<path d="M2.87841 204.211C4.39346 204.211 5.63097 202.974 5.63097 201.459C5.63097 199.944 4.39346 198.707 2.87841 198.707C1.36336 198.707 0.126465 199.944 0.126465 201.459C0.126465 202.974 1.36336 204.211 2.87841 204.211Z" fill="#000B33"/>
<path d="M24.1898 204.362C25.7806 204.362 27.0688 203.074 27.0688 201.484C27.0688 199.893 25.7806 198.605 24.1898 198.605C22.599 198.605 21.3115 199.893 21.3115 201.484C21.3115 203.074 22.599 204.362 24.1898 204.362Z" fill="#000B33"/>
<path d="M45.5273 204.134C46.9919 204.134 48.2034 202.948 48.2034 201.458C48.2034 199.968 47.0171 198.781 45.5273 198.781C44.0375 198.781 42.8506 199.968 42.8506 201.458C42.8506 202.948 44.0375 204.134 45.5273 204.134Z" fill="#000B33"/>
<path d="M2.87832 225.674C4.46912 225.674 5.75726 224.386 5.75726 222.795C5.75726 221.204 4.46912 219.917 2.87832 219.917C1.28752 219.917 0 221.204 0 222.795C0 224.386 1.28752 225.674 2.87832 225.674Z" fill="#000B33"/>
<path d="M24.1899 225.825C25.8564 225.825 27.2205 224.462 27.2205 222.795C27.2205 221.129 25.8564 219.765 24.1899 219.765C22.5233 219.765 21.1599 221.129 21.1599 222.795C21.1599 224.462 22.5233 225.825 24.1899 225.825Z" fill="#000B33"/>
<path d="M45.5274 225.599C47.0677 225.599 48.3299 224.336 48.3299 222.771C48.3299 221.205 47.0677 219.968 45.5274 219.968C43.9871 219.968 42.699 221.23 42.699 222.771C42.699 224.311 43.9618 225.599 45.5274 225.599Z" fill="#000B33"/>
<path d="M2.87827 246.784C4.34282 246.784 5.55501 245.597 5.55501 244.107C5.55501 242.617 4.36807 241.431 2.87827 241.431C1.38847 241.431 0.201538 242.617 0.201538 244.107C0.201538 245.597 1.38847 246.784 2.87827 246.784Z" fill="#000B33"/>
<path d="M24.1898 246.936C25.7554 246.936 26.9929 245.674 26.9929 244.133C26.9929 242.593 25.7301 241.305 24.1898 241.305C22.6495 241.305 21.3621 242.568 21.3621 244.133C21.3621 245.699 22.6243 246.936 24.1898 246.936Z" fill="#000B33"/>
<path d="M45.5273 246.734C46.9666 246.734 48.1529 245.547 48.1529 244.108C48.1529 242.668 46.9666 241.481 45.5273 241.481C44.088 241.481 42.9011 242.668 42.9011 244.108C42.9011 245.547 44.088 246.734 45.5273 246.734Z" fill="#000B33"/>
<path d="M220.844 122.247C220.212 117.298 219.48 113.435 217.864 109.445C220.692 113.107 221.475 117.122 221.475 121.616C221.475 121.97 221.197 122.247 220.844 122.247Z" fill="#000B33"/>
<path d="M119.765 215.574H61.6877C42.2698 215.574 26.4629 199.767 26.4629 180.349V121.591C26.4629 102.173 42.2698 86.3657 61.6877 86.3657H170.544C170.544 87.6283 61.6877 87.6283 61.6877 87.6283C42.9516 87.6283 27.7254 102.855 27.7254 121.591V180.349C27.7254 199.085 42.9516 214.312 61.6877 214.312H119.765C120.396 215.297 120.118 215.574 119.765 215.574Z" fill="#000B33"/>
<path d="M155.797 170.552H103.174C99.6645 170.552 97.0386 169.34 95.776 167.118C94.5135 164.896 94.7914 162.018 96.5337 158.987L122.718 114.142C124.486 111.112 126.885 109.445 129.461 109.445C132.036 109.445 134.435 111.112 136.203 114.142L162.413 158.987C164.18 162.018 164.458 164.896 163.17 167.118C161.908 169.34 159.282 170.552 155.772 170.552H155.797ZM129.461 110.708C127.34 110.708 125.345 112.147 123.805 114.773L97.6193 159.619C96.079 162.245 95.8264 164.669 96.8616 166.487C97.8969 168.305 100.144 169.29 103.174 169.29H155.797C158.827 169.29 161.075 168.305 162.11 166.487C163.145 164.694 162.867 162.245 161.352 159.619L135.142 114.773C133.602 112.147 131.607 110.708 129.486 110.708H129.461Z" fill="#000B33"/>
<path d="M269.502 67.9835C263.19 67.9835 258.038 62.8322 258.038 56.5195C258.038 50.2068 263.19 45.0557 269.502 45.0557C275.815 45.0557 280.966 50.2068 280.966 56.5195C280.966 62.8322 275.815 67.9835 269.502 67.9835ZM269.502 46.3182C263.871 46.3182 259.301 50.8885 259.301 56.5195C259.301 62.1504 263.871 66.7209 269.502 66.7209C275.133 66.7209 279.704 62.1504 279.704 56.5195C279.704 50.8885 275.133 46.3182 269.502 46.3182Z" fill="#000B33"/>
<path d="M217.637 67.9835C211.324 67.9835 206.173 62.8322 206.173 56.5195C206.173 50.2068 211.324 45.0557 217.637 45.0557C223.95 45.0557 229.101 50.2068 229.101 56.5195C229.101 62.8322 223.95 67.9835 217.637 67.9835ZM217.637 46.3182C212.006 46.3182 207.435 50.8885 207.435 56.5195C207.435 62.1504 212.006 66.7209 217.637 66.7209C223.268 66.7209 227.838 62.1504 227.838 56.5195C227.838 50.8885 223.268 46.3182 217.637 46.3182Z" fill="#000B33"/>
<path d="M323.412 67.9835C317.099 67.9835 311.949 62.8322 311.949 56.5195C311.949 50.2068 317.099 45.0557 323.412 45.0557C329.725 45.0557 334.876 50.2068 334.876 56.5195C334.876 62.8322 329.725 67.9835 323.412 67.9835ZM323.412 46.3182C317.781 46.3182 313.211 50.8885 313.211 56.5195C313.211 62.1504 317.781 66.7209 323.412 66.7209C329.043 66.7209 333.614 62.1504 333.614 56.5195C333.614 50.8885 329.043 46.3182 323.412 46.3182Z" fill="#000B33"/>
<path d="M46.1335 78.2094C45.5022 77.6287 45.4517 76.8965 45.4517 75.5834C45.4517 74.4471 45.5018 72.6037 45.7038 70.2554C46.7643 72.6542 46.7142 74.4724 46.7142 75.5834C46.7142 76.8207 46.7648 77.5276 46.7648 77.5276C46.1587 78.2094 46.1587 78.2094 46.1335 78.2094ZM47.2949 63.766C46.8404 63.6903 46.6131 63.3619 46.6637 63.0337C47.1182 60.6348 47.6735 58.236 48.33 55.9129C48.8855 58.539 48.3302 60.8874 47.9009 63.261C47.8504 63.564 47.5727 63.766 47.2696 63.766H47.2949ZM51.2595 49.8275C51.5625 46.6964 52.5724 44.4492 53.6582 42.3028C53.7087 45.0047 52.724 47.2014 51.8402 49.4234C51.7392 49.676 51.512 49.8275 51.2595 49.8275ZM57.8243 36.9244C58.6071 33.9196 60.0211 31.8994 61.5361 30.0056C61.0311 32.6569 59.6423 34.6266 58.3545 36.6214C58.2282 36.7982 58.0263 36.8991 57.8243 36.8991V36.9244ZM66.8138 25.5867C68.0511 22.7838 69.8437 21.1174 71.687 19.5266C70.677 22.0516 68.9094 23.693 67.2681 25.3848C67.1418 25.511 66.9905 25.5867 66.8138 25.5867ZM176.983 22.6071C176.983 22.6071 175.215 20.9154 171.958 18.4661C178.296 21.6224 178.12 22.1274 178.044 22.3799L176.857 21.9505C177.438 22.203 176.983 22.6324 176.983 22.6324V22.6071ZM77.8228 16.2187C79.4136 13.6936 81.4842 12.3806 83.6053 11.1433C82.1408 13.4411 80.1209 14.7541 78.1766 16.1176C78.0756 16.1934 77.949 16.244 77.8228 16.244V16.2187ZM166.327 14.4764C163.928 13.0876 161.833 11.8755 159.737 10.7897C162.439 10.7897 164.56 12.027 166.656 13.3148C166.731 14.3753 166.529 14.4764 166.327 14.4764ZM90.3224 8.92118C92.2415 6.67386 94.5136 5.68911 96.7609 4.85583C94.9933 6.8759 92.7714 7.83535 90.5998 8.87063C90.5241 8.92113 90.4234 8.92118 90.3224 8.92118ZM153.5 7.73447C151.025 6.74968 148.753 5.89108 146.506 5.13356C149.182 4.67904 151.48 5.56279 153.727 6.52232C153.954 7.58286 153.727 7.73447 153.475 7.73447H153.5ZM103.857 3.82047C106.053 1.9519 108.452 1.42167 110.826 1.01766C108.705 2.65896 106.331 3.18919 104.033 3.82047C103.983 3.82047 103.932 3.82047 103.882 3.82047H103.857ZM139.713 3.18919C137.238 2.63368 134.84 2.20452 132.491 1.87626C135.042 0.941976 137.465 1.39641 139.839 1.95193C140.243 3.01246 139.99 3.18919 139.687 3.18919H139.713ZM118.124 1.39648C120.497 -0.0175616 122.997 -0.0681619 125.396 0.0328414C122.997 1.19438 120.548 1.24498 118.174 1.39648H118.124Z" fill="#000B33"/>
<path d="M480.347 74.9265C479.741 74.4972 479.412 73.4366 479.412 73.4366C480.599 73.0326 480.953 74.0931 480.953 74.0931C480.473 74.9012 480.422 74.9012 480.347 74.9012V74.9265ZM477.443 67.0986C475.927 64.523 474.867 62.3515 473.705 60.2557C475.978 61.7708 477.039 63.9676 477.999 66.2149C477.595 67.0734 477.493 67.0986 477.417 67.0986H477.443ZM470.473 54.3975C468.605 52.1502 467.14 50.2311 465.6 48.4131C468.125 49.4484 469.615 51.4179 470.979 53.4127C470.701 54.3722 470.574 54.3975 470.448 54.3975H470.473ZM461.131 43.3376C458.984 41.5196 457.166 39.9288 455.298 38.439C457.999 38.9692 459.843 40.5853 461.586 42.2519C461.485 43.2619 461.307 43.3376 461.156 43.3376H461.131ZM361.516 36.1159C361.188 34.9292 363.284 33.1615 367.147 30.7879C364.041 34.1715 361.945 35.9392 361.92 35.9644C361.794 36.0655 361.668 36.1159 361.516 36.1159ZM449.793 34.3231C447.47 32.9343 445.374 31.7223 443.253 30.5607C446.006 30.6112 448.127 31.8484 450.147 33.1615C450.197 34.222 449.995 34.3231 449.793 34.3231ZM373.839 28.4901C375.758 26.2428 378.005 25.2581 380.277 24.4248C378.485 26.4449 376.263 27.4043 374.091 28.4396C374.015 28.4901 373.915 28.4901 373.814 28.4901H373.839ZM437.016 27.5053C434.541 26.4953 432.269 25.6116 430.047 24.8793C432.698 24.45 434.996 25.3338 437.269 26.2933C437.496 27.3539 437.268 27.5053 437.016 27.5053ZM387.424 23.44C389.62 21.5714 392.019 21.0412 394.418 20.6625C392.272 22.3038 389.924 22.8087 387.601 23.4147C387.55 23.4147 387.499 23.4147 387.449 23.4147L387.424 23.44ZM423.305 22.9349C420.856 22.3794 418.457 21.925 416.109 21.5967C418.684 20.6877 421.108 21.1169 423.457 21.6977C423.861 22.7582 423.608 22.9349 423.305 22.9349ZM401.715 21.0917C404.089 19.6776 406.513 19.6524 408.988 19.7282C406.513 20.8897 404.139 20.9402 401.766 21.0917H401.715Z" fill="#000B33"/>
<path d="M563.624 310.062H365.405C365.405 308.8 563.624 308.8 563.624 308.8C564.255 309.785 563.977 310.062 563.624 310.062Z" fill="#000B33"/>
<path d="M334.472 310.062H258.72C258.72 308.8 334.472 308.8 334.472 308.8C335.103 309.785 334.826 310.062 334.472 310.062Z" fill="#000B33"/>
<path d="M237.509 310.062H222.434C222.434 308.8 237.509 308.8 237.509 308.8C238.14 309.785 237.862 310.062 237.509 310.062Z" fill="#000B33"/>
<path d="M88.529 310.062H13.2314C13.2314 308.8 88.529 308.8 88.529 308.8C89.1602 309.785 88.8825 310.062 88.529 310.062Z" fill="#000B33"/>
<path d="M211.703 298.219C211.071 296.805 210.819 295.77 210.516 294.457C209.203 288.674 206.728 277.892 213.874 254.359C217.485 242.491 218.95 231.456 214.506 216.205C219.606 229.158 219.43 240.42 215.086 254.712C208.041 277.918 210.465 288.472 211.753 294.154C212.081 295.543 212.334 296.654 212.334 297.563C212.334 297.916 212.107 298.194 211.703 298.194V298.219Z" fill="#000B33"/>
<path d="M181.957 323.774C177.412 323.774 174.963 312.689 174.963 302.285C174.963 291.882 177.412 280.797 181.957 280.797C184.406 280.797 187.563 287.362 187.563 294.357C186.301 287.514 183.194 282.059 181.957 282.059C179.23 282.059 176.226 290.367 176.226 302.311C176.226 314.254 179.255 322.562 181.957 322.562C183.674 322.562 185.013 320.466 186.073 316.199C186.073 321.501 184.381 323.824 181.957 323.824V323.774Z" fill="#000B33"/>
<path d="M218.243 191.207C215.869 187.091 218.672 183.354 218.798 183.177C219.783 183.985 217.334 187.242 218.798 190.298C218.419 191.181 218.319 191.207 218.243 191.207Z" fill="#000B33"/>
<path d="M238.948 197.014C238.443 196.762 235.388 192.596 235.388 192.596C235.262 192.318 234.1 187.116 233.595 182.394C232.156 168.809 223.975 162.901 223.899 162.85C224.985 162.067 233.343 168.077 234.858 182.268C235.313 186.51 236.297 191.156 236.474 191.964L239.453 196.03C239.201 196.989 239.075 197.04 238.948 197.04V197.014Z" fill="#000B33"/>
<path d="M221.071 207.518C220.49 207.14 217.233 199.867 217.233 199.867C209.632 195.928 210.036 189.515 210.339 184.818C211.299 189.515 210.945 195.297 218.015 198.832C218.318 199.135 221.652 206.609 221.652 206.609C221.248 207.493 221.172 207.493 221.071 207.493V207.518Z" fill="#000B33"/>
<path d="M216.197 171.208C216.122 169.971 218.319 170.122 219.43 168.128C220.01 167.067 219.934 166.991 219.227 166.057C218.697 165.375 217.915 164.365 217.132 162.547C215.238 158.128 216.071 156.108 216.172 155.906C217.309 156.462 216.627 158.179 218.294 162.042C219.001 163.709 219.708 164.618 220.238 165.274C221.096 166.385 221.525 167.042 220.541 168.734C219.278 170.981 217.006 171.183 216.197 171.183V171.208Z" fill="#000B33"/>
<path d="M197.537 161.184C199.911 158.962 202.461 157.245 204.961 154.871C210.945 149.164 214.102 143.735 214.581 138.281C215.314 144.165 212.031 149.846 205.819 155.78C203.219 158.255 200.516 160.073 197.764 161.133C197.688 161.159 197.613 161.184 197.537 161.184Z" fill="#000B33"/>
<path d="M182.715 201.307C174.054 201.307 165.67 196.156 165.544 196.08C166.377 195.121 183.598 205.676 193.396 195.929C203.168 186.207 194.254 173.784 194.153 173.658C195.264 173.052 204.835 186.334 194.28 196.813C190.921 200.171 186.78 201.307 182.689 201.307H182.715Z" fill="#000B33"/>
<path d="M159.333 198.152C158.903 184.819 174.08 182.976 174.231 182.951C182.463 180.804 179.938 167.8 177.918 157.346C176.933 152.271 176.15 148.231 176.756 146.135C178.347 140.479 184.634 138.206 188.018 136.994C188.548 136.792 189.003 136.641 189.356 136.489C189.912 136.262 190.543 135.807 191.326 135.227C194.028 133.257 198.573 129.949 208.926 129.823C217.031 129.697 222.637 131.414 226.071 135.025C230.061 139.191 230.162 145.175 229.909 149.291C229.202 160.503 224.556 161.563 224.354 161.614C224.177 160.351 228.015 159.265 228.647 149.216C229.025 143.029 227.914 138.812 225.136 135.883C222.081 132.676 216.854 131.06 209.582 131.06C198.977 131.186 194.634 134.343 192.033 136.237C191.174 136.868 190.492 137.348 189.785 137.651C189.407 137.802 188.927 137.979 188.371 138.181C184.987 139.393 179.306 141.438 177.892 146.463C177.387 148.281 178.17 152.372 179.079 157.094C181.099 167.472 183.851 181.713 174.382 184.163C173.726 184.238 160.09 185.93 159.888 197.495C159.888 197.849 159.61 198.126 159.257 198.126L159.333 198.152Z" fill="#000B33"/>
<path d="M213.925 185.223C211.324 185.172 208.218 185.021 206.021 184.743C208.319 183.783 211.375 183.935 213.47 183.96C215.491 183.96 217.157 183.758 218.521 183.228C220.717 182.369 222.131 180.576 222.838 177.748C223.495 175.147 223.748 172.345 223.596 168.911C223.394 163.759 222.914 149.669 222.914 149.669C221.475 143.357 214.278 143.256 214.228 143.256C214.303 141.993 222.485 142.094 224.177 149.518C224.177 149.644 224.681 163.709 224.883 168.86C225.035 172.42 224.783 175.349 224.076 178.051C223.242 181.309 221.576 183.379 219 184.415C217.233 185.096 215.364 185.223 213.95 185.223H213.925Z" fill="#000B33"/>
<path d="M345.481 99.6215H193.497C185.82 99.6215 179.583 93.3845 179.583 85.7083V30.7121C179.583 23.0358 185.82 16.7988 193.497 16.7988H345.481C353.158 16.7988 359.395 23.0358 359.395 30.7121V85.7083C359.395 93.3845 353.158 99.6215 345.481 99.6215ZM193.497 18.0614C186.527 18.0614 180.846 23.7428 180.846 30.7121V85.7083C180.846 92.6775 186.527 98.359 193.497 98.359H345.481C352.451 98.359 358.132 92.6775 358.132 85.7083V30.7121C358.132 23.7428 352.451 18.0614 345.481 18.0614H193.497Z" fill="#000B33"/>
<path d="M263.795 296.3C263.416 296.174 253.492 288.902 253.492 288.902C250.412 284.382 249.781 279.357 251.624 274.585L278.238 205.271C281.092 197.848 289.298 192.873 298.667 192.873H399.695C404.619 192.873 412.775 196.03 416.259 198.201C412.244 197.166 404.392 194.136 399.695 194.136H298.667C289.829 194.136 282.076 198.807 279.425 205.726L252.811 275.039C251.144 279.382 251.675 283.978 254.351 287.968L264.199 295.19C264.199 296.25 264.022 296.326 263.82 296.326L263.795 296.3Z" fill="#000B33"/>
<path d="M378.813 300.746H361.415C361.415 299.483 378.813 299.483 378.813 299.483C387.651 299.483 395.403 294.812 398.054 287.893L424.668 218.579C426.36 214.161 425.78 209.489 423.002 205.474C419.366 200.172 412.776 197.015 405.402 197.015H304.374C295.536 197.015 287.784 201.687 285.132 208.605L258.518 277.919C256.826 282.338 257.407 287.009 260.185 291.024C263.821 296.327 270.411 299.483 277.785 299.483H336.871C336.871 300.746 277.785 300.746 277.785 300.746C269.982 300.746 263.038 297.387 259.149 291.756C256.144 287.388 255.513 282.313 257.356 277.49L283.971 208.176C286.824 200.752 295.031 195.778 304.399 195.778H405.427C413.229 195.778 420.174 199.136 424.062 204.767C427.067 209.136 427.724 214.211 425.855 219.034L399.241 288.347C396.387 295.771 388.181 300.746 378.813 300.746Z" fill="#000B33"/>
<path d="M333.563 266.909H323.084C320.736 266.909 318.64 265.899 317.479 264.182C316.569 262.844 316.368 261.228 316.923 259.738L324.397 240.244C325.256 237.972 327.73 236.457 330.558 236.457H358.965C361.289 236.457 363.41 237.467 364.571 239.184C365.48 240.522 365.682 242.138 365.127 243.603L357.652 263.096C356.491 262.642 363.965 243.148 363.965 243.148C364.394 242.037 364.243 240.901 363.536 239.891C362.602 238.552 360.859 237.719 358.965 237.719H330.558C328.26 237.719 326.24 238.906 325.559 240.699L318.085 260.192C317.655 261.303 317.807 262.465 318.514 263.45C319.448 264.788 321.19 265.621 323.084 265.621H333.563C334.194 266.606 333.916 266.884 333.563 266.884V266.909Z" fill="#000B33"/>
<path d="M198.775 216.028C185.619 216.028 183.927 201.181 183.927 201.029C185.24 201.484 186.78 214.766 198.775 214.766C203.421 214.513 205.845 213.427 206.931 211.433C208.951 207.771 205.921 202.216 205.895 202.166C207.133 201.812 210.39 207.771 208.041 212.039C206.728 214.412 203.976 215.751 199.835 216.003C199.481 216.003 199.128 216.028 198.775 216.028Z" fill="#000B33"/>
<path d="M207.966 321.476C207.764 320.239 209.758 319.582 209.758 319.582C210.162 320.769 208.143 321.425 208.143 321.425C208.067 321.425 208.016 321.451 207.94 321.451L207.966 321.476Z" fill="#000B33"/>
<path d="M245.716 353.267C245.539 353.242 178.625 332.284 178.625 332.284C178.574 331.097 199.28 323.017 199.28 323.017C199.734 324.178 180.72 331.602 180.72 331.602L245.64 351.929L283.062 328.648L228.647 314.709L225.995 315.568C225.591 314.381 228.419 313.447 228.419 313.447C228.773 313.447 284.804 327.789 284.804 327.789C284.981 328.925 246.044 353.141 246.044 353.141C245.943 353.191 245.817 353.242 245.716 353.242V353.267Z" fill="#000B33"/>
<path d="M342.906 331.198C342.275 252.895 330.786 248.88 330.685 248.855C331.442 247.719 343.537 250.749 343.537 330.567C343.537 330.92 343.26 331.198 342.906 331.198Z" fill="#000B33"/>
<path d="M338.21 328.445C337.275 278.625 332.25 260.596 330.129 255.142C333.463 260.217 338.538 278.423 338.866 327.813C338.235 328.445 338.235 328.445 338.235 328.445H338.21Z" fill="#000B33"/>
<path d="M362.122 331.198H342.552C342.224 331.097 337.528 328.117 337.528 328.117C338.209 327.057 342.729 329.935 342.729 329.935H361.491C361.44 252.87 350.001 248.88 349.9 248.855C350.658 247.719 362.753 250.749 362.753 330.567C362.753 330.92 362.475 331.198 362.122 331.198Z" fill="#000B33"/>
<path d="M330.811 255.773C330.18 255.141 330.18 248.248 330.18 248.248C330.811 247.617 350.027 247.617 350.027 247.617C350.027 248.879 331.442 248.879 331.442 248.879V255.141C331.442 255.495 331.165 255.773 330.811 255.773Z" fill="#000B33"/>
<path d="M402.751 336.576H311.595C310.686 336.576 309.802 336.323 309.045 335.818L294.677 326.627C292.859 325.465 292.102 323.395 292.708 321.324C293.314 319.254 295.081 317.94 297.228 317.94H337.503C337.503 319.203 297.228 319.203 297.228 319.203C295.309 319.203 294.248 320.542 293.92 321.678C293.591 322.839 293.768 324.531 295.359 325.566L309.727 334.758C310.282 335.111 310.913 335.313 311.595 335.313H402.751C404.67 335.313 405.73 333.975 406.058 332.838C406.387 331.677 406.21 329.985 404.594 328.95L390.227 319.759C389.671 319.405 389.015 319.203 388.358 319.203H362.097C362.097 317.94 388.358 317.94 388.358 317.94C389.267 317.94 390.15 318.193 390.908 318.698L405.276 327.889C407.094 329.051 407.852 331.121 407.271 333.192C406.665 335.263 404.897 336.576 402.751 336.576Z" fill="#000B33"/>
<path d="M402.751 342.687H311.595C310.686 342.687 309.802 342.434 309.045 341.929L294.677 332.738C293.617 332.056 292.91 331.097 292.632 329.935C294.071 330.465 294.576 331.173 295.359 331.678L309.727 340.869C310.282 341.222 310.913 341.424 311.595 341.424H402.751C404.746 341.424 405.806 340.01 406.109 338.798C406.892 340.894 405.301 342.687 402.751 342.687Z" fill="#000B33"/>
<path d="M396.741 171.941H342.603C341.972 171.31 341.972 131.363 341.972 131.363C342.603 130.731 400.933 130.731 400.933 130.731C401.564 131.363 401.564 159.719 401.564 159.719C400.301 159.719 400.301 131.969 400.301 131.969H343.234V170.653H396.741C397.372 171.638 397.094 171.916 396.741 171.916V171.941Z" fill="#000B33"/>
<path d="M371.768 156.916C371.364 156.765 342.199 131.842 342.199 131.842C343.032 130.883 371.768 155.452 371.768 155.452L400.528 130.883C401.336 131.842 372.172 156.765 372.172 156.765C372.045 156.866 371.919 156.916 371.768 156.916Z" fill="#000B33"/>
<path d="M342.603 171.941C342.149 170.88 362.93 148.71 362.93 148.71C363.839 149.568 343.058 171.739 343.058 171.739C342.931 171.865 342.755 171.941 342.603 171.941Z" fill="#000B33"/>
<path d="M386.363 156.411C385.908 156.209 379.671 149.568 379.671 149.568C380.58 148.709 386.817 155.35 386.817 155.35C386.666 156.36 386.514 156.411 386.363 156.411Z" fill="#000B33"/>
<path d="M293.288 330.414C292.657 329.783 292.657 324.102 292.657 324.102C293.92 324.102 293.92 329.808 293.92 329.808C293.92 330.162 293.642 330.44 293.288 330.44V330.414Z" fill="#000B33"/>
<path d="M406.665 339.556C406.033 338.924 406.033 333.419 406.033 333.419C407.296 333.419 407.296 338.95 407.296 338.95C407.296 339.303 407.018 339.581 406.665 339.581V339.556Z" fill="#000B33"/>
<path d="M530.267 282.185C510.243 282.185 483.023 262.742 462.999 241.026C462.898 240.319 465.398 232.845 470.827 225.548C478.023 215.851 482.493 212.165 482.669 212.013C483.679 212.14 509.94 228.856 524.181 242.769C510.117 230.775 486.457 215.422 483.124 213.276C481.962 214.336 477.821 218.25 471.837 226.305C467.19 232.542 464.741 238.905 464.186 240.446C488.401 266.606 522.995 289.432 541.958 277.893C549.483 273.322 554.382 266.404 556.553 257.288C562.714 231.28 545.443 194.161 534.282 176.309C531.1 171.233 527.616 165.88 523.5 161.082C521.985 159.315 520.066 157.85 517.919 156.285C515.217 154.315 512.364 152.522 509.41 150.906C507.112 149.644 505.042 148.659 503.123 147.901C501.532 147.27 499.941 146.992 498.274 146.715C497.794 146.639 497.34 146.563 496.861 146.462C495.75 146.26 494.588 145.604 493.376 144.543C491.734 143.079 490.472 140.957 489.639 138.281C488.477 134.443 488.174 130.024 488.73 124.368C488.856 123.156 488.982 122.07 489.159 121.11C490.245 122.272 490.093 123.307 489.992 124.494C489.462 129.973 489.739 134.216 490.851 137.902C491.608 140.377 492.745 142.296 494.209 143.609C495.219 144.518 496.204 145.073 497.087 145.225C497.567 145.326 498.022 145.402 498.502 145.477C500.244 145.78 501.885 146.083 503.602 146.74C505.597 147.523 507.693 148.533 510.041 149.821C513.021 151.462 515.925 153.305 518.677 155.3C520.899 156.916 522.894 158.431 524.485 160.3C528.626 165.173 532.161 170.577 535.368 175.677C546.655 193.681 564.053 231.229 557.79 257.616C555.543 267.06 550.442 274.282 542.64 279.029C539.004 281.226 534.812 282.236 530.267 282.236V282.185Z" fill="#000B33"/>
<path d="M527.388 165.526C525.065 144.997 506.582 134.922 506.405 134.821C507.188 133.811 526.277 144.189 528.02 164.844C527.439 165.526 527.413 165.526 527.388 165.526Z" fill="#000B33"/>
<path d="M493.704 137.322C491.432 137.322 489.664 136.817 489.613 136.817C490.043 135.63 497.946 137.852 501.027 132.449C500.118 136.539 496.507 137.322 493.679 137.322H493.704Z" fill="#000B33"/>
<path d="M496.456 145.452C495.876 145.452 495.27 145.427 494.613 145.351C498.704 144.543 501.86 143.508 503.93 141.134C505.976 138.811 506.431 135.806 506.102 134.418C505.597 132.296 502.416 130.933 501.229 130.579C501.785 129.418 506.532 130.857 507.314 134.115C507.794 136.034 507.087 139.442 504.865 141.942C503.426 143.584 500.825 145.427 496.456 145.427V145.452Z" fill="#000B33"/>
<path d="M213.748 329.127C213.496 327.915 231.424 319.607 231.424 319.607C231.954 320.743 214.001 329.076 214.001 329.076C213.925 329.126 213.824 329.127 213.723 329.127H213.748Z" fill="#000B33"/>
<path d="M228.444 335.516C228.166 334.329 246.928 324.456 246.928 324.456C247.509 325.567 228.722 335.44 228.722 335.44C228.646 335.491 228.52 335.516 228.419 335.516H228.444Z" fill="#000B33"/>
<path d="M242.509 340.742C242.181 339.555 262.356 327.94 262.356 327.94C262.987 329.026 242.837 340.641 242.837 340.641C242.736 340.692 242.636 340.717 242.535 340.717L242.509 340.742Z" fill="#000B33"/>
<path d="M524.586 281.73C520.116 273.524 522.944 263.474 531.075 256.353C539.887 248.652 551.301 247.541 558.27 253.677C550.947 248.879 540.216 250.015 531.908 257.288C524.232 264.03 521.505 273.473 525.166 280.796C524.788 281.68 524.687 281.705 524.611 281.705L524.586 281.73Z" fill="#000B33"/>
</svg>
