<svg width="541" height="418" viewBox="0 0 541 418" fill="none" xmlns="http://www.w3.org/2000/svg">
<path d="M540.527 222.072V203.449L524.192 196.412L517.154 179.899L524.725 163.156L511.921 149.869L495.331 157.034L478.766 150.809L471.78 133.762H453.031L446.121 150.835L429.582 157.364L412.535 149.971L399.552 162.902L406.742 179.543L399.552 195.904L381.235 203.322V221.741L398.536 228.423L406.767 245.089L399.501 262.39L407.504 270.266L414.973 267.471L417.869 273.467L429.302 268.208L446.197 275.779L453.133 293.131H471.475L477.928 275.855L494.696 268.233L512.099 276.084L524.928 262.161L517.916 244.886L524.572 228.652L540.553 222.021L540.527 222.072ZM462.304 242.498C445.892 242.498 432.554 229.185 432.554 212.748C432.554 196.311 445.866 182.998 462.304 182.998C478.741 182.998 492.053 196.311 492.053 212.748C492.053 229.185 478.741 242.498 462.304 242.498Z" fill="#7DE7B4"/>
<path d="M478.766 229.109H288.15L285.634 257.385V358.245C285.634 358.245 284.287 370.617 271.127 371.151H226.973C227.227 378.976 233.68 385.277 241.556 385.277H478.792C486.82 385.277 493.4 378.696 493.4 370.668V243.692C493.4 235.664 486.82 229.083 478.792 229.083L478.766 229.109Z" fill="#000B33"/>
<path d="M349.782 220.116C349.782 220.116 332.278 223.063 317.619 220.293C302.96 217.499 296.711 210.665 294.094 202.001C291.477 193.338 288.937 184.954 289.699 174.843C290.486 164.732 290.944 161.657 290.944 161.657C290.944 161.657 285.1 164.782 272.067 162.166C259.034 159.523 254.385 156.145 254.385 156.145C254.385 156.145 252.581 169.203 253.343 183.354C254.08 197.505 258.323 226.873 269.019 240.465C279.689 254.057 288.073 265.363 320.312 264.321C320.312 264.321 316.705 308.019 316.07 333.831C315.435 359.643 316.07 385.302 316.07 385.302H447.289C447.289 385.302 448.153 363.072 447.289 341.3C446.247 315.361 445.104 288.609 442.437 271.435C440.074 256.115 437.94 244.327 421.325 232.92C404.684 221.513 385.477 220.878 385.477 220.878L349.782 220.09V220.116Z" fill="#7DE7B4"/>
<path d="M129.517 234.089C129.517 234.089 124.207 238.052 124.588 244.886C124.97 251.72 135.361 255.328 141.941 254.49L142.449 245.877C142.449 245.877 136.58 241.253 136.072 233.708C136.072 233.708 131.27 235.893 129.492 234.089H129.517Z" fill="#7DE7B4"/>
<path d="M167.854 234.419C167.854 234.419 165.618 244.428 161.884 245.648L162.265 254.489C162.265 254.489 174.968 254.667 179.389 246.69C183.809 238.712 174.231 234.063 174.231 234.063C174.231 234.063 171.284 235.562 167.829 234.393L167.854 234.419Z" fill="#7DE7B4"/>
<path d="M170.725 221.488C170.725 221.488 173.545 209.801 170.344 202.789C167.143 195.778 159.902 193.618 152.001 193.542C152.001 193.542 138.816 193.542 134.878 200.198C130.94 206.854 130.203 213.104 132.083 221.208C132.363 222.098 134.649 222.377 134.649 222.377C134.649 222.377 135.665 216.254 142.423 216L151.976 204.06L161.503 215.416C161.503 215.416 167.753 216.559 168.591 222.072L170.699 221.488H170.725Z" fill="#7DE7B4"/>
<path d="M141.865 256.75C141.865 256.75 122.226 256.115 111.098 266.074C99.9707 276.033 99.8438 283.883 99.8438 283.883L93.9496 265.566C93.9496 265.566 90.5705 260.815 71.6435 263.94C52.7164 267.065 56.0702 272.679 56.0702 272.679L65.6735 330.451C65.6735 330.451 69.5861 361.446 93.7213 360.354C117.831 359.286 114.097 329.206 114.097 329.206C114.097 329.206 115.874 339.445 114.782 350.649C113.689 361.853 110.362 388.096 107.389 400.951C104.417 413.807 103.349 417.058 103.349 417.058H202.253C202.253 417.058 195.038 388.63 192.98 370.541C190.922 352.452 189.652 339.724 190.719 333.678C190.719 333.678 191.685 358.169 211.653 360.328C231.622 362.488 238.406 337.641 239.854 330.655C241.302 323.668 249.355 273.162 249.355 273.162C249.355 273.162 250.803 266.938 229.996 263.609C212.924 260.866 211.501 265.947 211.501 265.947L205.734 283.451C205.734 283.451 200.729 268.792 189.754 262.644C177.051 255.53 163.358 256.369 163.358 256.369L141.865 256.801V256.75Z" fill="#000B33"/>
<path d="M264.903 52.3634V0.00275621C264.903 0.00275621 241.53 -0.607019 226.948 16.313C212.365 33.2331 212.568 52.3634 212.568 52.3634H264.929H264.903Z" fill="#7DE7B4"/>
<path d="M354.305 210.665L354.61 213.866L349.935 220.903L350.062 247.655C350.799 246.893 346.125 307.714 345.82 316.301L369.066 248.671L370.997 251.822L385.478 220.903L378.466 213.51L377.17 196.311C377.17 196.311 383.852 198.597 386.214 193.821C388.552 189.07 386.57 183.481 382.556 182.643C378.542 181.804 374.503 184.98 374.503 184.98C374.503 184.98 366.119 174.919 365.56 168.517C365.56 168.517 357.582 178.273 345.972 174.335C345.972 174.335 345.464 193.643 345.744 197.606C346.048 201.57 345.464 209.649 354.33 210.665H354.305Z" fill="white"/>
<path d="M285.862 162.953C285.862 162.953 285.507 150.53 285.634 147.989C285.735 145.449 287.285 143.035 290.08 142.171C292.874 141.307 300.039 137.624 299.759 134.854C299.48 132.085 297.523 129.875 294.576 130.307C291.604 130.739 287.082 132.111 283.144 134.169C279.206 136.226 276.157 137.192 276.157 137.192C276.157 137.192 267.291 126.623 262.184 122.05C257.078 117.477 252.912 117.375 251.641 119.306C251.641 119.306 247.195 117.858 245.671 120.627C245.671 120.627 242.191 119.306 239.828 120.881C237.465 122.457 238.354 126.852 243.079 133.559C247.83 140.291 255.732 144.407 256.748 145.88C257.739 147.354 260.482 154.569 259.009 158.024C259.009 158.024 259.898 160.184 269.349 161.606C278.8 163.055 285.862 162.902 285.862 162.902V162.953Z" fill="white"/>
<path d="M258.653 153.35C258.653 153.35 255.122 154.086 254.614 155.484C254.105 156.855 258.653 158.431 258.653 158.431V153.35Z" fill="#000B33"/>
<path d="M285.558 157.999L285.939 163.233C285.939 163.233 291.604 163.207 290.944 161.2C290.283 159.193 285.558 157.999 285.558 157.999Z" fill="#000B33"/>
<path d="M141.179 264.855L142.424 246.182C142.424 246.182 136.301 240.694 136.098 234.063C136.098 234.063 126.926 237.138 126.418 228.779C125.91 220.421 134.649 222.351 134.649 222.351C134.649 222.351 136.885 215.492 142.424 215.975L151.976 204.034L161.503 215.39C161.503 215.39 167.931 216.051 169.125 222.402C169.125 222.402 177.204 220.649 177.56 227.992C177.915 235.308 170.751 235.639 168.312 234.444C167.829 234.394 165.263 244.276 161.351 245.979L163.688 264.55C163.688 264.55 161.325 268.234 152.052 267.726C142.754 267.217 141.179 264.829 141.179 264.829V264.855Z" fill="white"/>
<path d="M87.6233 271.486L84.3459 259.876C84.3459 259.876 87.0644 255.125 86.3276 249.662C85.5909 244.2 85.7438 236.655 77.2838 237.646C77.2838 237.646 74.0063 231.091 72.1009 224.536C70.1955 217.982 69.1789 215.721 69.1789 215.721C69.1789 215.721 66.5877 218.49 64.8347 218.261C63.0817 218.033 59.8808 216.585 59.9316 215.467C59.9316 215.467 58.7629 219.887 59.8553 226.289C60.9478 232.692 63.717 238.586 63.717 238.586C63.717 238.586 58.2799 234.673 56.3999 234.47C54.4945 234.267 48.3463 238.586 49.388 243.032C49.388 243.032 45.5522 246.08 45.3743 249.205C45.1711 252.33 50.0231 256.878 57.0605 262.06C57.0605 262.06 60.668 267.472 64.047 267.7L65.775 275.805C65.775 275.805 70.6524 275.779 77.4103 274.509C84.1427 273.239 87.6233 271.511 87.6233 271.511V271.486Z" fill="white"/>
<path d="M216.658 270.85C216.658 270.85 218.767 264.88 218.03 258.808C217.293 252.736 215.439 244.378 214.448 241.939C213.457 239.5 212.491 231.878 217.725 231.675C222.958 231.472 223.771 234.47 224.28 237.213C224.788 239.983 226.236 245.165 226.236 245.165L239.472 225.882C239.472 225.882 246.459 222.453 247.297 228.855C247.297 229.896 249.66 228.296 252.404 229.693C255.147 231.065 254.36 234.266 254.36 234.266C254.69 234.851 255.528 234.596 258.12 235.689C260.711 236.781 260.813 239.271 259.39 241.964C257.993 244.683 253.572 252.685 250.168 256.623C246.763 260.561 244.934 263.178 243.079 268.462C241.225 273.772 241.352 275.499 241.352 275.499C241.352 275.499 228.268 276.084 216.632 270.825L216.658 270.85Z" fill="white"/>
<path d="M69.2046 213.637C69.2046 216.203 67.1472 218.261 64.5812 218.261C62.0153 218.261 59.9573 216.203 59.9573 213.637C59.9573 211.072 62.0153 209.014 64.5812 209.014C67.1472 209.014 69.2046 211.072 69.2046 213.637Z" fill="#7DE7B4"/>
<path d="M167.244 262.492C166.889 261.374 166.508 258.884 165.543 256.598C164.958 255.226 162.646 252.583 162.646 252.583H141.941L138.485 256.852C138.485 256.852 131.677 276.922 139.908 279.64C148.14 282.359 151.493 271.434 151.696 270.596C151.899 269.732 152.611 267.801 152.611 267.801C152.611 267.801 154.745 282.003 163.586 280.301C172.427 278.599 167.854 264.321 167.27 262.492H167.244Z" fill="white"/>
<path d="M99.7673 182.719C99.7673 185.285 97.7093 187.343 95.1434 187.343C92.5774 187.343 90.52 185.285 90.52 182.719C90.52 180.153 92.5774 178.095 95.1434 178.095C97.7093 178.095 99.7673 180.153 99.7673 182.719Z" fill="white"/>
<path d="M115.087 198.166C115.087 200.706 113.029 202.789 110.463 202.789C107.897 202.789 105.84 200.732 105.84 198.166C105.84 195.6 107.897 193.542 110.463 193.542C113.029 193.542 115.087 195.6 115.087 198.166Z" fill="#000B33"/>
<path d="M147.073 165.493C147.073 168.059 145.015 170.117 142.449 170.117C139.883 170.117 137.825 168.059 137.825 165.493C137.825 162.927 139.883 160.87 142.449 160.87C145.015 160.87 147.073 162.927 147.073 165.493Z" fill="white"/>
<path d="M44.0026 188.232C44.0026 190.772 41.9446 192.856 39.3786 192.856C36.8127 192.856 34.7546 190.798 34.7546 188.232C34.7546 185.666 36.8127 183.608 39.3786 183.608C41.9446 183.608 44.0026 185.666 44.0026 188.232Z" fill="#000B33"/>
<path d="M360.072 233.861L353.06 243.337L353.975 251.492L349.376 261.4L345.82 316.302L362.435 267.32L361.241 252.356L366.678 244.709L360.072 233.861Z" fill="#000B33"/>
<path d="M385.376 183.989C385.376 183.989 390.94 176.749 388.501 169.712C386.062 162.674 381.743 158.762 370.793 161.023C370.793 161.023 365.153 154.595 358.039 155.383C350.951 156.17 342.847 159.117 341.221 167.019C339.595 174.92 345.515 181.296 345.515 181.296L345.921 174.386C345.921 174.386 360.021 177.333 365.026 168.238C365.508 168.568 370.717 183.43 374.477 185.031C374.477 185.031 378.643 179.518 385.376 184.015V183.989Z" fill="#000B33"/>
<path d="M217.928 162.318H193.895V186.352H217.928V162.318Z" fill="#000B33"/>
<path d="M249.66 204.948H232.536V222.072H249.66V204.948Z" fill="#7DE7B4"/>
<path d="M278.927 14.0771V66.4378H226.566C226.566 95.3493 250.015 118.798 278.927 118.798C307.838 118.798 331.288 95.3493 331.288 66.4378C331.288 37.5264 307.838 14.0771 278.927 14.0771Z" fill="#000B33"/>
<path d="M361.8 236.732L356.236 243.896L357.455 252.102L348.03 281.242L349.376 261.4L353.975 251.492L353.467 242.854L360.072 233.861L361.8 236.732Z" fill="white"/>
<path d="M361.038 156.12C361.673 156.018 362.231 155.942 362.79 155.84C361.317 155.383 359.716 155.18 358.039 155.357C350.951 156.145 342.847 159.092 341.221 166.993C339.595 174.894 345.515 181.271 345.515 181.271L345.921 174.361C345.921 174.361 346.708 174.513 347.953 174.666C348.004 174.361 342.11 158.863 361.038 156.145V156.12Z" fill="white"/>
<path d="M152.001 193.542C152.001 193.542 138.816 193.542 134.878 200.198C130.94 206.854 130.203 213.104 132.083 221.208C133.252 222.021 134.319 222.072 134.725 222.098C134.852 221.539 135.259 220.294 136.199 219.074C135.894 215.746 132.871 196.133 151.391 194.584C152.763 194.482 155.913 194.075 156.879 193.923C155.304 193.694 153.678 193.567 152.001 193.567V193.542Z" fill="white"/>
<path d="M124.588 244.886C124.944 251.212 133.861 254.769 140.391 254.591C140.721 253.6 128.298 252.685 128.399 244.149C128.475 236.146 133.506 235.079 133.506 235.079L132.235 234.749C131.168 234.851 130.152 234.724 129.517 234.063C129.517 234.063 124.207 238.026 124.588 244.86V244.886Z" fill="white"/>
<path d="M365.509 167.882C365.509 167.882 372.623 181.627 378.186 182.262L374.248 185.285C374.248 185.285 368.126 175.174 365.509 167.882Z" fill="white"/>
<path d="M77.9692 355.197C77.9692 355.197 82.1869 345.594 92.3237 345.391C102.46 345.188 108.1 352.682 108.1 352.682C108.1 352.682 104.645 359.948 93.7211 360.355C82.7968 360.787 77.9692 355.197 77.9692 355.197Z" fill="#7DE7B4"/>
<path d="M197.096 352.581C197.096 352.581 202.507 344.095 212.949 345.493C223.391 346.865 226.973 355.426 226.973 355.426C226.973 355.426 222.196 361.524 211.628 360.355C201.059 359.186 197.096 352.606 197.096 352.606V352.581Z" fill="#7DE7B4"/>
<path d="M506.916 273.036C506.662 272.985 502.622 271.079 502.622 271.079C499.497 269.606 496.448 268.132 493.374 266.735C496.957 267.04 500.031 268.488 503.156 269.961L506.789 271.689L509.558 268.894C512.759 265.668 516.087 262.314 519.238 258.961C519.517 258.656 519.644 257.462 519.364 256.852C518.246 254.363 517.053 251.847 515.884 249.408C514.817 247.173 513.75 244.912 512.734 242.651C512.251 241.584 512.149 240.186 512.505 239.195C514.283 234.089 515.986 229.541 517.713 225.299C518.196 224.105 519.365 222.936 520.482 222.479C525.538 220.446 530.594 218.642 534.43 217.321C535.624 216.915 535.954 216.407 535.954 215.137C535.852 209.496 535.852 204.339 535.954 199.411C535.979 198.064 535.599 197.53 534.227 197.073C530.136 195.676 525.335 193.974 520.533 191.992C519.39 191.509 518.196 190.29 517.637 188.994C515.985 185.158 514.359 181.068 512.378 175.707C511.971 174.615 511.971 173.217 512.378 172.277C513.445 169.889 514.588 167.501 515.706 165.139C516.9 162.623 518.094 160.134 519.212 157.593C519.441 157.06 519.288 155.891 518.958 155.51C516.849 153.274 514.639 151.038 512.53 148.879C510.879 147.228 509.253 145.576 507.627 143.874C506.84 143.036 506.332 142.96 505.265 143.493C499.904 146.161 495.407 148.295 491.088 150.225C489.996 150.708 488.497 150.784 487.405 150.378C482.832 148.726 478.258 146.948 473.838 145.068C472.796 144.611 471.45 143.595 470.967 142.375C469.341 138.361 467.766 134.042 465.835 128.428C465.403 127.132 464.997 126.649 463.701 126.649C458.544 126.776 453.386 126.776 447.823 126.649C446.527 126.573 445.968 127.005 445.485 128.402C444.723 130.638 443.91 132.823 443.097 135.033C442.234 137.37 441.37 139.733 440.582 142.096C440.023 143.747 439.083 144.636 437.28 145.271C432.859 146.796 428.591 148.523 424.602 150.353C422.925 151.14 421.63 151.115 420.029 150.302C417.666 149.108 415.278 147.964 412.865 146.821C410.629 145.754 408.394 144.687 406.183 143.569C405.015 142.985 404.456 143.086 403.566 144.026C399.552 148.218 395.919 151.851 392.438 155.154C391.422 156.119 391.448 156.729 392.083 157.999C394.116 162.09 396.478 166.968 398.663 171.947C399.121 173.014 399.095 174.64 398.587 175.834C396.682 180.28 394.598 184.752 392.438 189.045C391.88 190.137 390.762 191.459 389.466 191.967C388.882 192.195 388.272 192.424 387.688 192.627C387.866 191.281 388.45 191.052 389.035 190.823C389.873 190.493 390.813 189.553 391.346 188.511C393.506 184.218 395.563 179.797 397.443 175.351C397.824 174.462 397.875 173.192 397.545 172.43C395.36 167.45 393.023 162.623 390.991 158.533C390.229 156.983 390.051 155.738 391.601 154.265C395.056 150.988 398.688 147.38 402.677 143.188C403.947 141.867 405.065 141.664 406.691 142.502C408.902 143.595 411.137 144.662 413.373 145.729C415.761 146.872 418.174 148.015 420.537 149.235C421.807 149.87 422.697 149.87 424.069 149.26C428.108 147.406 432.401 145.678 436.873 144.154C438.346 143.645 438.981 143.036 439.413 141.74C440.226 139.352 441.09 136.989 441.954 134.652C442.767 132.442 443.58 130.257 444.317 128.046C444.952 126.192 445.993 125.48 447.823 125.48C453.361 125.607 458.493 125.607 463.498 125.48C465.657 125.48 466.419 126.471 466.953 128.072C468.858 133.686 470.434 137.98 472.06 141.969C472.364 142.705 473.304 143.569 474.295 144.001C478.69 145.856 483.238 147.634 487.811 149.285C488.598 149.565 489.793 149.514 490.58 149.158C494.874 147.228 499.371 145.119 504.706 142.451C506.256 141.689 507.323 141.867 508.491 143.086C510.092 144.763 511.743 146.415 513.369 148.066C515.503 150.225 517.713 152.461 519.822 154.722C520.508 155.459 520.736 157.136 520.304 158.127C519.161 160.667 517.967 163.182 516.773 165.697C515.656 168.06 514.538 170.423 513.445 172.811C513.166 173.446 513.166 174.513 513.445 175.301C515.401 180.636 517.027 184.726 518.653 188.537C519.085 189.528 520.05 190.544 520.889 190.9C525.665 192.856 530.441 194.558 534.506 195.955C536.386 196.59 537.098 197.581 537.047 199.487C536.945 204.415 536.945 209.522 537.047 215.162C537.072 216.966 536.411 217.956 534.709 218.541C530.873 219.862 525.843 221.666 520.812 223.673C519.974 224.003 519.06 224.943 518.704 225.832C516.977 230.049 515.274 234.572 513.496 239.653C513.242 240.364 513.343 241.431 513.699 242.219C514.715 244.48 515.782 246.716 516.849 248.951C518.018 251.39 519.212 253.905 520.33 256.42C520.736 257.36 520.686 259.113 519.975 259.876C516.799 263.229 513.496 266.583 510.269 269.809L507.221 272.909C507.221 272.909 506.941 273.086 506.789 273.086L506.916 273.036ZM434.053 229.491C427.676 223.495 424.526 215.848 424.526 207.21C424.526 198.826 427.753 191.001 433.596 185.158C439.49 179.289 447.416 176.037 455.927 176.037C473.05 176.063 486.922 190.087 486.922 207.261C486.922 215.899 483.771 223.546 477.801 229.313C482.679 222.91 485.702 215.594 485.702 207.261C485.702 190.747 472.39 177.282 456.003 177.257C447.746 177.257 440.125 180.356 434.459 186.022C428.845 191.636 425.745 199.156 425.745 207.21C425.745 215.518 428.768 222.86 434.459 228.449C434.358 229.44 434.205 229.491 434.028 229.491H434.053Z" fill="#000B33"/>
<path d="M285.888 163.843C285.1 161.608 283.601 146.618 286.421 144.052C288.886 141.842 291.274 140.75 293.357 139.81C294.119 139.454 294.882 139.124 295.619 138.743C298.21 137.371 299.48 135.567 299.124 133.839C298.794 132.29 297.193 131.096 295.237 130.943C291.045 130.588 284.236 134.246 279.282 136.888C274.557 139.403 263.379 135.415 262.921 135.237C266.427 135.211 275.116 137.726 278.241 136.05C284.11 132.925 290.791 129.343 295.339 129.698C297.854 129.902 299.886 131.502 300.318 133.585C300.547 134.678 300.598 137.472 296.203 139.81C295.466 140.216 294.678 140.546 293.891 140.928C291.782 141.893 289.597 142.884 287.26 144.967C285.482 146.568 285.837 156.984 286.498 163.157C285.939 163.818 285.913 163.843 285.888 163.843Z" fill="#000B33"/>
<path d="M258.983 159.042C258.399 158.254 259.644 147.94 255.274 145.45C250.93 142.986 237.541 131.629 238.151 123.144C238.252 121.696 239.015 120.502 240.26 119.892C241.835 119.13 243.943 119.358 245.747 120.552C248.618 122.432 257.357 131.528 258.628 132.849C260.355 133.154 271.686 135.44 275.37 142.833C270.645 136.075 258.374 134.017 258.247 134.017C257.815 133.738 248.008 123.474 245.112 121.569C243.664 120.629 242.013 120.4 240.818 120.984C239.98 121.416 239.472 122.204 239.396 123.22C238.862 130.588 250.879 141.537 255.909 144.383C260.99 147.254 259.695 158.025 259.618 158.483C259.567 158.788 259.313 159.016 259.009 159.016L258.983 159.042Z" fill="#000B33"/>
<path d="M268.739 136.913C262.235 130.003 252.353 119.866 250.041 119.46C247.145 118.926 246.027 121.213 245.976 121.315C245.417 119.689 247.195 117.707 250.269 118.266C253.75 118.876 267.647 134.144 269.222 135.897C269.069 136.863 268.917 136.913 268.765 136.913H268.739Z" fill="#000B33"/>
<path d="M276.158 137.803C275.624 137.523 269.807 130.689 268.435 129.343C267.749 128.682 266.961 127.818 266.072 126.878C263.226 123.83 259.67 120.044 256.774 119.028C253.318 117.834 252.175 119.612 252.15 119.612C251.184 118.85 252.81 116.335 257.18 117.859C260.356 118.952 264.014 122.89 266.961 126.015C267.825 126.929 268.612 127.768 269.273 128.428C270.696 129.8 276.361 136.456 276.615 136.761C276.438 137.726 276.285 137.777 276.158 137.777V137.803Z" fill="#000B33"/>
<path d="M273.744 62.5754H221.384C221.384 61.3559 273.134 61.3559 273.134 61.3559V9.60498C274.354 9.60498 274.354 61.9656 274.354 61.9656C274.354 62.2959 274.074 62.5754 273.744 62.5754Z" fill="#000B33"/>
<path d="M273.744 114.937C244.553 114.937 220.774 91.1828 220.774 61.9665C220.774 32.7502 244.528 8.99609 273.744 8.99609C302.96 8.99609 326.715 32.7502 326.715 61.9665C326.715 76.8033 320.439 91.0558 309.464 101.066C319.347 90.3698 325.495 76.4476 325.495 61.9665C325.495 33.4361 302.274 10.2155 273.744 10.2155C245.214 10.2155 221.993 33.4361 221.993 61.9665C221.993 90.4968 245.214 113.717 273.744 113.717C276.742 113.717 279.74 113.463 282.661 112.955C279.867 114.683 276.793 114.937 273.744 114.937Z" fill="#000B33"/>
<path d="M216.938 271.079C217.522 267.497 218.767 257.538 214.956 245.877C212.847 239.398 212.567 235.333 214.117 233.072C215.006 231.777 216.48 231.091 218.639 230.989C223.822 230.735 224.609 235.359 225.346 239.424C225.88 242.396 226.414 245.495 228.446 246.918C233.934 250.754 232.536 257.538 232.485 257.817C231.342 257.309 232.562 251.288 227.76 247.909C225.321 246.207 224.737 242.853 224.152 239.627C223.416 235.537 222.781 232.005 218.716 232.183C216.937 232.285 215.794 232.767 215.133 233.733C213.838 235.613 214.168 239.449 216.124 245.47C219.681 256.395 219.046 266.963 217.496 270.672C217.395 270.901 217.166 271.053 216.938 271.053V271.079Z" fill="#000B33"/>
<path d="M234.671 250.272C238.964 243.133 243.69 234.978 246.078 230.659C246.306 230.227 246.586 229.745 246.688 229.262C246.865 228.322 246.383 227.204 245.443 226.467C244.172 225.451 242.445 225.197 240.895 225.807C239.828 226.238 238.71 227.356 237.49 229.236C235.966 231.624 234.569 233.606 233.35 235.384C230.962 238.84 229.082 241.583 227.151 245.394C228.015 240.948 230.021 238.052 232.333 234.698C233.553 232.945 234.925 230.939 236.449 228.601C237.313 227.255 238.659 225.4 240.412 224.689C242.369 223.901 244.579 224.231 246.18 225.527C247.45 226.569 248.11 228.118 247.856 229.516C247.729 230.202 247.399 230.812 247.119 231.294C244.172 236.604 239.701 244.175 235.128 250.069C235.001 250.221 234.823 250.297 234.645 250.297L234.671 250.272Z" fill="#000B33"/>
<path d="M242.038 254.514C245.874 247.96 249.888 241.634 253.521 234.673C253.852 234.012 254.157 233.428 254.131 232.843C254.08 231.903 253.268 230.938 252.531 230.455C251.769 229.947 249.711 228.956 247.399 230.608C248.72 228.194 251.134 228.118 253.191 229.439C254.233 230.1 255.3 231.421 255.351 232.793C255.401 233.733 254.944 234.596 254.614 235.232C250.955 242.243 246.89 248.646 242.546 254.26C242.419 254.413 242.241 254.489 242.064 254.489L242.038 254.514Z" fill="#000B33"/>
<path d="M241.098 276.364C240.819 270.876 243.232 264.093 245.747 260.917C249.456 256.243 256.189 247.732 259.11 241.228C259.542 240.237 260 239.094 259.771 238.052C259.568 237.163 258.856 236.325 257.891 235.893C256.722 235.359 255.706 235.105 254.563 235.563C255.757 233.759 257.205 234.242 258.399 234.775C259.745 235.385 260.711 236.503 260.965 237.773C261.27 239.17 260.736 240.542 260.228 241.711C257.256 248.367 250.447 256.954 246.789 261.552C244.35 264.626 242.013 271.207 241.708 275.78C241.708 276.11 241.429 276.338 241.098 276.338V276.364Z" fill="#000B33"/>
<path d="M113.791 195.32C113.359 194.278 138.511 169.126 138.511 169.126C139.374 169.99 114.223 195.142 114.223 195.142C114.096 195.269 113.944 195.32 113.791 195.32Z" fill="#000B33"/>
<path d="M106.678 195.321C106.246 195.143 97.7349 186.632 97.7349 186.632C98.5986 185.768 107.11 194.279 107.11 194.279C106.983 195.27 106.83 195.321 106.678 195.321Z" fill="#000B33"/>
<path d="M68.1887 210.513C67.7568 209.471 91.5616 185.666 91.5616 185.666C92.4254 186.53 68.6204 210.335 68.6204 210.335C68.4933 210.462 68.3411 210.513 68.1887 210.513Z" fill="#000B33"/>
<path d="M61.1259 210.945C60.694 210.767 42.2498 192.322 42.2498 192.322C43.1135 191.459 61.5576 209.903 61.5576 209.903C61.4305 210.894 61.2783 210.945 61.1259 210.945Z" fill="#000B33"/>
<path d="M95.1435 187.952C92.2726 187.952 89.9104 185.615 89.9104 182.718C89.9104 179.822 92.2472 177.485 95.1435 177.485C98.0397 177.485 100.377 179.822 100.377 182.718C100.377 185.615 98.0397 187.952 95.1435 187.952ZM95.1435 178.704C92.9332 178.704 91.1298 180.508 91.1298 182.718C91.1298 184.929 92.9332 186.732 95.1435 186.732C97.3537 186.732 99.1577 184.929 99.1577 182.718C99.1577 180.508 97.3537 178.704 95.1435 178.704Z" fill="#000B33"/>
<path d="M110.463 203.399C107.567 203.399 105.23 201.062 105.23 198.165C105.23 195.269 107.567 192.932 110.463 192.932C113.359 192.932 115.697 195.269 115.697 198.165C115.697 201.062 113.359 203.399 110.463 203.399ZM110.463 194.151C108.253 194.151 106.449 195.955 106.449 198.165C106.449 200.376 108.253 202.179 110.463 202.179C112.673 202.179 114.477 200.376 114.477 198.165C114.477 195.955 112.673 194.151 110.463 194.151Z" fill="#000B33"/>
<path d="M142.296 170.727C139.425 170.727 137.062 168.39 137.062 165.494C137.062 162.598 139.4 160.26 142.296 160.26C145.192 160.26 147.53 162.598 147.53 165.494C147.53 168.39 145.192 170.727 142.296 170.727ZM142.296 161.48C140.086 161.48 138.282 163.284 138.282 165.494C138.282 167.704 140.086 169.508 142.296 169.508C144.506 169.508 146.31 167.704 146.31 165.494C146.31 163.284 144.506 161.48 142.296 161.48Z" fill="#000B33"/>
<path d="M64.5813 218.871C62.0154 218.871 59.7796 216.966 59.3985 214.4C59.3477 210.742 61.6851 208.404 64.5813 208.404C67.4776 208.404 69.8144 210.742 69.8144 213.638C69.8144 216.534 67.4776 218.871 64.5813 218.871ZM64.5813 209.624C62.3711 209.624 60.5671 211.428 60.5671 213.638C60.8973 216.178 62.5997 217.652 64.5813 217.652C66.7916 217.652 68.595 215.848 68.595 213.638C68.595 211.428 66.7916 209.624 64.5813 209.624Z" fill="#000B33"/>
<path d="M39.3785 193.466C36.4822 193.466 34.1448 191.129 34.1448 188.233C34.1448 185.336 36.4822 182.999 39.3785 182.999C42.2747 182.999 44.6121 185.336 44.6121 188.233C44.6121 191.129 42.2747 193.466 39.3785 193.466ZM39.3785 184.218C37.1682 184.218 35.3648 186.022 35.3648 188.233C35.3648 190.443 37.1682 192.247 39.3785 192.247C41.5887 192.247 43.3927 190.443 43.3927 188.233C43.3927 186.022 41.5887 184.218 39.3785 184.218Z" fill="#000B33"/>
<path d="M162.24 234.317C158.099 234.317 154.72 230.075 154.72 224.841C154.72 219.608 158.099 215.365 162.24 215.365C166.381 215.365 169.785 219.608 169.785 224.841C169.785 230.075 166.406 234.317 162.24 234.317ZM162.24 216.584C158.759 216.584 155.914 220.294 155.914 224.841C155.914 229.389 158.734 233.098 162.24 233.098C165.746 233.098 168.566 229.389 168.566 224.841C168.566 220.294 165.72 216.584 162.24 216.584Z" fill="#000B33"/>
<path d="M141.814 234.317C137.673 234.317 134.294 230.075 134.294 224.841C134.294 219.608 137.673 215.365 141.814 215.365C145.955 215.365 149.334 219.608 149.334 224.841C149.334 230.075 145.955 234.317 141.814 234.317ZM141.814 216.584C138.333 216.584 135.488 220.294 135.488 224.841C135.488 229.389 138.308 233.098 141.814 233.098C145.32 233.098 148.14 229.389 148.14 224.841C148.14 220.294 145.32 216.584 141.814 216.584Z" fill="#000B33"/>
<path d="M155.05 225.451C153.551 224.282 152.51 223.825 151.493 223.85C150.147 223.952 149.257 225.019 149.257 225.019C148.343 224.206 149.486 222.783 151.392 222.631C152.789 222.555 154.135 223.114 155.482 224.384C155.38 225.375 155.228 225.426 155.075 225.426L155.05 225.451Z" fill="#000B33"/>
<path d="M91.7648 361.041C70.1447 361.041 65.1141 332.18 63.4373 322.526C60.973 308.375 55.4856 273.113 55.4348 272.757C56.7051 272.935 62.1924 308.172 64.6313 322.323C66.308 332.002 71.4658 361.447 93.6448 359.771C103.553 359.008 114.045 351.209 113.867 331.697C115.29 352.022 104.188 360.152 93.7465 360.965C93.0605 361.015 92.3999 361.041 91.7648 361.041Z" fill="#000B33"/>
<path d="M108.075 323.365C106.703 314.32 105.128 306.445 103.934 301.338C99.2087 281.09 93.4158 265.923 93.3396 265.77C94.5337 265.491 100.377 280.734 105.103 301.059C106.297 306.191 107.897 314.117 108.659 322.704C108.1 323.365 108.075 323.365 108.049 323.365H108.075Z" fill="#000B33"/>
<path d="M103.324 417.67C105.84 410.582 117.704 348.643 113.791 330.885C109.803 312.796 116.205 294.758 116.281 294.58C117.373 295.164 111.073 312.872 114.985 330.631C118.923 348.541 106.957 411.039 103.858 417.314C103.756 417.543 103.528 417.644 103.324 417.644V417.67Z" fill="#000B33"/>
<path d="M65.9779 276.389C64.6568 276.389 63.412 276.338 62.2688 276.211C58.1531 275.754 55.7905 274.585 55.4603 272.781C55.1046 270.8 57.3146 268.564 61.5573 266.633C58.5341 269.351 56.4256 271.257 56.6542 272.578C56.8575 273.747 59.017 274.661 62.3959 275.017C66.1051 275.423 70.9069 275.144 75.9118 274.229C84.321 272.705 91.7644 269.631 93.2379 267.04C92.4757 263.508 88.5637 263.534 85.4388 264.016C91.714 261.857 93.873 263.813 94.5336 265.617C94.686 266.074 94.788 266.786 94.2799 267.649C92.6031 270.546 84.9811 273.823 76.1146 275.423C72.5324 276.059 69.0519 276.414 65.9524 276.414L65.9779 276.389Z" fill="#000B33"/>
<path d="M99.8182 284.037C99.3101 283.91 99.1323 283.554 99.234 283.249C100.504 279.413 104.696 272.629 104.874 272.35C116.586 254.719 137.978 256.345 138.181 256.37C137.876 257.564 117.195 256.014 105.89 273.011C105.864 273.061 101.597 279.921 100.377 283.63C100.301 283.884 100.047 284.037 99.7928 284.037H99.8182Z" fill="#000B33"/>
<path d="M213.788 361.039C213.127 361.039 212.466 361.014 211.806 360.963C201.364 360.15 190.262 352.02 190.465 331.67C191.481 351.207 201.999 358.981 211.882 359.743C234.112 361.547 239.218 332.001 240.895 322.296C243.359 308.17 248.847 272.907 248.898 272.552C250.041 273.085 244.553 308.348 242.089 322.499C240.412 332.178 235.382 361.014 213.762 361.014L213.788 361.039Z" fill="#000B33"/>
<path d="M197.477 323.363C197.654 314.116 199.23 306.189 200.449 301.057C205.175 280.733 211.018 265.489 211.069 265.337C212.136 265.921 206.343 281.114 201.618 301.337C200.424 306.443 198.848 314.293 198.086 322.804C198.061 323.109 197.781 323.363 197.477 323.363Z" fill="#000B33"/>
<path d="M202.228 417.668C198.595 411.063 186.629 348.565 190.567 330.629C194.479 312.871 188.204 295.188 188.128 295.01C189.347 294.782 195.749 312.794 191.76 330.908C187.848 348.667 199.713 410.58 202.787 416.804C202.431 417.668 202.329 417.668 202.228 417.668Z" fill="#000B33"/>
<path d="M239.675 276.389C236.474 276.389 232.892 276.033 229.437 275.423C220.443 273.797 212.975 270.596 211.272 267.649C210.764 266.76 210.866 266.049 211.018 265.617C211.958 263 215.362 262.924 217.191 262.873C215.565 264.118 212.822 264.194 212.161 266.023C213.813 269.631 221.257 272.705 229.64 274.229C240.463 276.185 248.465 274.915 248.897 272.578C249.101 271.486 247.449 269.555 243.334 267.675C248.186 268.539 250.447 270.825 250.091 272.807C249.634 275.347 245.239 276.414 239.65 276.414L239.675 276.389Z" fill="#000B33"/>
<path d="M205.733 284.036C203.93 279.92 199.662 273.06 199.636 272.984C188.001 255.099 166.177 257.284 165.974 257.284C166.05 256.039 188.61 253.803 200.678 272.324C200.856 272.628 205.073 279.386 206.343 283.223C205.886 284.01 205.835 284.01 205.759 284.01L205.733 284.036Z" fill="#000B33"/>
<path d="M131.702 31.2264C133.557 29.0924 135.741 28.1524 137.901 27.2886C136.199 29.2702 134.039 30.2101 131.956 31.1756C131.88 31.2264 131.778 31.2264 131.702 31.2264ZM220.037 28.381C217.7 27.441 215.54 26.6026 213.304 25.815C215.946 25.434 218.157 26.2977 220.291 27.2123C220.519 28.2539 220.291 28.381 220.062 28.381H220.037ZM144.709 26.069C146.742 24.1382 149.029 23.4524 151.264 22.8681C149.359 24.6465 147.123 25.307 144.913 26.0438C144.862 26.0438 144.786 26.069 144.709 26.069ZM206.801 23.8333C204.438 23.2236 202.152 22.6901 199.865 22.2582C202.406 21.5214 204.717 22.055 206.953 22.6393C207.309 23.6556 207.055 23.8333 206.801 23.8333ZM158.225 22.4615C160.385 20.7847 162.722 20.4036 165.034 20.0734C162.9 21.5977 160.588 21.9788 158.327 22.4361C158.276 22.4361 158.251 22.4361 158.2 22.4361L158.225 22.4615ZM193.056 21.1404C190.693 20.8355 188.356 20.6324 186.044 20.4799C188.458 19.4129 190.795 19.6161 193.132 19.9209C193.615 20.9118 193.361 21.1404 193.056 21.1404ZM172.097 20.5815C174.383 19.2096 176.746 19.1079 179.083 19.0825C176.771 20.302 174.434 20.4036 172.122 20.5561C172.122 20.5561 172.097 20.5561 172.071 20.5561L172.097 20.5815Z" fill="#000B33"/>
<path d="M86.7092 141.664C86.0995 141.156 85.2103 138.717 84.2195 134.449C86.379 138.361 87.2681 140.826 87.2935 140.851C86.8616 141.664 86.7854 141.664 86.7092 141.664ZM83.4572 128.047C82.4918 125.227 82.1867 122.864 81.9581 120.552C83.3808 122.737 83.6858 125.049 84.0415 127.336C83.508 128.047 83.4826 128.047 83.4318 128.047H83.4572ZM82.1615 114.099C81.5264 112.651 81.5264 111.787 81.5264 110.924C81.5264 109.475 81.5519 107.976 81.6281 106.478C82.7713 108.027 82.7458 109.501 82.7458 110.924C82.7458 111.787 82.7458 112.651 82.7712 113.49C82.1869 114.125 82.1615 114.125 82.1615 114.125V114.099ZM82.7966 100.126C82.4664 97.0775 82.8473 94.7402 83.3046 92.4791C84.0414 94.9435 83.6858 97.2553 83.4063 99.5926C83.3809 99.8975 83.1015 100.126 82.7966 100.126ZM85.5152 86.4072C85.0325 86.2801 84.8287 85.9499 84.9303 85.645C85.5654 83.3839 86.3025 81.1228 87.1409 78.938C87.4712 81.5293 86.7346 83.7396 86.1249 85.9753C86.0487 86.2548 85.7947 86.4072 85.5406 86.4072H85.5152ZM90.4183 73.3234C90.8756 70.351 91.9682 68.2424 93.1623 66.2099C93.0352 68.8267 91.9679 70.8845 90.9771 72.9677C90.8755 73.1964 90.6469 73.3234 90.4183 73.3234ZM97.4557 61.2304C98.294 58.3596 99.7421 56.4795 101.241 54.6757C100.682 57.2417 99.2847 59.0964 97.9636 60.9764C97.8366 61.1542 97.6589 61.2304 97.4557 61.2304ZM106.398 50.4585C107.872 47.5115 109.091 46.4698 110.26 45.479L111.2 44.6914C111.987 45.606 111.047 46.3935 111.047 46.3935C109.879 47.3843 108.685 48.3752 107.567 49.4931C106.703 50.3569 106.551 50.4331 106.398 50.4331V50.4585Z" fill="#000B33"/>
<path d="M121.464 48.1971C121.057 48.1971 120.676 48.197 120.27 48.1208C117.628 47.816 115.265 46.4695 113.639 44.3863C111.987 42.303 111.276 39.6863 111.581 37.0695C111.886 34.4273 113.233 32.0647 115.316 30.4387C117.399 28.7873 120.016 28.076 122.632 28.3809C125.275 28.6857 127.638 30.0067 129.263 32.1154C130.915 34.1986 131.626 36.8154 131.321 39.4322C131.016 42.0744 129.67 44.437 127.586 46.063C125.808 47.4603 123.674 48.1971 121.464 48.1971ZM121.438 29.5241C119.482 29.5241 117.627 30.1847 116.052 31.4041C114.223 32.8522 113.055 34.91 112.775 37.2219C112.496 39.5338 113.131 41.8204 114.579 43.6496C116.027 45.4788 118.085 46.6474 120.397 46.9268C122.734 47.2063 124.995 46.5711 126.825 45.123C128.654 43.6749 129.822 41.6171 130.101 39.3052C130.381 36.9933 129.746 34.7067 128.298 32.8775C126.85 31.0483 124.792 29.8797 122.48 29.6003C122.124 29.5495 121.769 29.5241 121.438 29.5241Z" fill="#000B33"/>
<path d="M332.558 41.8712C334.235 39.6101 336.343 38.5177 338.503 37.4761C336.877 39.5847 334.793 40.677 332.837 41.7949C332.736 41.8457 332.634 41.8712 332.533 41.8712H332.558ZM345.21 35.8755C347.166 33.8431 349.402 33.0555 351.638 32.3695C349.808 34.2241 347.598 35.0117 345.438 35.8501C345.362 35.8755 345.286 35.9008 345.21 35.9008V35.8755ZM420.664 34.8847C418.225 34.0971 415.99 33.4366 413.805 32.8268C416.32 32.2425 418.607 32.9538 420.842 33.6905C421.147 34.7067 420.893 34.8847 420.639 34.8847H420.664ZM358.573 31.6835C360.733 29.9306 363.044 29.4478 365.331 29.0667C363.273 30.6673 360.986 31.1246 358.725 31.6835C358.674 31.6835 358.624 31.6835 358.573 31.6835ZM407.174 31.2008C404.76 30.6927 402.448 30.2863 400.187 29.956C402.652 29.0922 404.989 29.5241 407.301 30.0069C407.707 31.0231 407.453 31.2008 407.174 31.2008ZM372.368 29.2954C374.604 27.8473 376.967 27.6695 379.329 27.5679C377.068 28.8636 374.731 29.0414 372.445 29.2954H372.394H372.368ZM393.328 29.1176C390.965 28.9143 388.628 28.7874 386.316 28.7366C388.679 27.5679 391.041 27.7203 393.379 27.9236C393.912 28.889 393.633 29.143 393.328 29.143V29.1176Z" fill="#000B33"/>
<path d="M477.674 139.632C477.09 138.844 477.699 136.303 478.207 132.035C478.893 136.532 478.284 139.047 478.258 139.149C478.182 139.428 477.954 139.606 477.674 139.606V139.632ZM479.401 125.735C478.868 123.448 478.919 121.721 478.919 119.993C478.919 119.383 478.919 118.774 478.919 118.139C480.138 118.748 480.164 119.383 480.164 119.993C480.164 121.746 480.113 123.474 480.037 125.15C480.037 125.481 479.757 125.735 479.427 125.735H479.401ZM479.148 111.736C478.335 108.866 478.055 106.528 477.7 104.267C479.249 106.376 479.554 108.739 479.757 111.076C479.199 111.736 479.173 111.736 479.148 111.736ZM476.963 97.9158C475.845 95.172 475.235 92.9109 474.524 90.7514C476.378 92.6061 477.013 94.8926 477.547 97.1791C477.039 97.9159 477.013 97.9158 476.963 97.9158ZM472.746 84.5779C471.297 82.0374 470.332 79.9033 469.29 77.8709C471.424 79.3952 472.415 81.5292 473.304 83.7395C472.898 84.5525 472.822 84.5779 472.746 84.5779ZM466.42 72.1038C464.667 69.8427 463.371 67.9119 461.999 66.0827C464.362 67.2005 465.708 69.1822 466.953 71.1892C466.648 72.0784 466.547 72.1292 466.445 72.1292L466.42 72.1038ZM458.087 60.8746C456.13 58.9692 454.504 57.267 452.827 55.6411C455.393 56.4032 457.019 58.1309 458.544 59.8584C458.366 60.8239 458.239 60.8746 458.087 60.8746ZM448.001 51.1697C445.562 49.3659 444.241 48.5022 442.97 47.6384L441.979 46.9778C442.665 45.9616 443.631 46.6221 443.631 46.6221C444.927 47.4859 446.273 48.375 447.544 49.3912C448.356 51.068 448.178 51.1442 448.001 51.1442V51.1697Z" fill="#000B33"/>
<path d="M431.69 50.636C429.912 50.636 428.108 50.1533 426.482 49.1371C424.221 47.7397 422.646 45.5295 422.036 42.9635C421.426 40.3722 421.858 37.7045 423.255 35.4435C424.653 33.1824 426.837 31.6072 429.429 30.9975C432.02 30.3878 434.688 30.8196 436.949 32.2423C439.21 33.6396 440.785 35.8246 441.395 38.416C442.004 41.0074 441.573 43.6748 440.175 45.9359C438.295 48.9592 435.043 50.636 431.715 50.636H431.69ZM431.715 31.9629C431.054 31.9629 430.369 32.0392 429.709 32.1916C427.447 32.7251 425.516 34.097 424.271 36.0786C423.052 38.0602 422.646 40.3976 423.179 42.6841C423.713 44.9452 425.11 46.8759 427.066 48.1208C431.157 50.6613 436.542 49.3911 439.083 45.3008C440.302 43.3192 440.709 40.982 440.175 38.7209C439.642 36.4598 438.244 34.5289 436.263 33.2841C434.865 32.4203 433.291 31.9629 431.69 31.9629H431.715Z" fill="#000B33"/>
<path d="M132.769 235.384C130.482 235.257 128.78 234.419 127.561 233.022C126.341 231.624 125.732 229.846 125.833 227.991C125.96 226.137 126.773 224.435 128.17 223.215C129.568 221.996 131.371 221.361 133.201 221.488C133.937 221.538 134.649 221.691 135.335 221.97C134.319 222.885 133.735 222.732 133.125 222.707C131.626 222.656 130.127 223.114 128.983 224.13C127.84 225.146 127.154 226.543 127.053 228.068C126.951 229.592 127.459 231.065 128.475 232.209C129.492 233.352 130.889 234.038 132.413 234.14C133.455 234.19 134.497 233.987 135.411 233.504C134.979 235.105 133.887 235.359 132.769 235.359V235.384Z" fill="#000B33"/>
<path d="M131.372 232.26C130.965 231.193 134.243 228.271 134.243 228.271L130.559 225.324C131.321 224.384 135.564 227.763 135.564 227.763C135.589 228.703 131.778 232.082 131.778 232.082C131.651 232.183 131.524 232.234 131.372 232.234V232.26Z" fill="#000B33"/>
<path d="M171.233 235.384C170.116 235.384 169.023 235.105 168.032 234.596C169.506 233.987 170.547 234.19 171.589 234.139C174.739 233.936 177.153 231.217 176.95 228.067C176.848 226.543 176.162 225.146 175.019 224.129C173.875 223.113 172.376 222.63 170.877 222.707C170.141 222.758 169.912 222.783 169.379 223.012C169.633 221.589 170.039 221.538 170.801 221.513C172.656 221.386 174.434 222.021 175.831 223.24C177.229 224.46 178.042 226.162 178.169 228.017C178.398 231.853 175.501 235.155 171.665 235.384C171.513 235.384 171.36 235.384 171.233 235.384Z" fill="#000B33"/>
<path d="M172.656 232.259C172.275 232.107 168.235 228.703 168.235 228.703C168.235 227.763 172.732 224.358 172.732 224.358C173.469 225.324 169.607 228.271 169.607 228.271L173.037 231.192C172.986 232.183 172.808 232.259 172.656 232.259Z" fill="#000B33"/>
<path d="M152.001 249.002C148.952 249.002 144.583 248.418 141.102 245.648C138.409 243.514 136.631 240.085 135.666 235.181C135.437 234.013 135.183 231.142 135.081 229.008C136.428 231.269 136.682 233.962 136.86 234.953C137.774 239.577 139.4 242.752 141.864 244.708C145.065 247.249 149.156 247.808 152.001 247.808C152.611 248.748 152.331 249.027 152.001 249.027V249.002Z" fill="#000B33"/>
<path d="M152.001 249.001C154.847 247.782 158.937 247.248 162.138 244.708C164.577 242.751 166.228 239.576 167.143 234.952C167.371 233.809 167.549 231.954 167.651 229.464C168.769 232.081 168.591 234.012 168.337 235.206C167.371 240.109 165.593 243.539 162.9 245.673C159.42 248.442 155.05 249.027 152.001 249.027V249.001Z" fill="#000B33"/>
<path d="M161.884 216.382C155.888 210.996 151.696 204.161 151.671 204.111C152.763 203.552 156.854 210.208 162.316 215.34C162.214 216.331 162.062 216.382 161.909 216.382H161.884Z" fill="#000B33"/>
<path d="M142.296 216.381C147.352 210.208 151.62 203.526 151.671 203.45C152.661 204.161 148.292 210.97 142.703 216.203C142.576 216.305 142.423 216.356 142.296 216.356V216.381Z" fill="#000B33"/>
<path d="M162.316 253.168C161.3 248.239 160.969 245.978 160.969 245.953C162.164 245.801 162.494 248.087 162.926 252.507C162.367 253.168 162.341 253.168 162.316 253.168Z" fill="#000B33"/>
<path d="M141.915 252.762C141.585 247.655 141.814 245.877 141.839 245.801C143.033 245.979 142.805 247.782 142.525 252.203C142.525 252.533 142.246 252.762 141.915 252.762Z" fill="#000B33"/>
<path d="M132.363 222.681C131.626 221.843 128.12 211.478 132.743 202.433C136.884 194.354 144.684 193.262 151.772 193.262C159.826 193.262 167.956 194.049 171.284 203.526C172.732 207.667 172.757 212.392 171.309 221.563C171.512 212.417 171.512 207.844 170.14 203.932C167.371 196.031 161.299 194.481 151.772 194.481C145.04 194.481 137.646 195.497 133.836 202.992C129.44 211.554 132.921 221.767 132.947 221.868C132.515 222.656 132.439 222.681 132.363 222.681Z" fill="#000B33"/>
<path d="M152.865 240.542C151.443 240.542 150.299 240.187 150.198 240.161C150.604 239.018 153.551 239.933 155.456 238.637C156.447 237.951 157.006 236.731 157.133 235.029C158.226 237.214 157.463 238.739 156.142 239.653C155.126 240.339 153.907 240.542 152.865 240.542Z" fill="#000B33"/>
<path d="M64.0729 239.855C59.8302 231.217 56.5782 219.683 59.5761 214.424C58.0263 219.581 60.7701 230.328 64.6317 238.991C64.2507 239.829 64.1491 239.855 64.0729 239.855Z" fill="#000B33"/>
<path d="M77.0552 238.229C74.7179 234.876 73.5491 230.684 72.4058 226.644C71.2118 222.402 70.0943 218.362 68.3413 215.771C71.2121 217.854 72.3803 221.944 73.5744 226.314C74.6922 230.303 75.8356 234.393 77.5632 237.315C77.2583 238.204 77.1568 238.229 77.0298 238.229H77.0552Z" fill="#000B33"/>
<path d="M87.1663 271.713C86.5819 271.256 83.6097 260.204 83.6097 260.204C85.2865 258.451 87.6232 246.257 83.0248 239.829C80.6621 236.526 67.6038 238.889 60.2108 243.055C57.0097 244.859 55.4856 246.663 56.0445 247.984C56.8829 249.966 58.4328 251.312 60.6685 252.024C64.8604 253.345 70.9829 252.1 76.2672 248.848C71.3131 253.319 64.8092 254.64 60.2871 253.192C57.7465 252.379 55.8923 250.753 54.9268 248.492C54.3171 247.07 54.647 244.808 59.6011 242.014C67.0449 237.822 80.9673 234.875 84.016 239.143C88.7414 245.748 86.8362 257.714 84.88 260.23L87.7505 270.976C87.2678 271.738 87.2171 271.738 87.1663 271.738V271.713Z" fill="#000B33"/>
<path d="M70.6784 259.747C69.8654 259.747 69.0271 259.645 68.1633 259.467C64.9368 258.781 61.6338 257.054 57.7468 254.031C55.3841 252.201 53.2246 250.118 51.37 247.806C50.2013 246.358 48.677 244.148 48.8294 241.556C48.8803 240.82 49.058 240.083 49.3629 239.346C50.5061 236.628 53.3516 233.782 56.4765 233.833C58.2803 233.884 59.5505 234.875 60.7953 235.866C62.8024 237.415 63.9712 238.355 65.3939 239.549C63.209 239.295 62.0405 238.355 60.4399 237.136C58.8902 235.916 57.823 235.078 56.4257 235.053C53.9359 235.053 51.472 237.466 50.4812 239.829C50.2271 240.439 50.0743 241.048 50.0489 241.633C49.9726 243.284 50.6844 244.986 52.3357 247.044C54.1395 249.28 56.2226 251.312 58.5091 253.065C62.2437 255.961 65.4191 257.613 68.4424 258.273C70.2462 258.68 71.9488 258.604 73.3715 258.095C74.1083 257.841 75.1244 257.333 75.8104 256.368C77.1569 254.488 76.1911 252.328 75.5052 251.236C78.0203 252.963 78.122 255.25 76.8009 257.079C76.115 258.045 75.0735 258.807 73.7778 259.264C72.8378 259.594 71.7963 259.772 70.7038 259.772L70.6784 259.747Z" fill="#000B33"/>
<path d="M67.2994 265.566C66.9183 265.566 66.512 265.566 66.1309 265.515C62.8536 265.21 59.3728 263.889 55.1301 261.374C52.5641 259.849 50.1766 258.02 48.0425 255.963C46.7214 254.667 44.9429 252.66 44.7651 250.068C44.7143 249.332 44.7901 248.569 45.0188 247.807C45.5269 246.054 46.645 243.692 49.1348 242.447C47.585 244.581 46.6192 246.613 46.1873 248.138C46.0095 248.773 45.9337 249.382 45.9845 249.992C46.0861 251.643 47.0258 253.269 48.8804 255.073C50.9383 257.08 53.2501 258.833 55.7398 260.307C59.8047 262.72 63.1331 263.991 66.2326 264.27C68.0872 264.448 69.7638 264.168 71.1102 263.508C71.7962 263.152 72.7619 262.517 73.3208 261.475C73.8797 260.434 73.9556 259.697 73.6254 258.706C75.2259 259.621 75.099 260.739 74.3877 262.06C73.8287 263.101 72.8886 263.965 71.6691 264.575C70.4242 265.21 68.9254 265.54 67.3249 265.54L67.2994 265.566Z" fill="#000B33"/>
<path d="M65.6989 276.388C65.1146 275.905 63.4883 268.258 63.4883 268.258C60.5667 267.42 58.6614 265.362 56.5781 262.364C59.6014 264.575 61.3797 266.505 64.1235 267.166C64.5808 267.623 66.2832 275.626 66.2832 275.626C65.7751 276.363 65.7243 276.363 65.6989 276.363V276.388Z" fill="#000B33"/>
<path d="M332.151 222.199C317.721 222.199 303.621 218.998 297.473 209.801C294.374 205.177 292.163 199.614 290.74 192.779C288.708 183.176 288.581 172.099 290.359 161.531C289.801 172.125 289.928 183.075 291.909 192.525C293.307 199.207 295.466 204.644 298.464 209.115C306.441 221.031 330.297 222.86 350.418 219.379C344.829 221.589 338.452 222.199 332.126 222.199H332.151Z" fill="#000B33"/>
<path d="M313.453 265.21C291.376 265.21 280.045 255.124 273.287 247.198C248.669 218.286 252.15 169.635 253.776 155.408C253.344 169.66 249.914 217.88 274.201 246.41C281.442 254.921 294.069 265.972 320.211 263.686C317.924 265.109 315.613 265.21 313.428 265.21H313.453Z" fill="#000B33"/>
<path d="M284.288 163.894C280.223 163.894 275.32 163.309 271.966 162.725C265.437 161.633 253.242 158.66 253.776 155.357C253.979 154.189 256.164 152.944 259.085 152.944C256.367 154.163 255.072 155.281 254.97 155.561C254.792 156.552 260.712 159.575 272.144 161.505C283.577 163.436 290.156 162.522 290.334 161.505C290.334 161.378 290.411 160.235 285.457 158.508C289.928 158.762 291.782 160.184 291.528 161.709C291.249 163.309 288.15 163.868 284.263 163.868L284.288 163.894Z" fill="#000B33"/>
<path d="M485.55 417.592H0C0 416.373 485.55 416.373 485.55 416.373C486.16 417.313 485.88 417.592 485.55 417.592Z" fill="#000B33"/>
<path d="M363.984 182.719C363.501 182.643 363.171 182.846 363.044 184.599C362.892 186.556 363.4 186.886 363.857 186.886C364.289 186.886 364.721 186.251 364.696 184.853C364.67 183.456 364.619 182.796 363.984 182.719Z" fill="#000B33"/>
<path d="M349.783 182.973C349.3 182.923 348.97 183.126 348.894 184.879C348.792 186.835 349.326 187.165 349.758 187.14C350.19 187.115 350.621 186.479 350.545 185.108C350.469 183.71 350.418 183.075 349.783 182.973Z" fill="#000B33"/>
<path d="M378.186 214.424C377.577 213.84 376.56 196.336 376.56 196.336C377.78 196.259 378.796 213.764 378.796 213.764C378.212 214.399 378.186 214.399 378.186 214.399V214.424Z" fill="#000B33"/>
<path d="M355.931 211.326C352.756 211.326 349.478 210.894 347.42 207.794C345.261 204.543 345.21 200.274 345.159 196.489C345.159 195.651 345.159 194.838 345.109 194.075C345.007 191.509 345.312 175.047 345.312 174.335C346.532 174.539 346.226 191.484 346.328 194.025C346.353 194.812 346.379 195.651 346.379 196.489C346.43 200.249 346.455 204.161 348.437 207.134C350.52 210.284 354.204 210.182 357.735 210.081C358.192 210.081 358.65 210.056 359.082 210.056C362.105 210.03 364.544 209.751 366.78 209.243C364.722 210.97 362.207 211.25 359.107 211.275C358.675 211.275 358.218 211.275 357.761 211.3C357.151 211.3 356.541 211.326 355.931 211.326Z" fill="#000B33"/>
<path d="M380.194 197.581C378.517 197.581 376.814 197.048 375.392 195.955C378.643 196.87 382.073 196.794 384.487 194.787C387.332 192.398 387.738 188.156 385.35 185.31C384.207 183.938 382.582 183.075 380.778 182.922C378.949 182.744 377.246 183.303 375.849 184.446C374.934 185.209 374.249 186.174 373.842 187.266C373.182 185.564 373.995 184.396 375.062 183.507C376.688 182.135 378.745 181.499 380.88 181.703C382.988 181.906 384.919 182.897 386.265 184.523C389.06 187.902 388.603 192.907 385.249 195.727C383.776 196.971 381.972 197.581 380.168 197.581H380.194Z" fill="#000B33"/>
<path d="M346.073 180.762C345.54 179.873 347.013 176.824 351.307 177.916C347.699 178.247 346.658 180.33 346.632 180.406C346.53 180.635 346.302 180.762 346.073 180.762Z" fill="#000B33"/>
<path d="M367.058 180.94C363.73 177.104 360.91 178.832 360.809 178.908C360.199 177.866 363.985 175.478 367.542 179.949C367.338 180.889 367.185 180.94 367.058 180.94Z" fill="#000B33"/>
<path d="M354.61 214.476C354 213.866 353.975 210.69 353.975 210.69C355.194 210.69 355.22 213.866 355.22 213.866C354.61 214.476 354.61 214.476 354.61 214.476Z" fill="#000B33"/>
<path d="M385.376 184.599C388.12 179.822 389.162 174.259 387.815 169.431C386.723 165.544 384.208 162.775 380.778 161.657C378.974 161.073 376.89 160.87 374.604 161.124C373.359 161.251 370.92 161.353 370.819 161.353C370.793 160.133 373.258 160.031 374.477 159.904C376.942 159.676 379.177 159.854 381.159 160.489C384.97 161.734 387.764 164.782 388.984 169.101C390.457 174.284 389.288 180.305 386.087 184.09C385.706 184.522 385.528 184.599 385.376 184.599Z" fill="#000B33"/>
<path d="M382.531 194.024C382.277 193.974 376.535 191.179 376.535 191.179C376.357 190.214 381.515 184.878 381.515 184.878C382.379 185.717 377.83 190.468 377.83 190.468L382.81 192.881C382.988 193.923 382.759 194.05 382.531 194.05V194.024Z" fill="#000B33"/>
<path d="M367.846 165.037C367.364 164.046 370.336 160.312 370.336 160.312C371.302 161.074 368.329 164.808 368.329 164.808C368.202 164.961 368.024 165.037 367.846 165.037Z" fill="#000B33"/>
<path d="M374.477 185.615C369.269 180.457 366.169 172.302 365.179 169.431C363.095 171.667 356.541 177.383 345.794 174.944C358.421 176.545 364.671 168.212 364.925 167.856C366.017 168.135 369.345 178.831 374.909 184.573C374.782 185.538 374.63 185.615 374.477 185.615Z" fill="#000B33"/>
<path d="M316.044 385.887C315.435 323.313 317.289 280.378 321.252 250.145C318.508 280.479 316.654 323.364 316.654 385.277C316.654 385.607 316.375 385.887 316.044 385.887Z" fill="#000B33"/>
<path d="M371.302 252.965C370.793 252.66 359.92 234.8 359.92 234.8L350.443 248.138C349.351 247.782 349.147 221.158 349.147 221.158C349.249 220.827 354.102 213.536 354.102 213.536C355.194 213.714 360.25 232.463 360.25 232.463L378.008 213.079C378.898 213.079 385.884 220.472 385.884 220.472C385.986 221.132 371.835 252.61 371.835 252.61C371.301 252.965 371.302 252.965 371.276 252.965H371.302ZM360.707 233.759L371.225 251.06L384.741 221.031L378.465 214.4L360.707 233.759ZM350.367 221.335L350.545 245.902L359.285 233.581L354.356 215.34L350.367 221.335Z" fill="#000B33"/>
<path d="M345.82 318.359C345.312 318.232 345.134 317.902 345.236 317.572C348.996 304.945 368.278 249.028 368.481 248.469C369.447 249.434 350.164 305.326 346.404 317.927C346.328 318.181 346.074 318.359 345.82 318.359Z" fill="#000B33"/>
<path d="M343.99 385.887C343.381 354.181 345.21 318.079 345.21 317.724C345.438 302.353 350.138 247.097 350.189 246.538C351.358 247.198 346.632 302.43 346.429 317.775C346.429 318.156 344.6 354.231 344.6 385.302C344.6 385.632 344.321 385.912 343.99 385.912V385.887Z" fill="#000B33"/>
<path d="M361.19 253.041L354.204 252.432C353.645 251.873 352.857 242.905 352.857 242.905C354.077 242.803 354.813 251.263 354.813 251.263L360.885 251.797L366.17 244.378C367.16 245.089 361.673 252.787 361.673 252.787C361.571 252.94 361.368 253.041 361.165 253.041H361.19Z" fill="#000B33"/>
<path d="M362.435 267.929C361.825 267.37 360.58 252.482 360.58 252.482C361.799 252.381 363.019 267.294 363.019 267.294C362.435 267.954 362.435 267.954 362.41 267.954L362.435 267.929Z" fill="#000B33"/>
<path d="M349.58 261.984C349.046 261.12 353.695 251.568 353.695 251.568C354.787 252.101 350.113 261.654 350.113 261.654C350.011 261.857 349.783 261.984 349.554 261.984H349.58Z" fill="#000B33"/>
<path d="M359.081 202.002C358.421 202.002 357.684 201.875 356.922 201.596C358.675 200.91 359.767 200.884 360.631 200.376C362.079 199.512 362.435 197.531 362.435 197.505C363.629 197.81 363.197 200.249 361.266 201.418C360.605 201.799 359.894 202.002 359.081 202.002Z" fill="#000B33"/>
<path d="M355.499 196.413C354.051 196.413 351.688 196.209 350.647 195.066C350.189 194.558 349.986 193.897 350.113 193.161C350.647 190.112 353.416 180.941 353.543 180.534C354.686 180.991 351.841 190.391 351.307 193.364C352.45 195.244 355.55 195.244 356.566 195.142C356.541 196.362 356.083 196.387 355.499 196.387V196.413Z" fill="#000B33"/>
<path d="M345.54 181.88C344.956 181.499 335.632 168.568 344.422 160.489C352.654 152.918 363.222 152.842 370.717 160.286C362.867 154.188 352.959 154.29 345.235 161.378C337.258 168.72 345.921 180.762 346.022 180.889C345.794 181.829 345.667 181.855 345.54 181.855V181.88Z" fill="#000B33"/>
<path d="M478.766 385.887H241.454C233.959 385.887 227.176 379.383 226.338 371.355C228.345 378.646 234.569 384.668 241.454 384.668H478.766C486.489 384.668 492.765 378.393 492.765 370.669V243.464C492.765 235.741 486.489 229.466 478.766 229.466H414.744C414.744 228.246 478.766 228.246 478.766 228.246C487.15 228.246 493.984 235.08 493.984 243.464V370.669C493.984 379.053 487.15 385.887 478.766 385.887Z" fill="#000B33"/>
<path d="M271.026 371.914H33.7132C25.3294 371.914 18.4954 365.08 18.4954 356.696V161.963C18.4954 153.579 25.3294 146.745 33.7132 146.745H257.739C257.739 147.965 33.7132 147.965 33.7132 147.965C25.99 147.965 19.7148 154.24 19.7148 161.963V356.696C19.7148 364.419 25.99 370.694 33.7132 370.694H271.026C278.749 370.694 285.024 364.419 285.024 356.696V257.589C286.244 257.589 286.244 356.696 286.244 356.696C286.244 365.08 279.435 371.914 271.026 371.914Z" fill="#000B33"/>
<path d="M138.917 255.074C136.097 255.074 126.723 254.515 124.512 247.275C121.946 238.942 129.492 233.606 129.568 233.556C129.974 234.75 123.369 239.45 125.655 246.919C127.942 254.363 139.501 253.829 139.628 253.829C139.628 255.049 139.349 255.074 138.917 255.074Z" fill="#000B33"/>
<path d="M164.094 255.023C164.196 253.804 176.848 253.194 179.16 245.699C181.421 238.306 174.307 234.775 174.002 234.623C174.612 233.556 182.894 237.646 180.303 246.055C177.737 254.363 164.679 254.998 164.12 255.023H164.094Z" fill="#000B33"/>
<path d="M150.299 234.318C149.029 234.318 147.555 233.962 146.717 232.514C146.818 231.777 150.756 227.027 150.756 219.1C151.976 226.29 148.978 230.914 147.987 232.209C149.283 233.708 152.154 232.794 152.179 232.794C152.484 233.988 151.493 234.293 150.299 234.293V234.318Z" fill="#000B33"/>
<path d="M447.721 385.886C447.111 384.362 447.721 294.502 439.515 259.468C431.411 224.815 385.858 221.538 385.401 221.487C385.935 220.293 432.376 223.647 440.683 259.189C448.915 294.375 448.305 384.362 448.305 385.276C448.305 385.607 448.026 385.886 447.695 385.886H447.721Z" fill="#000B33"/>
<path d="M405.548 385.887C405.802 332.129 401.077 265.287 401.026 264.626C402.296 265.211 407.022 332.078 406.158 385.277C406.158 385.608 405.878 385.887 405.548 385.887Z" fill="#000B33"/>
<path d="M142.321 280.885C141.915 280.885 141.508 280.86 141.102 280.809C139.222 280.53 137.774 279.59 136.783 278.014C132.871 271.815 137.266 257.588 137.469 256.979C137.571 256.775 141.457 251.796 141.457 251.796C142.397 251.771 153.246 263.787 153.246 263.787C153.347 264.702 152.306 275.118 147.047 279.259C145.65 280.352 144.074 280.911 142.347 280.911L142.321 280.885ZM138.587 257.436C138.206 258.732 134.369 271.892 137.799 277.354C138.612 278.65 139.756 279.386 141.28 279.59C143.135 279.844 144.837 279.412 146.285 278.268C150.705 274.788 151.95 265.998 152.154 264.372L141.966 253.092L138.587 257.436Z" fill="#000B33"/>
<path d="M162.087 280.886C154.948 280.886 152.433 271.917 151.671 267.903C153.601 271.612 156.117 280.631 163.256 279.59C164.755 279.361 165.847 278.65 166.609 277.405C169.963 271.892 165.669 258.478 165.237 257.208L162.316 253.549L153.246 264.575C152.306 263.813 161.858 252.203 161.858 252.203C162.798 252.203 166.253 256.547 166.253 256.547C166.558 257.335 171.462 271.816 167.651 278.065C166.685 279.641 165.263 280.555 163.434 280.835C162.976 280.911 162.519 280.936 162.113 280.936L162.087 280.886Z" fill="#000B33"/>
<path d="M212.11 192.093H188.077C187.467 191.484 187.467 167.45 187.467 167.45C188.077 166.84 212.11 166.84 212.11 166.84C212.72 167.45 212.72 191.484 212.72 191.484C212.72 191.814 212.441 192.093 212.11 192.093ZM188.687 190.874H211.501V168.06H188.687V190.874Z" fill="#000B33"/>
<path d="M242.648 216.381H225.525C224.915 215.772 224.915 198.648 224.915 198.648C225.525 198.039 242.648 198.039 242.648 198.039C243.258 198.648 243.257 215.772 243.257 215.772C243.257 216.102 242.978 216.381 242.648 216.381ZM226.134 215.162H242.038V199.258H226.134V215.162Z" fill="#000B33"/>
<path d="M78.427 355.806C80.3324 348.87 86.785 344.78 93.924 344.78C100.225 344.78 105.763 347.702 108.736 352.58C104.95 348.693 99.7926 346 93.924 346C87.2931 346 81.2977 349.785 78.9858 355.45C78.8842 355.679 78.6557 355.832 78.427 355.832V355.806Z" fill="#000B33"/>
<path d="M227.201 356.01C224.407 349.862 218.36 345.975 211.628 345.975C205.988 345.975 200.906 348.592 197.985 352.987C200.119 347.601 205.581 344.755 211.628 344.755C218.868 344.755 225.347 348.947 227.761 355.172C227.354 355.985 227.277 356.01 227.201 356.01Z" fill="#000B33"/>
</svg>
