<svg width="185" height="123" viewBox="0 0 185 123" fill="none" xmlns="http://www.w3.org/2000/svg">
<g filter="url(#filter0_d_568_6416)">
<path d="M147.576 27C151.676 27 155.045 30.3351 154.566 34.4074C153.894 40.1366 152.442 45.7573 150.242 51.1091C147.102 58.7526 142.498 65.6976 136.694 71.5477C130.891 77.3978 124.001 82.0384 116.418 85.2044C108.835 88.3705 100.708 90 92.5 90C84.2924 90 76.1651 88.3705 68.5823 85.2044C60.9994 82.0384 54.1095 77.3978 48.3058 71.5477C42.5022 65.6976 37.8984 58.7526 34.7575 51.1091C32.5584 45.7573 31.1065 40.1366 30.4335 34.4074C29.9552 30.3351 33.3239 27 37.4242 27L92.5 27H147.576Z" fill="white"/>
</g>
<path d="M59.353 53.091C58.755 53.091 58.2177 52.987 57.741 52.779C57.273 52.5623 56.9047 52.2677 56.636 51.895C56.3673 51.5137 56.2287 51.076 56.22 50.582H57.481C57.5243 51.0067 57.6977 51.3663 58.001 51.661C58.313 51.947 58.7637 52.09 59.353 52.09C59.9163 52.09 60.3583 51.9513 60.679 51.674C61.0083 51.388 61.173 51.024 61.173 50.582C61.173 50.2353 61.0777 49.9537 60.887 49.737C60.6963 49.5203 60.458 49.3557 60.172 49.243C59.886 49.1303 59.5003 49.009 59.015 48.879C58.417 48.723 57.936 48.567 57.572 48.411C57.2167 48.255 56.909 48.0123 56.649 47.683C56.3977 47.345 56.272 46.8943 56.272 46.331C56.272 45.837 56.3977 45.3993 56.649 45.018C56.9003 44.6367 57.2513 44.342 57.702 44.134C58.1613 43.926 58.6857 43.822 59.275 43.822C60.1243 43.822 60.8177 44.0343 61.355 44.459C61.901 44.8837 62.2087 45.447 62.278 46.149H60.978C60.9347 45.8023 60.7527 45.499 60.432 45.239C60.1113 44.9703 59.6867 44.836 59.158 44.836C58.664 44.836 58.261 44.966 57.949 45.226C57.637 45.4773 57.481 45.8327 57.481 46.292C57.481 46.6213 57.572 46.89 57.754 47.098C57.9447 47.306 58.1743 47.4663 58.443 47.579C58.7203 47.683 59.106 47.8043 59.6 47.943C60.198 48.1077 60.679 48.2723 61.043 48.437C61.407 48.593 61.719 48.84 61.979 49.178C62.239 49.5073 62.369 49.958 62.369 50.53C62.369 50.972 62.252 51.388 62.018 51.778C61.784 52.168 61.4373 52.4843 60.978 52.727C60.5187 52.9697 59.977 53.091 59.353 53.091ZM63.6679 49.425C63.6679 48.6883 63.8152 48.047 64.1099 47.501C64.4046 46.9463 64.8119 46.5173 65.3319 46.214C65.8606 45.9107 66.4629 45.759 67.1389 45.759C68.0142 45.759 68.7336 45.9713 69.2969 46.396C69.8689 46.8207 70.2459 47.41 70.4279 48.164H69.1539C69.0326 47.7307 68.7942 47.3883 68.4389 47.137C68.0922 46.8857 67.6589 46.76 67.1389 46.76C66.4629 46.76 65.9169 46.994 65.5009 47.462C65.0849 47.9213 64.8769 48.5757 64.8769 49.425C64.8769 50.283 65.0849 50.946 65.5009 51.414C65.9169 51.882 66.4629 52.116 67.1389 52.116C67.6589 52.116 68.0922 51.9947 68.4389 51.752C68.7856 51.5093 69.0239 51.1627 69.1539 50.712H70.4279C70.2372 51.44 69.8559 52.025 69.2839 52.467C68.7119 52.9003 67.9969 53.117 67.1389 53.117C66.4629 53.117 65.8606 52.9653 65.3319 52.662C64.8119 52.3587 64.4046 51.9297 64.1099 51.375C63.8152 50.8203 63.6679 50.1703 63.6679 49.425ZM73.1894 47.033C73.3974 46.6257 73.692 46.3093 74.0734 46.084C74.4634 45.8587 74.9357 45.746 75.4904 45.746V46.968H75.1784C73.8524 46.968 73.1894 47.6873 73.1894 49.126V53H72.0064V45.876H73.1894V47.033ZM79.963 53.117C79.2956 53.117 78.689 52.9653 78.143 52.662C77.6056 52.3587 77.181 51.9297 76.869 51.375C76.5656 50.8117 76.414 50.1617 76.414 49.425C76.414 48.697 76.57 48.0557 76.882 47.501C77.2026 46.9377 77.636 46.5087 78.182 46.214C78.728 45.9107 79.339 45.759 80.015 45.759C80.691 45.759 81.302 45.9107 81.848 46.214C82.394 46.5087 82.823 46.9333 83.135 47.488C83.4556 48.0427 83.616 48.6883 83.616 49.425C83.616 50.1617 83.4513 50.8117 83.122 51.375C82.8013 51.9297 82.3636 52.3587 81.809 52.662C81.2543 52.9653 80.639 53.117 79.963 53.117ZM79.963 52.077C80.3876 52.077 80.7863 51.9773 81.159 51.778C81.5316 51.5787 81.8306 51.2797 82.056 50.881C82.29 50.4823 82.407 49.997 82.407 49.425C82.407 48.853 82.2943 48.3677 82.069 47.969C81.8436 47.5703 81.549 47.2757 81.185 47.085C80.821 46.8857 80.4266 46.786 80.002 46.786C79.5686 46.786 79.17 46.8857 78.806 47.085C78.4506 47.2757 78.1646 47.5703 77.948 47.969C77.7313 48.3677 77.623 48.853 77.623 49.425C77.623 50.0057 77.727 50.4953 77.935 50.894C78.1516 51.2927 78.4376 51.5917 78.793 51.791C79.1483 51.9817 79.5383 52.077 79.963 52.077ZM86.3544 43.38V53H85.1714V43.38H86.3544ZM89.5536 43.38V53H88.3706V43.38H89.5536ZM97.8567 43.939C98.8447 43.939 99.6983 44.1253 100.418 44.498C101.146 44.862 101.7 45.3863 102.082 46.071C102.472 46.7557 102.667 47.5617 102.667 48.489C102.667 49.4163 102.472 50.2223 102.082 50.907C101.7 51.583 101.146 52.103 100.418 52.467C99.6983 52.8223 98.8447 53 97.8567 53H95.0357V43.939H97.8567ZM97.8567 52.025C99.0267 52.025 99.9193 51.7173 100.535 51.102C101.15 50.478 101.458 49.607 101.458 48.489C101.458 47.3623 101.146 46.4827 100.522 45.85C99.9063 45.2173 99.018 44.901 97.8567 44.901H96.2187V52.025H97.8567ZM107.334 53.117C106.667 53.117 106.06 52.9653 105.514 52.662C104.977 52.3587 104.552 51.9297 104.24 51.375C103.937 50.8117 103.785 50.1617 103.785 49.425C103.785 48.697 103.941 48.0557 104.253 47.501C104.574 46.9377 105.007 46.5087 105.553 46.214C106.099 45.9107 106.71 45.759 107.386 45.759C108.062 45.759 108.673 45.9107 109.219 46.214C109.765 46.5087 110.194 46.9333 110.506 47.488C110.827 48.0427 110.987 48.6883 110.987 49.425C110.987 50.1617 110.822 50.8117 110.493 51.375C110.172 51.9297 109.735 52.3587 109.18 52.662C108.625 52.9653 108.01 53.117 107.334 53.117ZM107.334 52.077C107.759 52.077 108.157 51.9773 108.53 51.778C108.903 51.5787 109.202 51.2797 109.427 50.881C109.661 50.4823 109.778 49.997 109.778 49.425C109.778 48.853 109.665 48.3677 109.44 47.969C109.215 47.5703 108.92 47.2757 108.556 47.085C108.192 46.8857 107.798 46.786 107.373 46.786C106.94 46.786 106.541 46.8857 106.177 47.085C105.822 47.2757 105.536 47.5703 105.319 47.969C105.102 48.3677 104.994 48.853 104.994 49.425C104.994 50.0057 105.098 50.4953 105.306 50.894C105.523 51.2927 105.809 51.5917 106.164 51.791C106.519 51.9817 106.909 52.077 107.334 52.077ZM122.033 45.876L119.81 53H118.588L116.872 47.345L115.156 53H113.934L111.698 45.876H112.907L114.545 51.856L116.313 45.876H117.522L119.251 51.869L120.863 45.876H122.033ZM126.678 45.746C127.544 45.746 128.246 46.0103 128.784 46.539C129.321 47.059 129.59 47.813 129.59 48.801V53H128.42V48.97C128.42 48.2593 128.242 47.7177 127.887 47.345C127.531 46.9637 127.046 46.773 126.431 46.773C125.807 46.773 125.308 46.968 124.936 47.358C124.572 47.748 124.39 48.3157 124.39 49.061V53H123.207V45.876H124.39V46.89C124.624 46.526 124.94 46.2443 125.339 46.045C125.746 45.8457 126.192 45.746 126.678 45.746Z" fill="#000B33"/>
<path d="M92.0051 62.2087V73.3787L87.1251 68.4987C86.7351 68.1087 86.0951 68.1087 85.7051 68.4987C85.3151 68.8887 85.3151 69.5187 85.7051 69.9087L92.2951 76.4987C92.6851 76.8887 93.3151 76.8887 93.7051 76.4987L100.295 69.9087C100.685 69.5187 100.685 68.8887 100.295 68.4987C99.9051 68.1087 99.2751 68.1087 98.8851 68.4987L94.0051 73.3787V62.2087C94.0051 61.6587 93.5551 61.2087 93.0051 61.2087C92.4551 61.2087 92.0051 61.6587 92.0051 62.2087Z" fill="#000B33"/>
<defs>
<filter id="filter0_d_568_6416" x="0.691214" y="0.272727" width="183.618" height="122.394" filterUnits="userSpaceOnUse" color-interpolation-filters="sRGB">
<feFlood flood-opacity="0" result="BackgroundImageFix"/>
<feColorMatrix in="SourceAlpha" type="matrix" values="0 0 0 0 0 0 0 0 0 0 0 0 0 0 0 0 0 0 127 0" result="hardAlpha"/>
<feOffset dy="2.9697"/>
<feGaussianBlur stdDeviation="14.8485"/>
<feColorMatrix type="matrix" values="0 0 0 0 0.168627 0 0 0 0 0.34902 0 0 0 0 1 0 0 0 0.08 0"/>
<feBlend mode="normal" in2="BackgroundImageFix" result="effect1_dropShadow_568_6416"/>
<feBlend mode="normal" in="SourceGraphic" in2="effect1_dropShadow_568_6416" result="shape"/>
</filter>
</defs>
</svg>
