<svg viewBox="0 0 452 157" fill="none" xmlns="http://www.w3.org/2000/svg"><path d="M0 0v156.61h27.87V87.75h31.05c.021-7.813.02-15.627.02-23.44H27.88V24.33h73.22V0H0ZM311.69 86.88h-26.55v69.74h26.55V86.88ZM257.73 0h-26.55v156.61h26.55V0ZM145.53 44.24c-31.03 0-56.19 25.16-56.19 56.19 0 31.03 25.16 56.19 56.19 56.19 31.03 0 56.19-25.16 56.19-56.19 0-31.03-25.16-56.19-56.19-56.19Zm0 89.02c-18.14 0-32.84-14.7-32.84-32.84 0-18.14 14.7-32.84 32.84-32.84 18.14 0 32.84 14.7 32.84 32.84 0 18.14-14.71 32.84-32.84 32.84ZM395.19 44.24c-31.03 0-56.19 25.16-56.19 56.19 0 31.03 25.16 56.19 56.19 56.19 31.03 0 56.19-25.16 56.19-56.19 0-31.03-25.16-56.19-56.19-56.19Zm0 89.02c-18.14 0-32.84-14.7-32.84-32.84 0-18.14 14.7-32.84 32.84-32.84 18.14 0 32.84 14.7 32.84 32.84 0 18.14-14.71 32.84-32.84 32.84Z" fill="#00233D"/><path d="M298.35 76.7c9.03 0 16.35-7.32 16.35-16.35 0-9.03-7.32-16.35-16.35-16.35-9.03 0-16.35 7.32-16.35 16.35 0 9.03 7.32 16.35 16.35 16.35Z" fill="#FF6B6C"/><path d="M144.78 86.64c-7.48 0-13.55 6.07-13.55 13.55s6.07 13.55 13.55 13.55 13.55-6.07 13.55-13.55c-.01-7.48-6.07-13.55-13.55-13.55Z" fill="#FFC145"/><path d="M394.44 86.64c-7.48 0-13.55 6.07-13.55 13.55s6.07 13.55 13.55 13.55 13.55-6.07 13.55-13.55c-.01-7.48-6.07-13.55-13.55-13.55Z" fill="#A5FFD4"/></svg>