<svg width="70" height="70" viewBox="0 0 70 70" fill="none" xmlns="http://www.w3.org/2000/svg">
<circle cx="35" cy="35" r="35" transform="matrix(1 0 0 -1 0 70)" fill="#FFC145"/>
<path d="M21.6667 36.6667C23.5 36.6667 25 35.1667 25 33.3333C25 31.5 23.5 30 21.6667 30C19.8333 30 18.3333 31.5 18.3333 33.3333C18.3333 35.1667 19.8333 36.6667 21.6667 36.6667ZM23.55 38.5C22.9333 38.4 22.3167 38.3333 21.6667 38.3333C20.0167 38.3333 18.45 38.6833 17.0333 39.3C15.8 39.8333 15 41.0333 15 42.3833V45H22.5V42.3167C22.5 40.9333 22.8833 39.6333 23.55 38.5ZM48.3333 36.6667C50.1667 36.6667 51.6667 35.1667 51.6667 33.3333C51.6667 31.5 50.1667 30 48.3333 30C46.5 30 45 31.5 45 33.3333C45 35.1667 46.5 36.6667 48.3333 36.6667ZM55 42.3833C55 41.0333 54.2 39.8333 52.9667 39.3C51.55 38.6833 49.9833 38.3333 48.3333 38.3333C47.6833 38.3333 47.0667 38.4 46.45 38.5C47.1167 39.6333 47.5 40.9333 47.5 42.3167V45H55V42.3833ZM42.0667 37.75C40.1167 36.8833 37.7167 36.25 35 36.25C32.2833 36.25 29.8833 36.9 27.9333 37.75C26.1333 38.55 25 40.35 25 42.3167V45H45V42.3167C45 40.35 43.8667 38.55 42.0667 37.75ZM28.45 41.6667C28.6 41.2833 28.6667 41.0167 29.9667 40.5167C31.5833 39.8833 33.2833 39.5833 35 39.5833C36.7167 39.5833 38.4167 39.8833 40.0333 40.5167C41.3167 41.0167 41.3833 41.2833 41.55 41.6667H28.45ZM35 28.3333C35.9167 28.3333 36.6667 29.0833 36.6667 30C36.6667 30.9167 35.9167 31.6667 35 31.6667C34.0833 31.6667 33.3333 30.9167 33.3333 30C33.3333 29.0833 34.0833 28.3333 35 28.3333ZM35 25C32.2333 25 30 27.2333 30 30C30 32.7667 32.2333 35 35 35C37.7667 35 40 32.7667 40 30C40 27.2333 37.7667 25 35 25Z" fill="white"/>
</svg>
