<svg width="70" height="70" viewBox="0 0 70 70" fill="none" xmlns="http://www.w3.org/2000/svg">
<circle cx="35" cy="35" r="35" transform="matrix(1 0 0 -1 0 70)" fill="#FFC145"/>
<path d="M43.0496 32.1702C43.8484 32.1702 44.4014 32.9181 44.1761 33.666L41.964 41.0638H47.8015L49.01 39.4872C49.2148 39.2043 49.5425 39.0426 49.8907 39.0426C50.6281 39.0426 51.1606 39.75 50.9558 40.4574L50.157 43.0851L50.9558 45.7128C51.1606 46.4202 50.6281 47.1277 49.8907 47.1277C49.5425 47.1277 49.2148 46.966 49.01 46.683L47.8015 45.1064H41.964L44.1761 52.5043C44.4014 53.2521 43.8279 54 43.0496 54C42.6399 54 42.2508 53.7777 42.0255 53.434L37.0482 45.1064H30.965C29.8794 45.1064 28.9167 44.2979 28.8553 43.2266C28.7734 42.034 29.736 41.0638 30.9035 41.0638H37.0482L42.0255 32.7362C42.2508 32.3926 42.6399 32.1702 43.0496 32.1702ZM26.9504 16C26.1516 16 25.5986 16.7479 25.8239 17.4957L28.036 24.8936H22.1985L20.99 23.317C20.7852 23.034 20.4575 22.8723 20.1093 22.8723C19.3719 22.8723 18.8394 23.5798 19.0442 24.2872L19.843 26.9149L19.0442 29.5426C18.8394 30.25 19.3719 30.9574 20.1093 30.9574C20.4575 30.9574 20.7852 30.7957 20.99 30.5128L22.1985 28.9362H28.036L25.8239 36.334C25.5986 37.0819 26.1721 37.8298 26.9504 37.8298C27.3601 37.8298 27.7492 37.6074 27.9745 37.2638L32.9518 28.9362H39.035C40.1206 28.9362 41.0833 28.1277 41.1447 27.0564C41.2266 25.8638 40.264 24.8936 39.0965 24.8936H32.9518L27.9745 16.566C27.7492 16.2223 27.3601 16 26.9504 16Z" fill="white"/>
</svg>
