<svg width="70" height="70" viewBox="0 0 70 70" fill="none" xmlns="http://www.w3.org/2000/svg">
<circle cx="35" cy="35" r="35" transform="matrix(1 0 0 -1 0 70)" fill="#632F5E"/>
<path d="M26.4334 29.8999L23.0001 28.3333L26.4334 26.7666L28.0001 23.3333L29.5667 26.7666L33.0001 28.3333L29.5667 29.8999L28.0001 33.3333L26.4334 29.8999ZM28.0001 49.9999L29.5667 46.5666L33.0001 44.9999L29.5667 43.4333L28.0001 39.9999L26.4334 43.4333L23.0001 44.9999L26.4334 46.5666L28.0001 49.9999ZM21.9501 35.6166L19.6667 36.6666L21.9501 37.7166L23.0001 39.9999L24.0501 37.7166L26.3334 36.6666L24.0501 35.6166L23.0001 33.3333L21.9501 35.6166ZM34.6667 34.9999C34.6667 29.8499 36.9667 25.0999 40.4001 21.6666H34.6667V18.3333H46.3334V29.9999H43.0001V23.7999C40.0001 26.6999 38.0001 30.7999 38.0001 34.9999C38.0001 40.5333 41.5001 45.5999 46.3334 48.0333V51.6666C39.5167 49.0166 34.6667 42.2499 34.6667 34.9999Z" fill="white"/>
</svg>
