<svg width="592" height="488" viewBox="0 0 592 488" fill="none" xmlns="http://www.w3.org/2000/svg">
<path d="M0 366.231L24.149 451.903C24.149 451.903 27.8501 470.257 40.8345 473.685L205.292 474.413C205.292 474.413 224.222 471.046 224.586 451.994L199.71 367.293C199.71 367.293 196.009 347.331 176.259 347.331H9.67812C9.67812 347.331 -0.121319 353.004 0.0303668 366.231H0Z" fill="#7DE7B4"/>
<path d="M238.147 458.881H290.6C290.6 458.881 292.117 453.906 293.331 452.298C294.544 450.72 296.394 446.139 292.784 442.014C289.174 437.888 287.779 437.433 278.102 436.796C268.424 436.159 253.286 437.342 250.98 438.737C248.675 440.133 244.791 441.68 242.758 447.323C240.726 452.965 238.147 458.881 238.147 458.881Z" fill="white"/>
<path d="M588.329 91.9526H288.022V319.906H588.329V91.9526Z" fill="white"/>
<path d="M557.689 118.466H431.941V275.006H557.689V118.466Z" fill="#FF6B6C"/>
<path d="M470.196 126.81C470.196 126.81 477.781 123.048 480.602 123.715C483.423 124.352 489.916 126.081 495.801 129.54C501.656 133.029 509.695 134.303 516.642 132.119C523.589 129.934 530.537 139.49 530.537 141.25C530.537 143.009 532.236 159.695 527.807 167.977C527.807 167.977 531.508 169.282 532.994 172.801C535.27 178.14 534.48 186.574 523.438 187.878C523.438 187.878 521.708 220.855 524.196 221.825C526.714 222.796 562.543 229.895 562.543 240.786V270.092H438.463L438.039 257.684C438.039 257.684 438.039 251.131 440.981 248.886L443.196 244.063C443.196 244.063 462.855 221.219 488.095 222.493L487.215 211.875C487.215 211.875 469.559 212.512 468.012 199.133C466.464 185.755 471.289 199.922 472.32 154.234C472.32 154.234 459.639 154.022 462.794 136.123C463.431 132.573 470.136 126.81 470.136 126.81H470.196Z" fill="white"/>
<path d="M592 66.1948H291.692V96.8355H592V66.1948Z" fill="#000B33"/>
<path d="M373.057 369.993C363.835 341.203 344.631 318.511 337.259 306.861C329.887 295.242 288.204 250.191 242.971 251.951C242.971 251.951 240.453 275.826 223.798 276.585C207.142 277.343 206.384 258.049 206.384 258.049C206.384 258.049 178.353 255.834 142.525 287.172C106.727 318.511 101.933 337.562 101.933 337.562L187.545 338.23C187.545 338.23 203.259 335.864 210.176 358.556C217.063 381.248 235.235 446.23 235.235 446.23C235.235 446.23 234.537 457.364 231.898 458.911H238.117C238.117 458.911 243.153 441.043 249.615 439.526C256.076 438.009 267.089 436.431 274.461 436.795C281.833 437.159 292.724 437.766 294.574 445.715C296.425 453.633 289.963 453.147 290.6 458.942H312.837C312.837 458.942 318.996 461.884 317.327 465.282C317.327 465.282 343.235 464.25 358.131 445.381C373.026 426.511 382.249 398.844 373.027 370.054L373.057 369.993ZM315.476 380.702C309.197 397.782 287.233 406.398 287.233 406.398L302.523 336.046C302.523 336.046 322.697 360.953 315.476 380.702Z" fill="#000B33"/>
<path d="M476.263 366.563C476.263 366.563 481.239 361.133 476.719 347.572C472.199 334.011 477.174 319.51 494.345 317.72C511.546 315.9 520.132 332.191 517.856 343.052C515.581 353.913 514.701 357.068 517.856 367.473C521.011 377.879 519.221 407.276 489.369 406.366C462.551 405.546 465.858 377.849 476.263 366.563Z" fill="white"/>
<path d="M515.459 298.974C515.459 305.83 511.819 311.412 507.329 311.412C502.839 311.412 499.198 305.83 499.198 298.974C499.198 292.117 502.839 286.535 507.329 286.535C511.819 286.535 515.459 292.117 515.459 298.974Z" fill="white"/>
<path d="M481.178 433.458C457.697 432.76 454.36 428.392 454.36 428.392V430.667C449.779 430.242 430.181 429.817 429.726 452.449C429.211 478.054 454.36 479.237 454.36 479.237V482.452C454.36 482.452 458.638 486.245 482.028 486.245C505.418 486.245 507.936 482.028 507.936 482.028V428.422C507.936 428.422 504.659 434.156 481.148 433.488L481.178 433.458ZM437.948 450.083C439.131 437.766 454.026 439.04 454.026 439.04L454.36 436.886V470.773C447.746 469.013 436.764 462.399 437.948 450.113V450.083Z" fill="#000B33"/>
<path d="M507.966 427.996C507.966 431.03 495.983 433.457 481.178 433.457C466.374 433.457 454.39 431 454.39 427.996C454.39 424.993 466.374 422.536 481.178 422.536C495.983 422.536 507.966 424.993 507.966 427.996Z" fill="white"/>
<path d="M122.896 407.063C124.868 413.738 121.895 420.503 116.282 422.141C110.67 423.81 104.511 419.744 102.54 413.07C100.568 406.396 103.541 399.631 109.154 397.993C114.766 396.324 120.924 400.389 122.896 407.063Z" fill="white"/>
<path opacity="0.2" d="M170.647 190.244L215.667 179.019C215.667 179.019 213.756 165.094 215.152 162.546L231.716 182.75C231.716 182.75 238.36 178.746 245.185 190.426C245.185 190.426 249.099 199.375 243.729 205.867C243.729 205.867 249.948 213.057 244.943 225.131C239.937 237.205 239.361 237.569 239.361 237.569C239.361 237.569 260.961 228.529 263.024 220.095C263.024 220.095 256.562 195.886 255.591 183.721C254.62 171.556 255.045 164.245 255.045 164.245C255.045 164.245 249.706 144.131 228.197 141.916C200.348 139.034 178.626 149.956 178.626 149.956C178.626 149.956 160.605 158.39 170.708 190.244H170.647Z" fill="#000B33"/>
<path d="M164.974 192.49L215.667 179.05C215.667 179.05 213.21 166.855 214.333 165.823L226.316 187.484C226.316 187.484 230.35 182.418 233.718 182.205C237.055 181.993 243.941 183.995 245.883 192.884C247.824 201.773 244.093 207.416 235.599 208.69C235.599 208.69 240.786 214.484 237.54 225.223C234.294 235.963 231.321 241.333 231.321 241.333L237.874 238.845L243.001 251.981C243.001 251.981 240.271 271.821 227.256 276.129C214.242 280.407 208.234 266.816 206.414 258.109L203.897 244.943C203.897 244.943 186.058 248.795 177.655 232.868C169.464 217.366 165.035 192.55 165.035 192.55L164.974 192.49Z" fill="white"/>
<path opacity="0.2" d="M182.691 239.694L181.963 238.602L179.111 246.368L186.756 242.697L182.691 239.694Z" fill="#000B33"/>
<path d="M278.86 458.88H283.35V449.566C283.35 449.566 278.223 453.814 278.86 458.88Z" fill="#000B33"/>
<path d="M203.199 31.49L195.948 0L275.644 24.2394L215.637 75.6912L206.02 38.9529L271.336 24.8158L203.199 31.49Z" fill="#FFC145"/>
<path d="M209.175 50.5122L191.367 52.7875L203.199 31.4909L273.551 24.2402L206.02 38.9538L209.175 50.5122Z" fill="#FFC145"/>
<path d="M539.062 75.1441C539.062 77.2374 537.363 78.9059 535.3 78.9059C533.237 78.9059 531.538 77.207 531.538 75.1441C531.538 73.0812 533.237 71.3823 535.3 71.3823C537.363 71.3823 539.062 73.0812 539.062 75.1441Z" fill="white"/>
<path d="M553.775 75.1441C553.775 77.2374 552.076 78.9059 550.013 78.9059C547.95 78.9059 546.251 77.207 546.251 75.1441C546.251 73.0812 547.95 71.3823 550.013 71.3823C552.076 71.3823 553.775 73.0812 553.775 75.1441Z" fill="white"/>
<path d="M567.761 75.1441C567.761 77.2374 566.062 78.9059 563.999 78.9059C561.936 78.9059 560.237 77.207 560.237 75.1441C560.237 73.0812 561.936 71.3823 563.999 71.3823C566.062 71.3823 567.761 73.0812 567.761 75.1441Z" fill="white"/>
<path d="M74.448 248.976C73.2952 248.248 73.2953 247.611 73.72 247.187L83.1855 237.721C83.5799 237.297 84.2473 237.297 84.672 237.721C85.0664 238.116 85.0664 238.783 84.672 239.208L75.2065 248.703C74.9941 248.916 74.7211 249.007 74.4784 249.007L74.448 248.976Z" fill="#000B33"/>
<path d="M83.9136 248.977C83.1855 248.674 73.6896 239.179 73.6896 239.179C73.2952 238.784 73.2952 238.117 73.6896 237.692C74.084 237.267 74.7514 237.267 75.1761 237.692L84.6416 247.157C85.036 247.552 85.036 248.219 84.6416 248.644C84.4293 248.856 84.1563 248.947 83.9136 248.947V248.977Z" fill="#000B33"/>
<path d="M65.8627 231.776C63.3447 231.776 61.2817 229.713 61.2817 227.195C61.2817 224.677 63.3447 222.614 65.8627 222.614C68.3807 222.614 70.4436 224.677 70.4436 227.195C70.4436 229.713 68.3807 231.776 65.8627 231.776ZM65.8627 224.677C64.4975 224.677 63.3748 225.799 63.3748 227.164C63.3748 228.53 64.4975 229.652 65.8627 229.652C67.2279 229.652 68.3498 228.53 68.3498 227.164C68.3498 225.799 67.2279 224.677 65.8627 224.677Z" fill="#000B33"/>
<path d="M558.903 374.967C556.84 374.967 555.14 373.268 555.14 371.205C555.14 369.142 556.84 367.474 558.903 367.474C560.966 367.474 562.664 369.142 562.664 371.205C562.664 373.268 560.966 374.967 558.903 374.967ZM558.903 369.567C557.993 369.567 557.234 370.325 557.234 371.235C557.234 372.146 557.993 372.904 558.903 372.904C559.813 372.904 560.571 372.146 560.571 371.235C560.571 370.325 559.813 369.567 558.903 369.567Z" fill="#000B33"/>
<path d="M191.094 53.6968C190.093 53.3025 189.911 52.6654 190.184 52.1497L201.682 30.9743C202.501 30.4283 275.583 23.1777 275.583 23.1777C276.068 23.0866 276.676 23.5417 276.736 24.1181C276.797 24.6945 276.372 25.2102 275.796 25.2709L203.259 32.4912L192.034 53.1812C191.852 53.5452 191.488 53.7272 191.124 53.7272L191.094 53.6968Z" fill="#000B33"/>
<path d="M191.367 53.8491C190.245 52.848 190.305 52.3626 190.639 52.0289L205.444 38.0738C205.869 37.6794 206.536 37.6794 206.93 38.1344C207.325 38.5591 207.294 39.2266 206.87 39.621L194.401 51.3615L209.024 49.5109C209.6 49.4502 210.115 49.8446 210.206 50.421C210.267 50.9974 209.872 51.5131 209.296 51.6041L191.489 53.8794C191.489 53.8794 191.397 53.8794 191.367 53.8794V53.8491Z" fill="#000B33"/>
<path d="M203.199 32.5526C202.714 32.5526 202.289 32.2189 202.168 31.7335L194.947 0.243548C196.282 -1.00028 276.585 23.2392 276.585 23.2392C277.07 23.3909 277.374 23.8459 277.313 24.3313C277.252 24.8167 276.858 25.211 276.372 25.2717L203.29 32.5223C203.29 32.5223 203.23 32.5223 203.199 32.5223V32.5526ZM197.374 1.54802L203.987 30.3683L270.911 23.7245L197.374 1.54802Z" fill="#000B33"/>
<path d="M215.637 76.7541C214.636 75.9654 205.171 39.1056 205.171 39.1056C205.959 37.8314 276.038 23.209 276.038 23.209C276.523 23.1179 276.979 23.3607 277.191 23.7854C277.403 24.2101 277.282 24.7258 276.918 25.0292L216.304 76.481C216.122 76.6327 215.88 76.7238 215.637 76.7238V76.7541ZM207.476 39.6517L216.243 73.8417L272.458 26.1213L207.476 39.6517Z" fill="#000B33"/>
<path d="M34.0694 323.242C31.9155 321.392 29.7609 318.904 27.3339 315.627C27.0002 315.172 27.0914 314.505 27.5465 314.171C28.0015 313.807 28.6689 313.928 29.0026 314.384C31.3992 317.599 33.4923 320.057 34.8575 321.513C35.2518 321.938 35.2222 322.605 34.7975 322.999C34.5851 323.181 34.3417 323.272 34.099 323.272L34.0694 323.242ZM22.9351 308.316C20.3868 305.161 18.8395 302.4 17.4439 299.609C17.1709 299.094 17.3837 298.457 17.8994 298.214C18.4152 297.941 19.0521 298.153 19.2948 298.669C20.6903 301.399 22.2072 304.099 23.815 306.708C24.1184 307.194 23.9664 307.831 23.481 308.164C23.299 308.255 23.1172 308.316 22.9351 308.316ZM14.5013 291.722C12.3474 288.172 11.3164 285.199 10.4063 282.196C10.2242 281.65 10.5579 281.043 11.1039 280.891C11.65 280.709 12.2262 281.043 12.4082 281.589C13.288 284.501 14.3195 287.444 15.4723 290.265C15.6847 290.812 15.4422 291.418 14.8961 291.631C14.7747 291.691 14.6227 291.691 14.5013 291.691V291.722ZM9.07085 273.914C8.58546 273.914 8.16121 273.58 8.03986 273.095C7.40278 270.031 6.91742 266.906 6.55337 263.812C6.4927 263.235 6.88723 262.719 7.46364 262.659C8.00971 262.598 8.55542 263.023 8.61609 263.569C8.9498 266.602 9.43514 269.667 10.0722 272.67C10.1936 273.246 9.82946 273.793 9.25306 273.914C9.19238 273.914 9.1019 273.914 9.04123 273.914H9.07085ZM6.97777 255.438C6.40136 255.438 5.94678 254.983 5.94678 254.407C5.94678 253.709 5.94678 252.981 5.94678 252.253C5.94678 249.856 6.03729 247.429 6.18897 245.002C6.21931 244.426 6.64438 244.092 7.3118 244.032C7.88821 244.062 8.31314 244.578 8.2828 245.154C8.13111 247.52 8.03986 249.917 8.03986 252.253C8.03986 252.951 8.03986 253.649 8.03986 254.377C8.03986 254.953 7.58454 255.438 7.00813 255.438H6.97777ZM8.25243 236.902C7.52434 236.811 7.12969 236.265 7.2207 235.689C7.7061 232.625 8.34276 229.531 9.07085 226.466C9.22254 225.92 9.76911 225.587 10.3455 225.708C10.9219 225.86 11.2556 226.406 11.1039 226.982C10.3759 229.986 9.73848 233.019 9.28342 236.023C9.19241 236.538 8.76816 236.902 8.25243 236.902ZM12.6512 218.821C11.7714 218.579 11.4678 218.002 11.6498 217.456C12.6206 214.514 13.7129 211.571 14.8961 208.659C15.1085 208.112 15.7151 207.87 16.2611 208.082C16.8072 208.295 17.0497 208.901 16.8373 209.447C15.6542 212.299 14.5922 215.211 13.6214 218.093C13.4697 218.518 13.0759 218.821 12.6208 218.821H12.6512ZM19.7192 201.62C18.7484 201.256 18.5366 200.65 18.7793 200.103C19.8715 197.859 21.0544 195.583 22.2982 193.338C22.5712 192.823 22.8747 192.307 23.1781 191.791C23.4815 191.306 24.1184 191.124 24.6038 191.427C25.0892 191.73 25.2716 192.367 24.9682 192.853C24.6649 193.338 24.3917 193.824 24.1187 194.339C22.8749 196.554 21.7216 198.799 20.6295 201.014C20.4475 201.378 20.0832 201.59 19.6889 201.59L19.7192 201.62ZM106.666 191.973C105.483 190.76 105.756 190.153 106.302 189.941C108.274 189.182 110.155 187.878 111.914 186.027C112.369 185.572 112.763 185.087 113.158 184.632C113.522 184.177 114.189 184.116 114.644 184.51C115.099 184.874 115.16 185.542 114.796 185.997C114.371 186.482 113.947 186.998 113.462 187.483C111.49 189.577 109.335 191.063 107.06 191.912C106.939 191.973 106.818 191.973 106.696 191.973H106.666ZM97.5649 191.973C94.4705 190.942 91.7097 189.182 89.0703 186.725C88.6456 186.33 88.6152 185.663 89.0096 185.238C89.404 184.813 90.0714 184.783 90.4961 185.178C92.9534 187.453 95.4409 189.03 97.9286 189.91C98.4746 190.092 98.7475 190.699 98.5655 191.245C98.4138 191.67 98.02 191.943 97.5953 191.943L97.5649 191.973ZM29.5188 185.875C28.3963 185.238 28.3356 184.601 28.73 184.146C30.7626 181.78 33.0074 179.535 35.4344 177.472C35.8895 177.108 36.5265 177.169 36.9209 177.593C37.285 178.018 37.2242 178.685 36.7994 179.08C34.4635 181.052 32.2788 183.236 30.3069 185.511C30.0945 185.754 29.8222 185.875 29.5188 185.875ZM83.7613 179.929C81.1827 176.986 79.6049 174.195 78.2094 171.253C77.9667 170.737 78.2099 170.1 78.6953 169.857C79.211 169.615 79.8479 169.827 80.0906 170.343C81.4558 173.194 82.9726 175.864 84.6109 178.291C84.9446 178.776 84.823 179.413 84.3376 179.747C84.1555 179.868 83.9434 179.929 83.7613 179.929ZM117.891 178.079C117.223 178.018 116.798 177.502 116.859 176.956C116.889 173.801 115.798 171.556 113.674 169.584C113.249 169.19 113.219 168.522 113.613 168.098C114.008 167.703 114.675 167.673 115.1 168.037C117.679 170.434 118.983 173.194 118.983 176.228C118.892 177.684 118.437 178.079 117.891 178.079ZM43.6557 173.862C42.4725 172.891 42.6244 172.224 43.1098 171.92C45.7188 170.282 48.5401 168.795 51.4222 167.461C51.9379 167.218 52.5749 167.461 52.8176 167.976C53.0603 168.492 52.8171 169.129 52.3013 169.372C49.48 170.646 46.7499 172.102 44.2015 173.68C44.0195 173.801 43.8377 173.832 43.6557 173.832V173.862ZM60.5537 166.156C60.0986 166.156 59.704 165.883 59.5523 165.428C59.3703 164.882 59.6736 164.275 60.2197 164.124C63.1927 163.183 66.2568 162.394 69.3512 161.757C69.9276 161.636 70.4734 162 70.5947 162.576C70.7161 163.153 70.352 163.699 69.7756 163.82C66.7722 164.427 63.769 165.216 60.887 166.126C60.796 166.156 60.675 166.187 60.5537 166.187V166.156ZM106.362 165.216C103.389 164.184 100.416 163.456 97.1701 162.91C96.5937 162.819 96.1992 162.273 96.2902 161.727C96.3812 161.15 96.9277 160.817 97.4738 160.847C100.841 161.393 103.966 162.182 106.696 163.183C107.242 163.365 107.515 163.972 107.303 164.518C107.151 164.943 106.757 165.216 106.332 165.216H106.362ZM75.6919 163.183C75.2368 163.183 74.8422 162.91 74.6905 162.485C73.7197 159.543 72.9005 156.479 72.2331 153.384C72.1117 152.838 72.4758 152.262 73.0522 152.14C73.6286 152.019 74.1744 152.383 74.2958 152.96C74.9329 155.963 75.7217 158.966 76.6622 161.818C76.8442 162.364 76.5409 162.971 75.9948 163.153C75.8735 163.183 75.7829 163.214 75.6615 163.214L75.6919 163.183ZM78.756 162.455C78.2099 162.455 77.7546 162.061 77.7243 161.515C77.6636 160.938 78.0885 160.422 78.6649 160.392C81.82 160.089 85.0049 159.967 88.0993 160.058C88.6757 160.058 89.131 160.544 89.1007 161.12C89.1007 161.697 88.615 162.03 88.0386 162.121C85.0656 162.061 81.9407 162.182 78.8464 162.455C78.816 162.455 78.7863 162.455 78.756 162.455ZM71.8694 144.981C71.3233 144.981 70.868 144.586 70.8377 144.04C70.595 141.401 70.474 138.731 70.474 136.122C70.474 135.607 70.474 135.121 70.474 134.605C70.474 134.029 70.9589 133.574 71.505 133.574C72.1117 133.574 72.5671 134.059 72.5367 134.636C72.5367 135.121 72.5367 135.607 72.5367 136.092C72.5367 138.64 72.6577 141.249 72.9004 143.828C72.9611 144.404 72.5369 144.92 71.9605 144.951C71.9302 144.951 71.8997 144.951 71.8694 144.951V144.981ZM72.2331 126.384C71.505 126.293 71.1111 125.777 71.2021 125.201C71.6268 122.046 72.2635 118.952 73.0826 115.948C73.2343 115.402 73.8104 115.068 74.3565 115.22C74.9026 115.372 75.2363 115.948 75.0846 116.494C74.2958 119.407 73.6895 122.44 73.2648 125.474C73.2041 125.99 72.7488 126.384 72.2331 126.384ZM77.1177 108.455C76.1772 108.151 75.9343 107.545 76.1467 106.999C77.3602 104.086 78.8161 101.265 80.4239 98.565C80.7273 98.0796 81.365 97.8974 81.8504 98.2008C82.3358 98.5042 82.5175 99.1414 82.2141 99.6268C80.6669 102.236 79.2711 104.966 78.0879 107.787C77.9362 108.182 77.5424 108.425 77.1177 108.425V108.455ZM86.6128 92.4976C85.5207 91.9212 85.4296 91.2839 85.7937 90.7985C87.7049 88.3109 89.7679 85.884 91.8915 83.639C92.2859 83.2143 92.9533 83.1841 93.378 83.5785C93.8027 83.9728 93.8331 84.6402 93.4387 85.0649C91.3758 87.2796 89.3736 89.6459 87.4927 92.0728C87.2804 92.3459 86.977 92.4672 86.6736 92.4672L86.6128 92.4976ZM99.3239 78.9368C98.1408 78.148 98.2015 77.4807 98.6262 77.1166C100.962 75.0537 103.45 73.0818 105.999 71.2616C106.454 70.9279 107.121 71.0187 107.455 71.5041C107.789 71.9592 107.697 72.6267 107.212 72.9604C104.724 74.7503 102.298 76.6614 100.022 78.694C99.81 78.8761 99.5666 78.9671 99.3239 78.9671V78.9368ZM114.433 68.076C113.249 67.0446 113.401 66.4076 113.916 66.1346C116.616 64.5874 119.407 63.131 122.259 61.7962C122.775 61.5535 123.412 61.7963 123.654 62.3121C123.897 62.8278 123.655 63.4648 123.139 63.7075C120.348 64.9816 117.587 66.4075 114.978 67.9547C114.827 68.0457 114.645 68.1064 114.463 68.1064L114.433 68.076ZM131.33 60.2793C130.147 59.0355 130.45 58.4288 130.966 58.2468C133.879 57.2153 136.912 56.3052 139.946 55.5165C140.492 55.3648 141.068 55.6985 141.22 56.2749C141.371 56.821 141.038 57.3974 140.461 57.5491C137.458 58.3379 134.485 59.248 131.633 60.2492C131.512 60.2795 131.39 60.3097 131.269 60.3097L131.33 60.2793ZM149.32 55.6075C148.835 55.6075 148.38 55.2434 148.289 54.7277C148.198 54.1513 148.562 53.6356 149.138 53.5142C152.202 52.9681 155.327 52.5738 158.452 52.3007C159.028 52.1794 159.544 52.6648 159.574 53.2412C159.635 53.8176 159.21 54.3333 158.633 54.3636C155.569 54.6367 152.505 55.0614 149.471 55.5771C149.411 55.5771 149.351 55.5771 149.29 55.5771L149.32 55.6075ZM177.17 54.3334C177.018 54.3334 173.863 53.939 168.736 53.939C167.28 53.939 166.824 53.4839 166.824 52.9075C166.824 52.3311 167.279 51.8457 167.856 51.8457C174.045 51.8457 177.17 52.2401 177.321 52.2401C177.898 52.3008 178.292 52.8468 178.231 53.4232C178.17 53.9389 177.716 54.3334 177.2 54.3334H177.17Z" fill="#000B33"/>
<path d="M454.36 471.803C453.966 471.743 437.887 467.981 436.916 452.327C436.643 447.928 437.827 444.439 440.405 441.982C445.441 437.158 453.996 438.008 454.36 438.068C454.936 438.129 455.361 438.645 455.27 439.221C455.21 439.798 454.694 440.222 454.118 440.162C454.027 440.162 446.169 439.373 441.831 443.529C439.707 445.562 438.767 448.474 438.98 452.236C439.829 466.282 453.966 469.619 454.542 469.771C455.119 469.892 455.452 470.468 455.331 471.014C455.21 471.5 454.785 471.834 454.299 471.834L454.36 471.803Z" fill="#000B33"/>
<path d="M453.784 480.267C453.42 480.237 426.935 477.325 428.695 452.357C429.241 444.621 431.911 438.736 436.644 434.822C444.076 428.694 453.754 429.756 454.148 429.816C454.725 429.877 455.119 430.393 455.058 430.969C454.997 431.546 454.451 431.94 453.905 431.879C453.814 431.879 444.653 430.878 437.948 436.43C433.701 439.949 431.274 445.349 430.788 452.478C429.15 475.444 452.874 478.053 453.875 478.144C454.451 478.204 454.876 478.72 454.816 479.296C454.755 479.843 454.3 480.237 453.784 480.237V480.267Z" fill="#000B33"/>
<path d="M481.33 487.305C478.478 487.305 453.359 487.154 453.359 482.027C453.359 481.45 453.844 480.995 454.421 480.995C454.997 480.995 455.483 481.45 455.483 482.027C456.272 483.24 465.949 485.212 481.361 485.212C497.894 485.212 506.328 483.028 506.965 481.905C506.965 481.329 507.42 480.935 507.997 480.935C508.573 480.935 509.028 481.481 509.028 482.057C509.028 487.184 484.182 487.336 481.361 487.336L481.33 487.305Z" fill="#000B33"/>
<path d="M483.332 402.605C482.877 402.605 482.422 402.605 481.967 402.605C469.256 402.211 464.007 396.052 461.853 390.925C457.667 381.005 461.762 367.96 468.103 361.043C468.133 361.013 472.563 355.795 468.346 343.084C465.676 335.044 466.283 327.096 470.075 321.241C473.534 315.901 479.327 312.655 486.881 311.867C487.791 311.776 488.702 311.715 489.582 311.715C496.286 311.715 502.293 314.567 506.51 319.724C510.818 325.033 512.79 332.374 511.546 338.442L511.242 339.837C509.24 349.424 508.573 352.67 511.515 362.378C513.427 368.688 513.761 382.37 506.48 392.199C501.322 399.147 493.556 402.666 483.332 402.666V402.605ZM489.582 313.778C488.763 313.778 487.943 313.808 487.094 313.899C480.177 314.627 474.898 317.54 471.834 322.333C468.406 327.642 467.86 334.953 470.348 342.386C475.02 356.371 469.893 362.196 469.68 362.408C463.916 368.688 460.033 381.035 463.826 390.045C466.586 396.568 472.866 400.178 482.058 400.451C492.251 400.815 499.866 397.508 504.811 390.865C511.273 382.128 511.455 369.264 509.513 362.894C506.419 352.67 507.177 349.06 509.21 339.322L509.483 337.926C510.636 332.435 508.816 325.791 504.872 320.937C502.202 317.631 497.348 313.717 489.582 313.717V313.778Z" fill="#000B33"/>
<path d="M507.329 308.043C502.263 308.043 498.137 302.006 498.137 294.543C498.137 287.08 502.263 281.073 507.329 281.073C512.396 281.073 516.521 287.11 516.521 294.543C516.521 301.976 512.396 308.043 507.329 308.043ZM507.329 283.167C503.416 283.167 500.23 288.263 500.23 294.573C500.23 300.883 503.416 305.98 507.329 305.98C511.243 305.98 514.428 300.853 514.428 294.573C514.428 288.294 511.243 283.167 507.329 283.167Z" fill="#000B33"/>
<path d="M507.966 483.058C507.39 483.058 506.904 482.603 506.904 482.027V428.421C506.904 427.845 507.359 427.39 507.966 427.39C508.573 427.39 508.997 427.845 508.997 428.421V482.027C508.997 482.603 508.512 483.058 507.966 483.058Z" fill="#000B33"/>
<path d="M454.36 483.483C453.784 483.483 453.299 483.028 453.299 482.452V427.966C453.299 427.39 453.753 426.935 454.36 426.935C454.967 426.935 455.392 427.39 455.392 427.966V482.452C455.392 483.028 454.906 483.483 454.36 483.483Z" fill="#000B33"/>
<path d="M481.178 434.519C470.833 434.519 453.329 433.245 453.329 428.421C453.329 423.597 470.833 422.323 481.178 422.323C491.523 422.323 509.027 423.597 509.027 428.421C509.027 433.245 491.523 434.519 481.178 434.519ZM481.178 424.417C464.887 424.417 455.756 427.026 455.422 428.451C455.756 429.817 464.887 432.456 481.178 432.456C497.469 432.456 506.601 429.847 506.934 428.421C506.601 427.026 497.469 424.417 481.178 424.417Z" fill="#000B33"/>
<path d="M467.92 316.022H361.377C360.8 316.022 360.345 315.567 360.345 314.99C360.345 314.414 360.8 313.959 361.377 313.959H467.92C468.497 313.959 468.983 314.414 468.983 314.99C468.983 315.567 468.497 316.022 467.92 316.022Z" fill="#000B33"/>
<path d="M581.564 316.021H517.765C517.188 316.021 516.703 315.566 516.703 314.99C516.703 314.414 517.188 313.959 517.765 313.959H580.502V60.6432H282.287V248.794C282.287 249.371 281.833 249.856 281.226 249.856C280.619 249.856 280.194 249.401 280.194 248.794V59.6116C280.194 59.0352 280.649 58.5801 281.226 58.5801H581.533C582.11 58.5801 582.564 59.0352 582.564 59.6116V314.99C582.564 315.566 582.11 316.021 581.533 316.021H581.564Z" fill="#000B33"/>
<path d="M581.564 88.0379H281.256C280.68 88.0379 280.225 87.5828 280.225 87.0064V59.5817C280.225 59.0052 280.71 58.5503 281.256 58.5503H581.564C582.14 58.5503 582.595 59.0052 582.595 59.5817V87.0064C582.595 87.5828 582.14 88.0379 581.564 88.0379ZM282.287 85.9447H580.502V60.6132H282.287V85.9447Z" fill="#000B33"/>
<path d="M562.664 269.15H438.191C437.614 269.15 437.159 268.695 437.159 268.119V113.521C437.159 112.944 437.645 112.489 438.191 112.489H562.664C563.241 112.489 563.726 112.944 563.726 113.521V268.119C563.726 268.695 563.271 269.15 562.664 269.15ZM439.222 267.057H561.602V114.522H439.222V267.057Z" fill="#000B33"/>
<path d="M487.337 221.521C486.76 221.521 486.305 221.066 486.305 220.49V211.54C486.305 210.964 486.76 210.509 487.337 210.509C487.913 210.509 488.398 210.964 488.398 211.54V220.49C488.398 221.066 487.943 221.521 487.367 221.521H487.337Z" fill="#000B33"/>
<path d="M486.426 212.603C481.876 212.603 476.992 211.815 473.018 209.266C464.372 203.745 466.616 193.885 468.224 186.665C468.618 184.966 468.983 183.358 469.134 182.054C469.893 175.531 471.197 149.168 471.227 148.895C471.227 148.319 471.744 147.894 472.32 147.894C472.896 147.894 473.351 148.41 473.321 148.986C473.26 150.078 471.986 175.683 471.227 182.266C471.076 183.662 470.681 185.33 470.287 187.09C468.709 194.037 466.768 202.713 474.14 207.446C483.635 213.544 499.593 208.477 499.745 208.417C500.291 208.235 500.867 208.538 501.049 209.084C501.231 209.63 500.928 210.237 500.382 210.389C499.957 210.54 493.616 212.543 486.396 212.543L486.426 212.603Z" fill="#000B33"/>
<path d="M514.822 173.103C514.094 173.012 513.699 172.466 513.79 171.92C514.943 164.093 510.818 155.143 509.574 152.686C505.721 153.354 488.732 155.811 472.229 149.956C471.682 149.774 471.41 149.167 471.592 148.621C471.774 148.075 472.38 147.802 472.926 147.984C490.764 154.324 509.755 150.532 509.937 150.502C510.392 150.411 510.848 150.623 511.06 151.018C511.303 151.473 517.309 162.394 515.853 172.254C515.792 172.769 515.338 173.133 514.822 173.133V173.103Z" fill="#000B33"/>
<path d="M527.807 169.008C526.958 168.795 526.624 168.219 526.806 167.642C526.866 167.4 533.874 144.708 527.321 137.366C522.589 132.057 520.071 132.633 515.52 133.665C513.761 134.059 511.789 134.514 509.362 134.696C504.356 135.182 499.866 132.603 495.134 129.964C488.793 126.384 482.21 122.683 473.807 126.111C465.464 129.509 462.916 136.85 463.28 142.099C463.674 147.802 467.102 152.14 472.199 153.445C472.745 153.596 473.109 154.173 472.957 154.719C472.806 155.265 472.26 155.629 471.683 155.477C465.646 153.93 461.641 148.864 461.186 142.25C460.64 134.423 465.312 127.324 473.018 124.169C482.362 120.377 489.673 124.503 496.134 128.144C500.594 130.631 504.781 132.997 509.149 132.633C511.455 132.451 513.366 131.996 515.034 131.632C519.828 130.54 523.286 129.782 528.868 136.001C536.18 144.192 529.081 167.309 528.777 168.28C528.626 168.735 528.232 169.008 527.777 169.008H527.807Z" fill="#000B33"/>
<path d="M507.299 163.881C506.54 163.578 504.447 161.606 502.111 160.999C501.534 160.847 501.201 160.301 501.352 159.725C501.504 159.179 502.081 158.845 502.627 158.966C505.509 159.694 507.906 161.97 508.027 162.061C508.452 162.455 508.452 163.123 508.057 163.547C507.845 163.76 507.572 163.881 507.299 163.881Z" fill="#000B33"/>
<path d="M476.415 163.213C475.293 162.576 475.262 161.909 475.626 161.484C477.386 159.512 480.753 158.996 480.905 158.966C481.451 158.905 481.998 159.269 482.089 159.846C482.18 160.422 481.785 160.938 481.209 161.029C480.45 161.15 478.205 161.696 477.174 162.879C476.961 163.122 476.688 163.244 476.385 163.244L476.415 163.213Z" fill="#000B33"/>
<path d="M481.694 187.786C480.632 186.543 480.086 179.626 484.394 167.582C484.576 167.036 485.183 166.763 485.729 166.945C486.275 167.127 486.548 167.734 486.366 168.28C483.302 176.865 482.786 182.781 482.725 185.299L486.457 184.085C487.003 183.903 487.609 184.207 487.791 184.753C487.973 185.299 487.67 185.906 487.124 186.088L482.058 187.756C482.058 187.756 481.845 187.817 481.724 187.817L481.694 187.786Z" fill="#000B33"/>
<path d="M523.62 188.666C521.435 188.666 519.312 188.029 517.461 186.846C516.976 186.543 516.824 185.876 517.158 185.39C517.462 184.905 518.129 184.783 518.614 185.087C520.101 186.058 521.83 186.573 523.62 186.573C528.716 186.573 532.842 182.417 532.842 177.351C532.842 172.284 528.716 168.128 523.62 168.128C520.04 168.128 516.763 170.221 515.247 173.498C515.004 174.044 514.397 174.256 513.851 174.014C513.335 173.771 513.093 173.134 513.336 172.618C515.186 168.614 519.221 166.065 523.62 166.065C529.869 166.065 534.935 171.132 534.935 177.381C534.935 183.631 529.869 188.697 523.62 188.697V188.666Z" fill="#000B33"/>
<path d="M501.959 232.322C486.639 232.322 486.305 220.612 486.305 220.491C486.305 219.914 486.76 219.429 487.337 219.429C487.943 219.459 488.398 219.884 488.398 220.46C488.398 220.855 488.763 230.199 501.929 230.229C516.612 230.229 521.405 222.432 522.133 221.067V187.636C522.133 187.059 522.589 186.604 523.195 186.604C523.802 186.604 524.226 187.059 524.226 187.636V221.31C523.923 222.19 519.13 232.322 501.99 232.322H501.959Z" fill="#000B33"/>
<path d="M477.204 172.8C476.536 172.77 476.051 172.193 476.081 171.556L476.263 168.219C476.293 167.552 476.87 167.066 477.507 167.097C478.175 167.127 478.66 167.703 478.629 168.34L478.448 171.678C478.417 172.345 477.841 172.83 477.204 172.8Z" fill="#000B33"/>
<path d="M497.196 173.62C496.559 173.59 496.043 173.013 496.073 172.376L496.255 169.039C496.286 168.402 496.862 167.886 497.499 167.917C498.136 167.947 498.652 168.523 498.622 169.161L498.44 172.498C498.409 173.165 497.833 173.651 497.196 173.62Z" fill="#000B33"/>
<path d="M488.065 197.07C487.519 196.918 481.057 192.822 481.057 192.822C480.572 192.519 480.42 191.852 480.724 191.366C481.027 190.881 481.694 190.729 482.18 191.033L487.792 194.582L493.07 187.544C493.435 187.089 494.072 186.998 494.527 187.331C494.982 187.695 495.073 188.333 494.739 188.788L488.884 196.615C488.672 196.888 488.368 197.039 488.035 197.039L488.065 197.07Z" fill="#000B33"/>
<path d="M438.191 254.074C437.28 253.801 437.007 253.194 437.22 252.679C447.413 225.406 485.607 220.491 487.215 220.279C487.761 220.218 488.308 220.612 488.368 221.189C488.429 221.765 488.034 222.281 487.458 222.372C487.064 222.402 448.929 227.317 439.161 253.407C439.009 253.831 438.615 254.074 438.191 254.074Z" fill="#000B33"/>
<path d="M562.664 239.421C547.01 225.375 523.256 222.402 523.014 222.371C522.437 222.311 522.043 221.765 522.103 221.219C522.164 220.642 522.71 220.248 523.257 220.308C524.258 220.43 547.921 223.403 563.362 237.631C563.787 238.025 563.817 238.693 563.423 239.117C563.211 239.33 562.938 239.451 562.664 239.451V239.421Z" fill="#000B33"/>
<path d="M404.88 132.967H340.899C339.413 132.967 338.229 131.754 338.229 130.298V110.215C338.229 108.728 339.443 107.545 340.899 107.545H404.88C406.367 107.545 407.55 108.758 407.55 110.215V130.298C407.55 131.784 406.337 132.967 404.88 132.967ZM340.899 109.608C340.323 110.215 340.323 130.267 340.323 130.267C340.899 130.874 404.88 130.874 404.88 130.874C405.457 130.267 405.457 110.215 405.457 110.215C404.88 109.608 340.899 109.608 340.899 109.608Z" fill="#000B33"/>
<path d="M383.158 121.348H346.693C346.238 121.348 345.844 120.984 345.844 120.498C345.844 120.013 346.208 119.649 346.693 119.649H383.158C383.613 119.649 384.008 120.013 384.008 120.498C384.008 120.984 383.644 121.348 383.158 121.348Z" fill="#000B33"/>
<path d="M389.742 115.19H346.693C346.238 115.19 345.844 114.825 345.844 114.34C345.844 113.855 346.208 113.491 346.693 113.491H389.742C390.197 113.491 390.591 113.855 390.591 114.34C390.591 114.825 390.227 115.19 389.742 115.19Z" fill="#000B33"/>
<path d="M376.03 127.871H346.693C346.238 127.871 345.844 127.507 345.844 127.021C345.844 126.536 346.208 126.172 346.693 126.172H376.03C376.485 126.172 376.879 126.536 376.879 127.021C376.879 127.507 376.515 127.871 376.03 127.871Z" fill="#000B33"/>
<path d="M404.88 212.056H340.899C339.413 212.056 338.229 210.873 338.229 209.386V189.303C338.229 187.816 339.443 186.633 340.899 186.633H404.88C406.367 186.633 407.55 187.847 407.55 189.303V209.386C407.55 210.873 406.337 212.056 404.88 212.056ZM340.899 188.727C340.323 189.303 340.323 209.386 340.323 209.386C340.899 209.963 404.88 209.963 404.88 209.963C405.457 209.386 405.457 189.303 405.457 189.303C404.88 188.727 340.899 188.727 340.899 188.727Z" fill="#000B33"/>
<path d="M383.158 199.981H346.693C346.238 199.981 345.844 199.617 345.844 199.132C345.844 198.646 346.208 198.282 346.693 198.282H383.158C383.613 198.282 384.008 198.646 384.008 199.132C384.008 199.617 383.644 199.981 383.158 199.981Z" fill="#000B33"/>
<path d="M389.742 193.823H346.693C346.238 193.823 345.844 193.459 345.844 192.974C345.844 192.489 346.208 192.125 346.693 192.125H389.742C390.197 192.125 390.591 192.489 390.591 192.974C390.591 193.459 390.227 193.823 389.742 193.823Z" fill="#000B33"/>
<path d="M376.03 206.505H346.693C346.238 206.505 345.844 206.141 345.844 205.656C345.844 205.17 346.208 204.806 346.693 204.806H376.03C376.485 204.806 376.879 205.17 376.879 205.656C376.879 206.141 376.515 206.505 376.03 206.505Z" fill="#000B33"/>
<path d="M365.199 172.406H301.218C299.731 172.406 298.548 171.192 298.548 169.736V149.653C298.548 148.167 299.761 146.983 301.218 146.983H365.199C366.686 146.983 367.868 148.197 367.868 149.653V169.736C367.868 171.223 366.655 172.406 365.199 172.406ZM301.218 149.077C300.641 149.653 300.641 169.736 300.641 169.736C301.218 170.313 365.199 170.313 365.199 170.313C365.775 169.736 365.775 149.653 365.775 149.653C365.199 149.077 301.218 149.077 301.218 149.077Z" fill="#000B33"/>
<path d="M343.387 160.331H306.922C306.466 160.331 306.072 159.967 306.072 159.481C306.072 158.996 306.436 158.632 306.922 158.632H343.387C343.842 158.632 344.236 158.996 344.236 159.481C344.236 159.967 343.872 160.331 343.387 160.331Z" fill="#000B33"/>
<path d="M349.97 154.203H306.922C306.466 154.203 306.072 153.839 306.072 153.353C306.072 152.868 306.436 152.504 306.922 152.504H349.97C350.425 152.504 350.819 152.868 350.819 153.353C350.819 153.839 350.455 154.203 349.97 154.203Z" fill="#000B33"/>
<path d="M336.288 166.854H306.952C306.497 166.854 306.102 166.49 306.102 166.004C306.102 165.519 306.466 165.155 306.952 165.155H336.288C336.743 165.155 337.137 165.519 337.137 166.004C337.137 166.49 336.773 166.854 336.288 166.854Z" fill="#000B33"/>
<path d="M404.88 290.903H340.899C339.413 290.903 338.229 289.69 338.229 288.233V268.15C338.229 266.664 339.443 265.48 340.899 265.48H404.88C406.367 265.48 407.55 266.694 407.55 268.15V288.233C407.55 289.72 406.337 290.903 404.88 290.903ZM340.899 267.543C340.323 268.15 340.323 288.203 340.323 288.203C340.899 288.779 404.88 288.779 404.88 288.779C405.457 288.203 405.457 268.12 405.457 268.12C404.88 267.543 340.899 267.543 340.899 267.543Z" fill="#000B33"/>
<path d="M383.158 278.828H346.693C346.238 278.828 345.844 278.464 345.844 277.979C345.844 277.493 346.208 277.129 346.693 277.129H383.158C383.613 277.129 384.008 277.493 384.008 277.979C384.008 278.464 383.644 278.828 383.158 278.828Z" fill="#000B33"/>
<path d="M389.742 272.7H346.693C346.238 272.7 345.844 272.336 345.844 271.851C345.844 271.365 346.208 271.001 346.693 271.001H389.742C390.197 271.001 390.591 271.365 390.591 271.851C390.591 272.336 390.227 272.7 389.742 272.7Z" fill="#000B33"/>
<path d="M376.03 285.351H346.693C346.238 285.351 345.844 284.987 345.844 284.501C345.844 284.016 346.208 283.652 346.693 283.652H376.03C376.485 283.652 376.879 284.016 376.879 284.501C376.879 284.987 376.515 285.351 376.03 285.351Z" fill="#000B33"/>
<path d="M365.199 251.253H301.218C299.731 251.253 298.548 250.039 298.548 248.583V228.5C298.548 227.013 299.761 225.83 301.218 225.83H365.199C366.686 225.83 367.868 227.044 367.868 228.5V248.583C367.868 250.069 366.655 251.253 365.199 251.253ZM301.218 227.923C300.641 228.5 300.641 248.583 300.641 248.583C301.218 249.159 365.199 249.159 365.199 249.159C365.775 248.583 365.775 228.5 365.775 228.5C365.199 227.923 301.218 227.923 301.218 227.923Z" fill="#000B33"/>
<path d="M343.387 239.209H306.922C306.466 239.209 306.072 238.845 306.072 238.36C306.072 237.874 306.436 237.51 306.922 237.51H343.387C343.842 237.51 344.236 237.874 344.236 238.36C344.236 238.845 343.872 239.209 343.387 239.209Z" fill="#000B33"/>
<path d="M349.97 233.05H306.922C306.466 233.05 306.072 232.686 306.072 232.201C306.072 231.715 306.436 231.351 306.922 231.351H349.97C350.425 231.351 350.819 231.715 350.819 232.201C350.819 232.686 350.455 233.05 349.97 233.05Z" fill="#000B33"/>
<path d="M336.288 245.731H306.952C306.497 245.731 306.102 245.367 306.102 244.882C306.102 244.396 306.466 244.032 306.952 244.032H336.288C336.743 244.032 337.137 244.396 337.137 244.882C337.137 245.367 336.773 245.731 336.288 245.731Z" fill="#000B33"/>
<path d="M525.956 183.266C525.471 183.145 517.279 178.988 517.279 178.988C517.067 177.259 525.259 169.978 525.259 169.978C525.683 169.584 526.351 169.644 526.745 170.069C527.139 170.494 527.079 171.161 526.654 171.556L519.585 177.835L526.411 181.294C526.927 181.537 527.14 182.174 526.866 182.689C526.684 183.054 526.32 183.266 525.926 183.266H525.956Z" fill="#000B33"/>
<g opacity="0.2">
<path d="M202.258 471.501C201.682 471.501 201.227 471.046 201.196 470.5C201.196 469.954 201.197 469.711 202.228 469.529C202.319 469.438 202.805 469.408 203.836 469.347C204.928 469.256 206.444 469.195 208.598 469.074C210.297 469.074 210.753 469.529 210.753 470.075C210.753 470.651 210.298 471.106 209.721 471.137C202.471 471.501 202.319 471.501 202.258 471.501Z" fill="#000B33"/>
</g>
<path d="M190.154 225.285C187.029 223.889 183.176 220.4 182.994 220.249C183.237 218.55 188.637 215.819 188.637 215.819C188.698 213.605 188.607 205.414 185.482 194.765C185.33 194.219 185.634 193.643 186.18 193.461C186.726 193.309 187.302 193.612 187.484 194.159C191.276 207.022 190.73 216.153 190.7 216.547C190.123 217.427 185.543 219.703 185.543 219.703C186.847 220.825 189.001 222.524 190.578 223.282C191.094 223.525 191.307 224.162 191.064 224.678C190.882 225.042 190.518 225.254 190.124 225.254L190.154 225.285Z" fill="#000B33"/>
<path d="M178.565 209.387C177.716 209.629 176.775 209.144 176.533 208.295L175.228 203.865C174.985 203.016 175.471 202.076 176.35 201.833C177.23 201.59 178.14 202.076 178.383 202.955L179.688 207.385C179.93 208.264 179.445 209.174 178.595 209.417L178.565 209.387Z" fill="#000B33"/>
<path d="M204.806 202.47C203.927 202.713 203.017 202.228 202.774 201.378L201.47 196.949C201.227 196.1 201.712 195.159 202.561 194.916C203.441 194.674 204.352 195.159 204.595 196.039L205.899 200.468C206.142 201.318 205.656 202.258 204.806 202.501V202.47Z" fill="#000B33"/>
<path d="M162.547 194.067C162.092 194.067 161.667 193.764 161.546 193.279C161.394 192.733 161.728 192.156 162.304 192.005L214.454 178.292C213.848 175.531 212.391 168.402 213.362 165.49C215.304 165.369 221.341 175.137 227.257 186.999C227.499 187.515 227.317 188.152 226.771 188.394C226.255 188.637 225.618 188.425 225.375 187.939C221.371 179.93 217.336 172.862 215.122 169.161C215.304 172.407 216.214 176.866 216.699 178.808C216.851 179.354 216.517 179.93 215.941 180.052L162.82 194.037C162.82 194.037 162.638 194.067 162.547 194.067Z" fill="#000B33"/>
<path d="M231.048 242.454C230.047 242.06 229.865 241.423 230.138 240.907C242.364 218.427 235.264 209.751 235.204 209.66C234.84 209.235 234.87 208.568 235.295 208.204C235.72 207.84 236.387 207.87 236.751 208.295C237.085 208.689 244.973 218.003 231.958 241.939C231.776 242.303 231.412 242.485 231.048 242.485V242.454Z" fill="#000B33"/>
<path d="M231.049 242.454C229.865 241.301 230.108 240.664 230.624 240.452C244.306 234.566 263.054 224.343 261.901 220.005C251.769 181.81 253.468 166.065 253.802 163.851C251.132 154.81 245.155 148.53 236.054 145.163C214.363 137.154 179.9 147.772 170.587 153.9C169.859 154.325 154.265 163.638 163.548 192.701C163.73 193.247 163.427 193.824 162.881 194.006C162.335 194.188 161.758 193.884 161.576 193.338C151.747 162.576 169.343 152.231 169.525 152.11C179.02 145.861 214.484 134.939 236.812 143.191C246.642 146.831 253.073 153.657 255.925 163.456C255.925 164.093 253.407 179.474 263.994 219.428C266.027 227.104 237.298 239.875 231.503 242.333C231.382 242.393 231.231 242.424 231.079 242.424L231.049 242.454Z" fill="#000B33"/>
<path d="M174.651 248.917C173.65 248.523 173.468 247.886 173.741 247.37L174.408 246.157C176.532 242.274 177.806 239.907 178.747 236.691C178.898 236.145 179.475 235.812 180.051 235.963C180.597 236.115 180.931 236.691 180.779 237.268C179.778 240.726 178.383 243.305 176.289 247.158L175.622 248.371C175.44 248.735 175.076 248.917 174.712 248.917H174.651Z" fill="#000B33"/>
<path d="M174.651 248.916C174.196 248.916 173.771 248.613 173.65 248.158C173.498 247.612 173.802 247.035 174.348 246.853C174.409 246.853 179.293 245.366 186.27 241.756C186.786 241.483 187.423 241.696 187.666 242.211C187.939 242.727 187.727 243.364 187.211 243.607C180.052 247.308 175.137 248.795 174.924 248.855C174.833 248.855 174.712 248.886 174.621 248.886L174.651 248.916Z" fill="#000B33"/>
<path d="M211.845 471.318H50.7245C35.6166 471.318 29.9131 459.122 26.3333 447.169L19.1734 421.717C19.0217 421.17 19.3251 420.594 19.9015 420.412C20.4476 420.23 21.0238 420.594 21.2058 421.14L28.3657 446.563C33.1893 462.641 39.6818 469.194 50.7549 469.194H211.875C224.162 469.194 234.143 459.244 234.234 446.987L210.328 362.165C205.444 346.511 198.527 339.533 187.939 339.533H26.8185C14.5319 339.533 4.55136 349.484 4.46035 361.74L14.5925 397.75C14.7442 398.296 14.4408 398.873 13.8644 399.055C13.3184 399.237 12.7422 398.903 12.5601 398.327L2.36652 362.165C2.33618 348.392 13.288 337.44 26.7881 337.44H187.909C203.017 337.44 209.054 351.213 212.3 361.588L236.236 446.563C236.266 460.336 225.315 471.288 211.814 471.288L211.845 471.318Z" fill="#000B33"/>
<path d="M204.534 471.319C203.957 471.319 203.502 470.864 203.502 470.287C203.502 469.711 203.988 469.256 204.534 469.256C216.82 469.256 226.801 459.669 226.892 447.838L203.017 365.927C198.133 350.82 191.215 344.085 180.628 344.085H13.0451C12.4687 344.085 12.0142 343.63 12.0142 343.053C12.0142 342.477 12.4991 342.022 13.0451 342.022H180.628C195.736 342.022 201.773 355.34 205.019 365.351L228.955 447.444C228.986 460.762 218.034 471.38 204.564 471.38L204.534 471.319Z" fill="#000B33"/>
<path d="M311.655 471.318H213.24C212.664 471.318 212.209 470.863 212.209 470.287C212.209 469.71 212.664 469.255 213.24 469.255H311.655C314.233 469.255 316.296 467.162 316.296 464.614C316.296 462.065 314.203 459.972 311.655 459.972H231.898C231.322 459.972 230.866 459.517 230.866 458.941C230.866 458.364 231.352 457.909 231.898 457.909H311.655C315.386 457.909 318.389 460.943 318.389 464.644C318.389 468.345 315.356 471.379 311.655 471.379V471.318Z" fill="#000B33"/>
<path d="M238.42 459.912C237.601 459.73 237.267 459.184 237.419 458.607C237.601 457.849 242 440.223 250.798 437.917C259.353 435.672 276.676 434.944 285.109 436.461C287.203 436.825 289.659 438.039 292.026 439.859C296.242 443.075 297.183 449.112 294.119 453.328C292.815 455.118 291.996 457.03 291.692 459.032C291.601 459.608 291.085 459.942 290.509 459.912C289.932 459.821 289.538 459.305 289.629 458.728C289.994 456.393 290.934 454.148 292.42 452.115C294.817 448.839 294.089 444.106 290.752 441.558C288.689 439.98 286.474 438.888 284.745 438.554C276.675 437.098 259.474 437.857 251.313 439.98C243.729 441.952 239.482 458.971 239.452 459.153C239.33 459.639 238.905 459.942 238.45 459.942L238.42 459.912Z" fill="#000B33"/>
<path d="M208.144 213.3C204.169 213.3 200.468 211.753 197.647 208.962C194.856 206.171 193.309 202.44 193.309 198.466C193.309 190.305 199.953 183.661 208.113 183.661C212.087 183.661 215.788 185.208 218.61 187.999C221.401 190.79 222.948 194.522 222.948 198.466C222.948 206.626 216.304 213.27 208.144 213.27V213.3ZM208.144 185.754C201.105 185.754 195.402 191.458 195.402 198.466C195.402 201.863 196.707 205.049 199.134 207.476C201.53 209.872 204.716 211.207 208.144 211.207C215.152 211.207 220.885 205.504 220.885 198.496C220.885 195.098 219.581 191.913 217.154 189.486C214.757 187.089 211.572 185.754 208.174 185.754H208.144Z" fill="#000B33"/>
<path d="M174.227 220.764C166.036 220.764 159.392 214.09 159.422 205.929C159.422 197.768 166.066 191.125 174.227 191.125C182.418 191.125 189.031 197.768 189.031 205.959C189.031 214.12 182.388 220.764 174.227 220.764ZM174.227 193.218C167.189 193.218 161.485 198.921 161.485 205.929C161.485 212.937 167.189 218.671 174.197 218.671C181.204 218.671 186.938 212.967 186.938 205.959C186.938 198.952 181.235 193.218 174.227 193.218Z" fill="#000B33"/>
<path d="M187.939 203.927C187.15 203.775 186.786 203.229 186.907 202.653C187.059 201.955 187.696 200.59 189.092 199.861C190.578 199.073 192.49 199.194 194.765 200.165C195.311 200.377 195.554 201.014 195.311 201.53C195.098 202.076 194.462 202.319 193.946 202.076C192.308 201.378 190.942 201.227 190.063 201.682C189.183 202.137 188.94 203.017 188.94 203.077C188.818 203.563 188.394 203.866 187.909 203.866L187.939 203.927Z" fill="#000B33"/>
<path d="M317.358 466.252C316.812 466.252 316.356 465.827 316.326 465.281C316.265 464.704 316.721 464.189 317.297 464.158C332.89 462.914 345.602 456.968 356.159 445.956C378.548 422.566 379.67 383.431 367.869 359.07C313.353 246.793 243.79 252.83 243.092 252.951C242.577 253.012 242.152 252.708 242 252.284L237.207 239.147C237.025 238.601 237.298 237.995 237.814 237.813C238.36 237.6 238.966 237.904 239.148 238.419L243.669 250.827C251.738 250.524 317.722 251.1 369.72 358.16C381.855 383.158 380.671 423.355 357.646 447.412C346.876 458.637 333.345 464.977 317.449 466.252H317.358Z" fill="#000B33"/>
<path d="M153.841 339.564C153.204 339.534 152.748 339.018 152.809 338.472C153.901 320.876 161.334 300.915 161.395 300.733C161.577 300.186 162.183 299.913 162.729 300.126C163.275 300.338 163.548 300.945 163.336 301.461C163.275 301.643 155.933 321.332 154.872 338.593C154.841 339.14 154.387 339.564 153.841 339.564Z" fill="#000B33"/>
<path d="M245.034 444.743C244.518 444.743 244.094 444.379 244.003 443.863C240.999 425.57 256.926 418.502 275.34 410.28C285.867 405.608 296.729 400.754 305.466 393.322C311.897 387.831 315.355 381.005 315.719 373.056C316.72 350.455 292.663 325.609 292.421 325.366C292.026 324.942 292.026 324.274 292.421 323.88C292.845 323.485 293.482 323.485 293.907 323.88C294.938 324.911 318.844 349.606 317.782 373.117C317.388 381.672 313.687 388.983 306.8 394.899C297.851 402.544 286.838 407.428 276.19 412.161C258.564 420.018 243.335 426.783 246.065 443.499C246.156 444.076 245.762 444.591 245.216 444.682C245.155 444.682 245.094 444.682 245.034 444.682V444.743Z" fill="#000B33"/>
<path d="M286.686 407.428C285.897 407.276 285.534 406.73 285.655 406.153L301.491 335.802C301.612 335.255 302.158 334.861 302.735 335.013C303.311 335.134 303.645 335.711 303.523 336.257L287.688 406.609C287.566 407.094 287.141 407.428 286.656 407.428H286.686Z" fill="#000B33"/>
<path d="M283.35 459.912C282.774 459.912 282.288 459.457 282.288 458.881V451.873C281.135 453.541 280.225 456.272 279.861 458.062C279.739 458.638 279.194 459.002 278.617 458.881C278.041 458.759 277.677 458.213 277.798 457.637C277.95 456.848 279.436 450.022 282.925 448.596C284.381 449.567 284.381 458.881 284.381 458.881C284.381 459.457 283.926 459.912 283.32 459.912H283.35Z" fill="#000B33"/>
<path d="M109.093 417.895C103.693 417.895 98.687 413.709 96.9275 407.702C94.8039 400.481 98.08 393.14 104.238 391.32C105.179 391.047 106.119 390.895 107.09 390.895C112.49 390.895 117.496 395.082 119.255 401.088C121.379 408.309 118.103 415.65 111.944 417.47C111.004 417.743 110.063 417.895 109.062 417.895H109.093ZM107.09 392.988C106.332 392.988 105.543 393.079 104.815 393.322C99.7484 394.808 97.1092 400.997 98.8991 407.125C100.416 412.252 104.603 415.832 109.062 415.832C109.821 415.832 110.61 415.711 111.338 415.498C116.404 414.012 119.043 407.823 117.253 401.695C115.736 396.568 111.55 392.988 107.09 392.988Z" fill="#000B33"/>
<path d="M207.112 233.839C206.839 233.808 196.13 230.987 196.13 230.987C195.584 230.835 195.25 230.259 195.372 229.713C195.523 229.167 196.099 228.803 196.645 228.955L206.414 231.533L210.267 220.521C210.449 219.975 211.055 219.702 211.602 219.884C212.148 220.066 212.421 220.673 212.239 221.219L208.052 233.141C207.901 233.566 207.506 233.839 207.051 233.839H207.112Z" fill="#000B33"/>
<path d="M198.072 246.187C179.96 246.187 174.864 230.654 172.983 224.921C172.801 224.405 172.68 223.95 172.528 223.586C170.738 218.732 164.306 193.825 164.033 192.794C163.882 192.248 164.215 191.671 164.792 191.519C165.338 191.368 165.914 191.701 166.066 192.278C166.339 193.34 172.74 218.095 174.5 222.888C174.651 223.252 174.803 223.737 174.985 224.284C177.291 231.291 183.388 249.919 209.296 242.334C209.873 242.152 210.419 242.486 210.601 243.062C210.753 243.608 210.45 244.185 209.904 244.367C205.444 245.671 201.53 246.217 198.102 246.217L198.072 246.187Z" fill="#000B33"/>
<path d="M101.933 338.594C100.902 338.139 100.75 337.502 101.023 337.016C144.769 262.842 196.252 257.381 205.08 257.017L202.653 245.428C202.531 244.882 202.895 244.306 203.472 244.184C204.048 244.063 204.595 244.427 204.716 245.003L207.385 257.806C205.686 259.019 149.927 258.2 102.844 338.078C102.662 338.412 102.297 338.594 101.933 338.594Z" fill="#000B33"/>
<path d="M234.871 209.69C234.294 209.69 233.839 209.235 233.839 208.689C233.839 208.112 234.264 207.627 234.84 207.597C238.936 207.445 241.909 206.019 243.668 203.38C245.974 199.921 245.701 195.007 244.457 191.7C243.486 189.152 239.725 181.021 231.959 183.812C227.347 185.45 227.347 191.245 227.347 191.305C227.347 191.882 226.892 192.367 226.316 192.367C225.739 192.367 225.253 191.912 225.253 191.336C225.253 191.032 225.254 183.994 231.261 181.84C238.845 179.14 244.063 184.783 246.399 190.972C247.734 194.521 248.28 200.194 245.398 204.563C243.911 206.808 240.878 209.508 234.901 209.72H234.871V209.69Z" fill="#000B33"/>
<path d="M240.089 201.469L230.897 200.438C230.047 199.012 234.689 186.968 234.689 186.968C234.901 186.422 235.508 186.149 236.024 186.361C236.57 186.573 236.843 187.18 236.63 187.726L232.474 198.526L240.18 199.406C240.757 199.467 241.151 199.983 241.09 200.559C241.03 201.105 240.574 201.469 240.059 201.469H240.089Z" fill="#000B33"/>
<path d="M223.433 277.616C207.597 277.616 205.322 258.352 205.292 258.17C205.231 257.593 205.656 257.077 206.233 257.017C206.809 256.926 207.324 257.381 207.385 257.957C207.476 258.685 209.478 275.553 223.433 275.553C238.056 275.31 241.848 252.041 241.879 251.799C241.97 251.222 242.515 250.889 243.062 250.919C243.638 251.01 244.032 251.556 243.941 252.102C243.79 253.134 239.845 277.343 223.767 277.616C223.645 277.616 223.524 277.616 223.433 277.616Z" fill="#000B33"/>
<path d="M585.053 471.319H507.936C507.359 471.319 506.874 470.864 506.874 470.288C506.874 469.711 507.329 469.256 507.936 469.256H585.053C585.629 469.256 586.084 469.711 586.084 470.288C586.084 470.864 585.629 471.319 585.053 471.319Z" fill="#000B33"/>
<path d="M435.308 471.319H311.927C311.351 471.319 310.896 470.864 310.896 470.288C310.896 469.711 311.351 469.256 311.927 469.256H435.308C435.884 469.256 436.34 469.711 436.34 470.288C436.34 470.864 435.884 471.319 435.308 471.319Z" fill="#000B33"/>
</svg>
