<svg width="560" height="320" viewBox="0 0 560 320" fill="none" xmlns="http://www.w3.org/2000/svg">
<path d="M490.007 122.357C490.007 122.357 488.258 128.717 490.243 129.757C490.243 129.757 492.726 132.665 492.513 134.603C492.3 136.542 492.253 139.213 490.03 140.112C487.785 141.01 485.302 142.476 482.56 140.892L483.198 146.235L484.357 163.138L495.137 171.341L490.101 198.245L484.049 220.917C484.049 220.917 476.177 231.2 475.846 231.579C475.515 231.933 466.909 236.496 466.909 236.496C466.909 236.496 451.378 219.025 450.739 218.009C450.101 217.016 445.633 203.99 445.633 203.54C445.633 203.091 452.252 171.2 452.252 171.2L459.747 164.746C459.747 164.746 461.685 163.469 461.945 161.98C462.205 160.514 461.945 154.273 461.945 154.273C461.945 154.273 458.092 154.485 455.822 151.696C453.529 148.906 453.576 140.986 453.576 140.986L454.073 120.679L461.283 120.608L466.389 118.906L470.385 116.4L471.567 115.383L474.735 113.468L483.529 115.383L490.078 122.334L490.007 122.357Z" fill="white"/>
<path d="M462.371 154.32C462.371 154.32 475.563 154.934 478.423 151.672C481.284 148.409 480.48 140.466 479.983 138.409C479.511 136.353 479.416 132.121 479.416 132.121C479.416 132.121 482.868 125.596 489.038 128.504C489.038 128.504 490.858 121.577 489.511 115.785C488.163 109.993 484.003 105.548 476.178 108.054C475.61 107.818 470.646 104.768 463.837 105.241C457.028 105.714 449.983 113.634 450.031 120.773C450.031 120.773 453.435 129.284 453.387 129.071C453.34 128.858 453.648 120.655 453.648 120.655C453.648 120.655 457.95 121.672 462.347 120.419C466.745 119.166 472.182 114.863 472.182 114.863C472.182 114.863 472.749 124.083 477.69 127.747C477.69 127.747 477.147 129.449 477.099 129.804C477.052 130.159 476.769 137.204 475.09 137.795C473.412 138.362 467.951 137.062 465.634 138.433C463.341 139.804 462.986 140.963 461.402 140.537C459.818 140.112 458.352 139.781 456.626 139.639C454.901 139.497 453.553 140.608 453.553 140.608C453.553 140.608 452.229 155.053 462.3 154.391L462.371 154.32Z" fill="#FF6B6C"/>
<path d="M411.306 188.456C411.306 188.456 428.895 170.276 452.228 170.796L459.037 204.319L460.999 200.868L466.863 229L471.023 233.161L486.579 196.92L488.092 197.558L493.695 170.229C493.695 170.229 507.336 170.844 517.052 174.815C526.769 178.763 533.294 185.808 540.646 206.636C547.998 227.44 555.682 248.126 558.377 255.266C561.072 262.405 561.521 286.803 546.84 294.959C532.135 303.115 526.721 297.607 526.721 297.607V318.434H432.489L411.283 188.48L411.306 188.456Z" fill="#000B33"/>
<path d="M48.3936 121.529V204.32C48.3936 204.32 67.1407 190.23 94.9189 181.932C122.673 173.634 134.494 173.114 134.494 173.114V90.583C134.494 90.583 113.17 92.8289 89.1979 101.221C65.226 109.59 48.3936 121.529 48.3936 121.529Z" fill="white"/>
<path d="M190.618 208.174C190.618 208.174 171.776 206.117 160.83 195.077L147.922 222.926C147.922 222.926 144.068 204.746 143.075 200.349C142.083 195.928 141.941 187.205 117.945 187.346H99.0089C99.0089 187.346 76.4316 186.495 68.7246 199.191C61.0413 211.886 60.7106 218.316 60.7106 218.316L41.8215 292.856L36.5732 318.412H154.211L152.934 282.88C152.934 282.88 162.556 283.802 169.743 274.085C176.906 264.369 181.776 252.714 183.856 246.141C185.913 239.593 190.405 222.902 190.405 222.902L190.618 208.15V208.174Z" fill="#000B33"/>
<path d="M390.147 144.272L387.736 136.092L383.835 131.789L380.005 130.513H255.583L252.202 131.529L248.089 135.643L246.812 139.449L247.781 144.272L269.106 221.341L270.713 224.958L273.456 227.535L276.387 229.001L354.071 228.741L403.741 199.568L390.147 144.272Z" fill="white"/>
<path d="M380.005 142.333L377.736 139.567L374.616 138.621H261.257L258.325 140.158L257.238 143.515L277.404 216.187L279.461 218.929L283.527 220.844H359.319C359.319 220.844 398.564 191.766 398.564 191.435C398.564 191.104 379.982 142.333 379.982 142.333H380.005Z" fill="white"/>
<path d="M380.147 196.589C380.147 196.589 367.996 198.953 362.7 209.545C357.405 220.136 351.636 233.469 349.556 237.252C347.476 241.058 339.627 242.335 337.381 238.599C335.112 234.864 322.676 196.046 322.676 196.046C322.676 196.046 318.657 191.317 304.354 192.168C290.028 193.02 288.113 201.317 288.113 201.317C288.113 201.317 292.699 230.845 297.309 242.666C301.919 254.486 310.69 280.184 336.317 280.113C336.317 280.113 347.31 280.633 351.353 278.836C351.353 278.836 349.319 312.265 346.955 318.388H432.512C432.512 318.388 431.424 288.718 431.472 279.711C431.519 270.704 432.867 255.172 432.015 245.833C431.188 236.519 432.015 228.954 432.015 228.954L395.278 192.783L380.171 196.542L380.147 196.589Z" fill="#FF6B6C"/>
<path d="M348.634 80.8909C350.005 80.8909 351.092 79.7798 351.092 78.4322C351.092 77.0847 349.982 75.9736 348.634 75.9736C347.287 75.9736 346.175 77.0847 346.175 78.4322C346.175 79.7798 347.287 80.8909 348.634 80.8909Z" fill="#000B33"/>
<path d="M367.783 81.0329C369.225 81.0329 370.384 79.8746 370.384 78.4325C370.384 76.9904 369.225 75.832 367.783 75.832C366.341 75.832 365.183 76.9904 365.183 78.4325C365.183 79.8746 366.341 81.0329 367.783 81.0329Z" fill="#000B33"/>
<path d="M386.933 80.8194C388.257 80.8194 389.32 79.7555 389.32 78.408C389.32 77.0605 388.257 75.9966 386.933 75.9966C385.609 75.9966 384.521 77.0841 384.521 78.408C384.521 79.7319 385.609 80.8194 386.933 80.8194Z" fill="#000B33"/>
<path d="M348.634 100.182C350.076 100.182 351.234 99.0235 351.234 97.5814C351.234 96.1393 350.076 94.981 348.634 94.981C347.192 94.981 346.033 96.1393 346.033 97.5814C346.033 99.0235 347.192 100.182 348.634 100.182Z" fill="#000B33"/>
<path d="M367.783 100.3C369.296 100.3 370.502 99.0703 370.502 97.5809C370.502 96.0915 369.296 94.8623 367.783 94.8623C366.27 94.8623 365.065 96.0679 365.065 97.5809C365.065 99.094 366.27 100.3 367.783 100.3Z" fill="#000B33"/>
<path d="M386.933 100.111C388.327 100.111 389.462 98.976 389.462 97.5812C389.462 96.1864 388.327 95.0518 386.933 95.0518C385.538 95.0518 384.403 96.1864 384.403 97.5812C384.403 98.976 385.538 100.111 386.933 100.111Z" fill="#000B33"/>
<path d="M348.634 119.142C349.966 119.142 351.045 118.062 351.045 116.73C351.045 115.399 349.966 114.319 348.634 114.319C347.303 114.319 346.223 115.399 346.223 116.73C346.223 118.062 347.303 119.142 348.634 119.142Z" fill="#000B33"/>
<path d="M367.783 119.26C369.18 119.26 370.313 118.128 370.313 116.731C370.313 115.334 369.18 114.201 367.783 114.201C366.386 114.201 365.253 115.334 365.253 116.731C365.253 118.128 366.386 119.26 367.783 119.26Z" fill="#000B33"/>
<path d="M386.932 119.094C388.233 119.094 389.297 118.03 389.297 116.73C389.297 115.43 388.233 114.366 386.932 114.366C385.632 114.366 384.568 115.43 384.568 116.73C384.568 118.03 385.632 119.094 386.932 119.094Z" fill="#000B33"/>
<path d="M317.64 192.688L320.406 183.515C320.406 183.515 322.652 177.463 319.508 176.447C316.364 175.43 314.472 178.953 313.881 180.82C313.29 182.712 312.557 185.856 308.728 184.248C308.728 184.248 306.623 182.759 305.087 176.258C303.55 169.756 299.839 161.482 299.839 161.482C299.839 161.482 298.302 157.321 295.3 158.432C292.297 159.543 293.006 163.184 293.905 165.95C294.827 168.692 297.167 176.234 297.167 176.234C297.167 176.234 292.321 175.808 292.037 179.875C292.037 179.875 287.9 181.151 287.664 184.201C287.427 187.251 288.798 192.759 289.626 194.461C290.453 196.163 291.163 197.369 291.163 197.369C291.163 197.369 295.843 193.09 302.699 192.286C309.555 191.482 317.64 192.641 317.64 192.641V192.688Z" fill="white"/>
<path d="M99.6709 187.322L99.4816 171.411C99.4816 171.411 94.5643 172.972 92.3656 166.825C90.167 160.678 100.498 159.567 101.539 160.087C101.539 160.087 108.063 157.014 110.758 155.383C115.77 152.286 119.671 143.633 119.671 143.633L122.721 147.959L125.416 163.87C125.416 163.87 126.338 174.437 123.927 176.967C121.515 179.497 118.371 180.064 116.882 179.875L117.449 187.322C117.449 187.322 119.34 193.421 119.624 194.461C119.907 195.502 121.326 200.466 116.834 201.837C112.343 203.185 108.584 200.419 106.338 197.747C104.116 195.076 99.6946 187.298 99.6946 187.298L99.6709 187.322Z" fill="white"/>
<path d="M165.842 198.788L169.648 192.334C169.648 192.334 171.847 180.75 172.769 179.875C173.691 179.024 174.707 176.518 179.695 176.636C179.695 176.636 180.641 176.093 180.76 175.904C180.878 175.714 189.79 165.691 189.79 165.691C189.79 165.691 191.776 164.911 193.313 166.163C194.849 167.416 194.424 169.899 193.644 171.27C192.84 172.665 188.325 178.67 188.325 178.67C188.325 178.67 192.911 178.717 193.384 180.774L191.492 182.76L190.901 200.939C190.901 200.939 186.433 206.377 184.211 206.779C184.211 206.779 169.79 202.618 165.866 198.765L165.842 198.788Z" fill="white"/>
<path d="M122.366 147.866C122.366 147.866 124.021 142.121 119.387 136.66C114.754 131.199 100.215 136.471 100.215 136.471C100.215 136.471 102.295 130.088 99.2219 125.028C96.1722 119.969 89.5051 118.031 83.5239 121.033C77.5191 124.036 75.2969 131.79 76.479 137.109C77.661 142.428 81.3253 145.643 84.706 145.785C84.706 145.785 83.0514 152.334 84.99 159.922C86.9522 167.511 91.7274 173.492 99.5289 174.036V171.412C99.5289 171.412 93.6426 172.287 92.7206 167.299C91.7986 162.287 95.7698 160.135 96.9045 159.922C98.0393 159.71 100.758 160.112 100.758 160.112C100.758 160.112 104.375 159.213 107.661 157.393C110.947 155.573 114.588 151.955 115.534 150.679C116.48 149.426 119.766 143.918 119.766 143.918C119.766 143.918 122.082 146.353 122.39 147.866H122.366Z" fill="#FF6B6C"/>
<path d="M372.866 156.258C372.866 156.258 371.944 147.487 375.679 143.941C375.679 143.941 382.629 141.695 388.658 144.579C388.658 144.579 397.239 143.113 400.313 143.468C403.386 143.823 410.549 148.409 411.495 154.366C412.464 160.324 412.039 165.478 411.07 169.284C410.1 173.09 408.327 179.048 408.965 182.736C409.603 186.424 412.11 191.034 417.784 193.469C423.458 195.927 428.635 200.088 430.739 203.327C432.843 206.566 437.098 214.367 437.5 220.301C437.902 226.235 435.703 235.786 430.36 238.954C425.017 242.098 417.641 244.226 409.036 240.751C400.431 237.252 398.681 232.831 398.492 229.923C398.303 227.039 401.07 212.665 400.573 209.521C400.077 206.377 397.003 202.452 391.896 201.838C386.79 201.223 378.989 199.426 377.57 192.665C376.152 185.927 375.632 182.357 375.632 182.357L372.842 156.281L372.866 156.258Z" fill="white"/>
<path d="M381.637 165.525C381.637 165.525 384.379 164.343 387.216 165.454C390.053 166.566 391.472 170.726 390.408 173.232C389.344 175.738 386.554 177.819 382.914 176.968C382.914 176.968 376.483 181.27 376.129 185.928C375.774 186.4 370.313 185.975 368.918 182.358C367.523 178.741 367.547 176.353 367.901 174.58C368.28 172.783 368.493 170.537 368.493 170.537L366.412 170.112L365.585 168.622L368.871 157.677L369.982 156.613L371.968 157.582L372.535 156.684C372.535 156.684 376.672 164.698 381.613 165.525H381.637Z" fill="white"/>
<path d="M191.492 182.783L189.223 266.969C189.223 266.969 221.682 247.181 226.434 218.67V137.203C226.434 137.203 228.916 125.903 221.753 114.484C214.589 103.066 198.041 96.5879 198.041 96.5879L197.686 177.866L191.516 182.783H191.492Z" fill="white"/>
<path d="M135.558 208.788L134.494 291.697C134.494 291.697 102.626 300.894 76.0773 299.073C49.5048 297.277 31.4194 290.634 21.5847 281.012C11.7737 271.39 10.9699 260.397 10.9699 260.397L10.7806 174.485C10.7806 174.485 8.60576 197.535 38.0624 208.812C67.5191 220.089 100.522 215.763 103.548 215.455C109.316 214.864 135.558 208.812 135.558 208.812V208.788Z" fill="white"/>
<path d="M106.976 252.783C106.976 252.783 145.842 249.332 157.568 241.459V270.136C157.568 270.136 136.716 280.018 106.976 281.413V252.783Z" fill="#FF6B6C"/>
<path d="M165.842 198.787L168.111 194.934C168.111 194.934 161.657 193.303 161.066 194.556C160.452 195.809 165.842 198.764 165.842 198.764V198.787Z" fill="#000B33"/>
<path d="M190.618 201.293C190.618 201.293 186.433 206.447 184.707 206.801C184.707 206.801 188.844 207.984 190.618 207.913V201.27V201.293Z" fill="#000B33"/>
<path d="M522.111 252.832L536.604 218.387L486.626 196.944L455.633 269.12L505.161 290.728L506.532 289.168C506.532 289.168 488.234 278.127 483.931 272.69C479.652 267.253 474.475 263.186 474.475 263.186C474.475 263.186 477.218 255.338 483.411 247.465C489.629 239.593 493.057 236.401 493.057 236.401L522.088 252.832H522.111Z" fill="white"/>
<path d="M480.101 192.664C479.841 192.854 477.69 199.213 477.69 199.213L479.345 213.35L470.692 232.901L466.863 229.001L465.515 222.499L469.038 199.78L465.775 192.073L472.796 179.638L480.078 192.664H480.101Z" fill="#FF6B6C"/>
<path d="M468.234 148.953C468.234 148.953 467.998 145.879 469.747 144.414C471.496 142.948 472.82 142.688 472.82 142.688C472.82 142.688 472.158 141.08 470.787 141.175C469.392 141.269 469.534 143.705 467.714 144.177C465.893 144.65 464.688 143.326 463.317 144.13C461.969 144.957 461.449 145.123 462.111 146.234C462.749 147.345 464.049 148.953 465.941 149.095C467.832 149.237 468.257 148.953 468.257 148.953H468.234Z" fill="#000B33"/>
<path d="M275.772 117.439C307.957 117.439 334.047 91.3485 334.047 59.1641C334.047 26.9797 307.957 0.88916 275.772 0.88916C243.588 0.88916 217.497 26.9797 217.497 59.1641C217.497 91.3485 243.588 117.439 275.772 117.439Z" fill="#FF6B6C"/>
<path d="M257.12 60.3222C254.708 57.9108 250.808 57.9108 248.396 60.3222L246.009 62.7098C243.597 65.1212 243.597 69.022 246.009 71.4333L263.385 88.8096C265.796 91.2209 269.697 91.2209 272.108 88.8096L307.878 53.9154C310.289 51.5041 310.289 47.6033 307.878 45.1919L305.49 42.8041C303.078 40.3928 299.177 40.3928 296.766 42.8041L267.735 70.9606L257.096 60.3222H257.12Z" fill="white"/>
<path d="M48.7245 158.314V183.043L34.9653 189.733V164.981L48.7245 158.314Z" fill="#FF6B6C"/>
<path d="M197.71 104.579V125.525C197.71 125.525 189.79 121.6 182.391 120.537C174.991 119.496 169.554 119.094 169.554 119.094V98.1486C169.554 98.1486 178.159 97.9594 186.008 100.347C193.857 102.759 197.71 104.579 197.71 104.579Z" fill="#000B33"/>
<path d="M198.017 96.564L197.663 177.842C197.663 177.842 210.287 169.047 216.575 159.047C222.864 149.047 226.055 140.182 226.41 137.179C226.764 134.177 227.616 122.806 222.722 116.162C217.829 109.496 215.771 105.264 198.017 96.564Z" fill="#FF6B6C"/>
<path d="M388.162 242.524C388.162 242.524 379.651 275.101 351.069 288.837L351.353 278.884C351.353 278.884 363.929 274.723 371.873 267.631C383.528 257.252 388.185 242.548 388.185 242.548L388.162 242.524Z" fill="#000B33"/>
<path d="M471.874 244.344C471.874 244.344 468.824 244.864 465.751 245.455L460.999 256.519C460.999 256.519 478.281 277.465 495.137 286.377L505.137 290.727L506.508 289.167C506.508 289.167 488.21 278.127 483.908 272.689C479.629 267.252 474.451 263.186 474.451 263.186C474.451 263.186 475.988 258.788 479.345 253.304L471.874 244.367V244.344Z" fill="#B5B5B5"/>
<path d="M491.331 237.749C491.331 237.749 489.274 232.949 488.683 231.082C488.116 229.214 486.886 223.658 484.262 223.942C481.614 224.226 480.621 226.803 481.331 229.451C482.04 232.098 484.333 238.174 481.685 238.741C479.037 239.309 474.829 236.567 471.874 233.942C468.895 231.318 461.472 225.503 461.472 225.503C461.472 225.503 459.108 226.401 458.541 227.677C457.974 228.954 459.014 230.703 459.014 230.703C459.014 230.703 457.075 230.089 456.035 231.389C454.971 232.689 454.545 234.912 455.231 235.692C455.231 235.692 451.685 238.198 453.978 241.366C456.271 244.533 459.557 248.907 463.694 252.335C467.832 255.763 470.716 258.742 475.822 259.971C475.822 259.971 480.148 251.484 482.347 248.411C484.569 245.337 491.354 237.772 491.354 237.772L491.331 237.749Z" fill="white"/>
<path d="M260.098 188.741L269.106 221.342L270.713 224.959L274.543 228.079L276.387 229.001L293.078 228.954L299.437 248.694H251.115L234.566 189.048L260.098 188.741Z" fill="#000B33"/>
<path d="M95.1082 128.716C96.7158 136.754 95.5335 137.085 95.5335 137.085H98.8667L100.238 136.376C100.451 135.643 102.082 129.733 99.2217 125.005C96.172 119.945 89.5049 118.007 83.5237 121.009C82.98 121.293 82.4601 121.6 81.9873 121.955C84.115 121.813 93.7128 121.671 95.1313 128.692L95.1082 128.716Z" fill="white"/>
<path d="M105.013 135.075C107.496 135.264 117.023 136.351 116.692 142.002C116.314 148.479 104.777 158.692 104.753 158.716C105.675 158.337 106.668 157.888 107.614 157.368C110.9 155.548 114.541 151.931 115.486 150.654C116.432 149.401 119.718 143.893 119.718 143.893C119.718 143.893 122.035 146.328 122.342 147.841C122.342 147.841 123.997 142.096 119.363 136.635C116.455 133.207 109.671 134.011 104.99 135.075H105.013Z" fill="white"/>
<path d="M472.82 142.664C472.82 142.664 466.154 145.122 468.494 148.692C468.494 148.692 470.385 148.361 471.662 146.801C472.938 145.217 472.82 142.664 472.82 142.664Z" fill="white"/>
<path d="M453.671 120.631C453.671 120.631 457.974 121.647 462.371 120.394C463.458 120.087 464.617 119.567 465.751 118.999C461.661 120.323 454.687 116.683 454.687 116.683C455.16 110.867 463.86 105.808 464.995 105.169C464.617 105.169 464.239 105.169 463.86 105.217C457.052 105.69 450.007 113.609 450.054 120.749C450.054 120.749 453.458 129.26 453.411 129.047C453.364 128.834 453.671 120.631 453.671 120.631Z" fill="white"/>
<path d="M468.494 153.752C454.215 154.674 456.413 139.591 456.413 139.591C456.413 139.591 455.775 139.685 454.901 139.851C454.12 140.135 453.624 140.56 453.624 140.56C453.624 140.56 452.3 155.005 462.371 154.343C462.371 154.343 467.761 154.579 472.418 153.917C471.922 153.704 470.716 153.634 468.518 153.775L468.494 153.752Z" fill="white"/>
<path d="M474.924 183.397L469.959 192.05L472.82 199.142L468.565 230.703L467.501 229.71L465.799 222.523L469.18 199.568L466.366 192.05L473.104 179.638L474.924 183.397Z" fill="white"/>
<path d="M358.185 276.638C358.185 276.638 354.237 262.453 339.225 263.139C324.213 263.824 319.815 274.983 319.815 274.983C319.815 274.983 326.837 280.255 339.485 280.255C352.133 280.255 358.161 276.638 358.161 276.638H358.185Z" fill="#000B33"/>
<path d="M165.842 199.851C166.386 197.322 169.246 191.908 169.27 191.837L171.161 184.508C171.232 184.154 171.326 183.775 171.421 183.421C172.035 180.962 172.887 178.243 175.062 176.872C176.267 176.116 177.591 176.092 178.915 176.068C180.617 176.068 182.319 176.281 183.998 176.636C184.731 176.801 185.606 177.014 186.386 177.416C188.064 178.291 189.341 180.347 188.443 182.451C187.97 183.563 186.953 184.461 185.582 184.957C184.045 185.525 182.272 185.619 181.066 185.667C178.702 185.714 176.409 185.217 174.447 184.201C176.669 184.083 178.655 184.556 180.736 184.556C182.178 184.532 183.832 184.437 185.204 183.917C186.267 183.515 187.071 182.83 187.426 182.026C188.064 180.537 187.119 179.071 185.889 178.432C185.227 178.078 184.494 177.889 183.785 177.747C182.177 177.416 180.547 177.227 178.939 177.203C177.686 177.156 176.622 177.227 175.676 177.818C173.856 178.953 173.1 181.435 172.532 183.681C172.438 184.035 172.367 184.39 172.272 184.745L170.333 192.215C170.168 192.57 167.378 197.842 166.338 199.544C166.22 199.709 166.055 199.828 165.865 199.828L165.842 199.851Z" fill="#000B33"/>
<path d="M191.09 198.056C189.506 197.89 188.513 196.944 187.946 195.195C187.591 194.037 187.709 192.689 188.277 191.365C188.915 189.876 189.766 188.741 190.854 187.512C190.688 189.427 189.908 190.467 189.317 191.814C188.844 192.902 188.75 193.989 189.033 194.864C189.435 196.188 190.097 196.826 191.137 196.944C191.61 197.866 191.35 198.079 191.066 198.079L191.09 198.056Z" fill="#000B33"/>
<path d="M187.922 179.591C188.513 177.298 189.601 175.951 190.665 174.579C192.603 172.168 194.116 170.277 193.454 167.747C193.194 166.707 192.414 165.596 191.137 165.88C190.475 166.021 189.884 166.447 189.222 167.038C185.818 169.946 183.052 173.658 180.783 176.873C182.154 172.925 184.991 169.166 188.49 166.163C189.176 165.572 189.955 164.981 190.901 164.769C192.839 164.296 194.14 165.785 194.565 167.44C195.345 170.513 193.525 172.807 191.894 174.84C190.476 176.613 189.412 177.96 188.372 179.331C188.253 179.473 188.087 179.544 187.922 179.544V179.591Z" fill="#000B33"/>
<path d="M193.478 181.625C192.603 180.206 191.989 179.615 190.925 179.355C190.239 179.19 188.987 179.048 188.301 180.017C188.159 178.244 189.554 177.842 191.185 178.244C192.627 178.599 193.573 179.45 193.998 180.868C193.573 181.601 193.525 181.601 193.455 181.601L193.478 181.625Z" fill="#000B33"/>
<path d="M185.676 192.38C184.14 192.38 182.225 191.647 181.327 190.04C180.759 189 180.405 187.25 181.989 184.744C181.918 186.966 181.705 188.385 182.319 189.496C183.005 190.725 184.494 191.245 185.676 191.245C186.882 191.245 187.898 190.465 188.56 189.803C189.151 189.212 189.577 188.692 190.026 188.148C190.31 187.817 190.593 187.463 190.948 187.061C191.468 188.196 191.184 188.527 190.901 188.858C190.428 189.425 189.979 189.969 189.364 190.607C188.561 191.411 187.284 192.357 185.747 192.38H185.7H185.676Z" fill="#000B33"/>
<path d="M180.995 198.458C182.91 194.58 182.626 191.247 182.626 191.2C183.761 191.247 184.092 194.911 181.444 198.245C181.326 198.387 181.161 198.458 180.995 198.458Z" fill="#000B33"/>
<path d="M534.452 299.096C514.641 299.096 488.399 279.049 474.049 263.469C473.954 262.807 477.099 254.556 482.442 247.488C488.068 240.041 492.3 235.951 492.347 235.904C493.269 235.927 521.378 249.497 539.227 264.509C521.851 251.365 496.154 238.622 492.844 236.991C491.827 238.008 488.092 241.861 483.34 248.15C478.683 254.32 475.728 261.365 475.113 262.949C496.697 286.235 528.636 305.361 545.634 295.053C569.795 280.396 555.563 245.526 544.145 217.487C542.159 212.594 540.268 207.984 538.684 203.705C538.518 203.255 538.329 202.735 538.14 202.192C535.847 195.785 531.544 183.846 521.402 177.676C514.239 173.302 504.144 170.796 493.718 170.796C504.357 169.662 514.664 172.238 521.993 176.707C532.49 183.09 536.84 195.265 539.204 201.813C539.393 202.357 539.582 202.854 539.747 203.326C541.331 207.605 543.223 212.215 545.209 217.085C556.793 245.502 571.213 280.892 546.225 296.046C542.726 298.174 538.754 299.096 534.452 299.096Z" fill="#000B33"/>
<path d="M475.822 260.515C467.879 259.285 454.356 245.148 452.961 240.373C452.228 237.89 453.552 236.259 454.663 235.479C453.86 234.155 454.072 232.571 455.231 231.342C455.68 230.869 456.177 230.514 456.697 230.302C457.595 229.947 458.612 230.065 459.723 230.703C458.375 231.247 457.69 231.129 457.098 231.365C456.744 231.507 456.389 231.767 456.058 232.122C455.113 233.115 455.065 234.297 455.94 235.29C455.633 236.212 453.245 237.323 454.049 240.042C455.373 244.51 468.564 258.245 475.917 259.38C476.342 260.302 476.106 260.515 475.822 260.515Z" fill="#000B33"/>
<path d="M471.591 242.217C469.085 240.727 463.104 235.621 461.378 233.919C459.416 232.098 457.666 230.491 457.666 228.647C457.666 227.725 458.092 226.85 458.943 226.07C461.803 223.422 464.546 226.046 466.153 227.606C466.484 227.914 466.957 228.41 467.548 228.978C469.345 230.774 472.04 233.469 473.695 234.722C475.16 235.833 479.652 239.238 481.402 238.41C482.678 237.796 483.057 236.637 481.496 232.264C480.362 229.096 480.267 226.141 481.212 224.533C481.638 223.824 482.253 223.398 482.985 223.28C486.413 222.76 487.288 225.36 487.998 227.465C488.163 227.937 488.328 228.41 488.518 228.836C488.967 229.829 489.227 230.893 489.51 232.004C489.983 233.824 490.48 235.715 491.756 237.417C489.439 236.212 488.919 234.226 488.399 232.287C488.116 231.224 487.856 230.207 487.454 229.309C487.265 228.859 487.076 228.363 486.91 227.843C486.106 225.455 485.373 224.037 483.127 224.391C482.702 224.462 482.395 224.699 482.135 225.1C481.378 226.377 481.52 229.096 482.513 231.862C483.908 235.786 484.238 238.268 481.827 239.427C479.699 240.443 476.153 238.056 472.962 235.621C471.26 234.32 468.517 231.578 466.721 229.781C466.153 229.214 465.68 228.741 465.349 228.41C462.985 226.117 461.449 225.266 459.676 226.897C459.061 227.465 458.753 228.056 458.753 228.647C458.753 229.994 460.29 231.413 461.401 232.429C463.766 234.746 469.723 239.829 471.851 241.176C471.922 242.122 471.733 242.217 471.544 242.217H471.591Z" fill="#000B33"/>
<path d="M467.761 247.583C467.406 247.465 464.475 245.077 461.189 242.382C458.872 240.467 456.2 237.37 455.349 236.353C455.988 235.36 459.25 239.332 461.922 241.507C465.208 244.202 468.139 246.566 468.139 246.566C468.115 247.488 467.95 247.583 467.785 247.583H467.761Z" fill="#000B33"/>
<path d="M190.618 208.741C187.497 208.741 182.012 207.252 175.582 204.675C169.861 202.382 159.364 197.252 160.523 194.368C161.019 193.115 162.509 193.185 163.383 193.209C165.156 193.28 166.717 193.611 168.111 194.178C166.409 194.699 164.991 194.391 163.431 194.344C162.532 194.297 161.776 194.344 161.587 194.793C161.232 195.668 166.008 199.592 176.008 203.635C182.202 206.141 187.663 207.63 190.618 207.63C191.185 208.505 190.925 208.765 190.618 208.765V208.741Z" fill="#000B33"/>
<path d="M317.498 193.563C317.522 191.624 318.089 189.52 318.562 187.652C318.893 186.352 319.224 185.123 319.532 184.295C320.194 182.475 320.974 180.253 320.453 178.503C320.241 177.818 319.791 177.227 319.248 176.967C318.539 176.612 317.569 176.73 316.789 177.25C316.103 177.7 315.513 178.385 314.922 179.449C314.733 179.756 314.59 180.347 314.425 180.962C313.999 182.617 313.409 184.886 311.423 185.383C308.562 186.068 306.458 183.752 305.087 178.527C304.519 176.376 304 174.484 303.503 172.806C302.203 168.456 300.879 164.957 299.319 161.789C298.751 160.607 298.373 159.803 297.664 159.283C297.262 159 296.718 158.834 296.174 158.881C295.347 158.929 294.709 159.26 294.26 159.874C293.621 160.749 293.408 162.191 293.739 163.539C294.425 166.305 297.947 175.974 297.971 176.068C297.285 176.801 295.394 176.352 293.999 177.274C293.219 177.818 292.722 178.716 292.533 179.993C291.99 180.489 290.217 180.631 289.082 181.979C288.278 182.924 287.971 184.272 288.16 185.95C286.813 184.059 287.214 182.428 288.231 181.246C289.295 179.969 290.76 179.567 291.47 179.425C291.753 178.054 292.368 177.014 293.361 176.352C294.448 175.619 295.725 175.525 296.576 175.595C295.678 173.113 293.219 166.21 292.628 163.846C292.202 162.167 292.486 160.394 293.314 159.236C293.952 158.361 294.921 157.841 296.079 157.77C296.883 157.699 297.687 157.936 298.302 158.385C299.224 159.071 299.697 160.04 300.146 160.962C301.872 164.532 303.219 168.078 304.543 172.475C305.063 174.177 305.583 176.068 306.151 178.243C307.309 182.759 308.964 184.816 311.115 184.272C312.439 183.965 312.912 182.144 313.29 180.678C313.479 179.969 313.645 179.354 313.881 178.905C314.567 177.676 315.276 176.849 316.128 176.305C317.262 175.572 318.634 175.43 319.697 175.95C320.548 176.376 321.21 177.18 321.494 178.196C322.108 180.3 321.21 182.806 320.572 184.626C320.264 185.477 319.957 186.683 319.626 187.936C319.106 189.946 318.538 192.002 317.971 193.232C317.876 193.444 317.664 193.563 317.451 193.563H317.498Z" fill="#000B33"/>
<path d="M294.969 187.912C291.493 183.113 291.517 179.85 291.517 179.708C292.652 179.756 292.629 182.805 295.442 187.013C295.182 187.865 295.087 187.888 294.969 187.888V187.912Z" fill="#000B33"/>
<path d="M300.052 183.492C297.191 177.96 296.955 176.423 296.955 176.352C298.09 176.234 298.373 177.77 300.572 182.688C300.217 183.468 300.123 183.492 300.052 183.492Z" fill="#000B33"/>
<path d="M291.163 198.007C287.049 192.05 287.049 185.383 287.049 185.099C288.184 185.17 288.184 191.719 291.636 197.132C291.375 197.984 291.257 198.007 291.163 198.007Z" fill="#000B33"/>
<path d="M466.934 149.662C465.751 149.662 464.593 149.331 463.577 148.716C462.347 147.96 461.544 146.872 461.449 145.903C461.378 145.052 461.685 144.319 462.3 143.846C463.08 143.255 464.262 143.185 465.373 143.634C466.792 144.201 466.958 144.154 467.312 144.012C467.667 143.87 467.832 143.799 468.494 142.428C468.991 141.341 469.913 140.608 470.882 140.489C471.662 140.419 472.371 140.726 472.915 141.411C473.482 142.121 473.577 143.397 473.199 144.768C472.631 146.825 471.189 148.504 469.369 149.213C468.565 149.52 467.761 149.686 466.934 149.686V149.662ZM463.955 144.461C463.576 144.461 463.246 144.556 462.986 144.745C462.678 144.981 462.537 145.336 462.584 145.785C462.631 146.281 463.151 147.109 464.191 147.747C464.877 148.173 466.674 149.047 468.967 148.149C470.48 147.558 471.662 146.187 472.111 144.461C472.419 143.303 472.3 142.452 472.017 142.097C471.733 141.742 471.449 141.577 471 141.601C470.433 141.671 469.842 142.168 469.511 142.901C468.754 144.532 468.423 144.792 467.738 145.052C467.052 145.336 466.65 145.36 464.972 144.674C464.641 144.532 464.286 144.461 463.955 144.461Z" fill="#000B33"/>
<path d="M468.399 149.473C466.792 144.84 470.551 142.665 472.678 142.121C472.749 143.28 467.903 144.603 468.967 148.764C468.517 149.473 468.47 149.473 468.423 149.473H468.399Z" fill="#000B33"/>
<path d="M456.532 133.894C455.539 133.776 454.616 133.138 454.498 130.797C454.427 129.568 454.593 128.386 454.617 128.338C455.491 130.135 455.562 132.617 456.461 132.736C457.595 132.026 458.021 129.875 458.139 128.646C459.227 129.119 458.896 132.428 457.548 133.492C457.241 133.729 456.886 133.87 456.532 133.87V133.894Z" fill="#000B33"/>
<path d="M469.912 133.988C467.264 133.563 467.997 128.929 468.092 128.385C468.919 130.206 468.943 132.688 469.841 132.83C470.976 132.144 471.496 129.898 471.638 128.598C472.725 129.118 472.276 132.57 470.882 133.61C470.574 133.846 470.243 133.941 469.912 133.941V133.988Z" fill="#000B33"/>
<path d="M113.477 180.466C112.413 180.466 111.255 180.442 110.096 180.348C112.011 179.355 113.831 179.331 115.344 179.307C118.489 179.26 120.9 179.213 122.768 177.463C123.359 176.92 123.855 176.234 124.186 175.477C124.659 174.461 124.825 173.232 124.966 172.144C125.156 170.844 125.227 169.473 125.179 167.936C125.109 165.335 124.73 162.688 124.352 160.111C123.808 156.352 122.106 149.118 122.106 149.047C123.288 149.094 124.919 156.139 125.392 159.331C125.865 162.569 126.243 165.241 126.314 167.912C126.361 169.52 126.29 170.962 126.101 172.31C125.936 173.468 125.771 174.768 125.227 175.95C124.825 176.825 124.257 177.629 123.548 178.291C121.373 180.324 118.631 180.395 115.959 180.442C114.777 180.466 114.139 180.466 113.477 180.466Z" fill="#000B33"/>
<path d="M109.529 156.849C109.978 156.731 110.285 156.872 110.64 158.48C111.018 160.253 110.593 160.631 110.191 160.679C109.789 160.702 109.316 160.206 109.175 158.929C109.033 157.653 108.985 157.038 109.553 156.872L109.529 156.849Z" fill="#000B33"/>
<path d="M121.018 154.413C121.444 154.271 121.775 154.413 122.177 155.997C122.602 157.77 122.176 158.148 121.798 158.195C121.396 158.243 120.9 157.746 120.711 156.47C120.522 155.193 120.451 154.578 121.018 154.389V154.413Z" fill="#000B33"/>
<path d="M123.099 151.529C122.153 151.009 121.373 150.654 119.6 151.387C121.35 149.472 122.508 149.898 123.407 150.513C123.454 151.458 123.288 151.553 123.099 151.553V151.529Z" fill="#000B33"/>
<path d="M98.2755 172.097C95.2967 172.097 92.6255 170.04 91.9635 167.014C91.6089 165.336 91.9159 163.61 92.8379 162.144C93.7599 160.702 95.2256 159.686 96.9041 159.331C98.1335 159.071 99.4102 159.166 100.592 159.615C100.947 159.638 101.775 159.875 102.768 161.081C101.065 160.797 100.474 160.75 100.474 160.75C99.2919 160.324 98.2046 160.229 97.1644 160.466C95.7696 160.773 94.5877 161.601 93.8076 162.783C93.0274 163.988 92.7672 165.407 93.0746 166.802C93.7129 169.686 96.5733 171.506 99.4102 170.868C100.356 170.655 101.231 170.206 101.916 169.544C101.845 171.175 100.782 171.719 99.6468 171.979C99.1977 172.074 98.7247 172.121 98.2755 172.121V172.097Z" fill="#000B33"/>
<path d="M97.2357 169.213C96.8574 168.244 99.9541 165.289 99.9541 165.289L95.9116 162.877C96.479 161.908 101.184 164.698 101.184 164.698C101.278 165.596 97.6374 169.048 97.6374 169.048C97.5192 169.142 97.3775 169.213 97.2593 169.213H97.2357Z" fill="#000B33"/>
<path d="M114.99 203.161C114.234 203.161 113.454 203.043 112.674 202.783C109.624 201.766 107.118 199.497 105.558 197.747C103.17 195.123 101.113 191.884 99.4343 188.125C102.106 191.293 104.091 194.438 106.385 196.991C107.85 198.622 110.215 200.773 113.028 201.695C114.588 202.215 116.101 202.121 117.212 201.482C120.877 199.331 119.553 195.809 118.181 192.05C117.567 190.395 117 188.811 116.882 187.393C116.882 187.393 116.858 187.109 116.314 179.922C117.449 179.851 117.993 187.132 117.993 187.298C118.087 188.574 118.631 190.064 119.222 191.648C120.57 195.289 122.224 199.828 117.78 202.452C116.976 202.925 116.007 203.161 114.99 203.161Z" fill="#000B33"/>
<path d="M99.6708 187.889C99.1034 187.322 98.9614 171.412 98.9614 171.412C100.096 171.412 100.238 187.322 100.238 187.322C99.6707 187.889 99.6708 187.889 99.6708 187.889Z" fill="#000B33"/>
<path d="M154.211 319.002C153.336 311.579 153.123 304.723 152.887 298.104C152.579 288.482 152.272 278.553 151.657 268.481C153.407 278.505 153.714 288.434 154.021 298.056C154.234 304.676 154.447 311.532 154.778 318.411C154.234 319.002 154.211 319.002 154.211 319.002Z" fill="#000B33"/>
<path d="M150.167 241.129C148.276 226.873 146.196 214.556 143.217 203.019C142.484 200.206 141.728 197.487 140.333 195.076C136.22 188.007 127.614 187.96 120.025 187.936C119.151 187.936 118.276 187.936 117.449 187.936C118.3 186.825 119.151 186.825 120.025 186.825C127.921 186.849 136.858 186.896 141.302 194.532C142.792 197.062 143.572 199.875 144.328 202.759C147.307 214.367 149.411 226.708 150.735 240.538C150.215 241.152 150.191 241.152 150.167 241.152V241.129Z" fill="#000B33"/>
<path d="M120.9 166.329C120.782 163.729 120.9 161.672 120.545 161.412C120.238 161.294 118.985 161.743 117.851 162.334C117.023 161.932 115.605 154.154 115.605 154.154C116.716 153.941 117.992 161.01 117.992 161.01C119.08 160.49 120.522 160.017 121.207 160.537C122.318 161.412 121.728 164.58 121.42 165.904C121.349 166.164 121.137 166.353 120.877 166.353L120.9 166.329Z" fill="#000B33"/>
<path d="M61.4667 215.337C60.9939 215.218 60.8284 214.887 60.923 214.58C64.6583 203.256 69.1977 195.927 74.3515 192.783C80.4508 189.071 86.6919 186.778 98.9852 186.778C86.9519 187.913 80.8527 190.159 74.9425 193.752C70.0015 196.755 65.6516 203.894 61.9873 214.935C61.9164 215.171 61.6794 215.313 61.443 215.313L61.4667 215.337Z" fill="#000B33"/>
<path d="M36.5732 319.003C37.8026 309.546 39.5756 301.106 41.2778 293.234C40.6868 301.343 38.9373 309.783 37.1406 318.553C37.0933 318.813 36.857 319.003 36.5969 319.003H36.5732Z" fill="#000B33"/>
<path d="M82.4365 319.002C83.1694 312.123 84.2805 306.023 85.368 299.12C85.3916 306.212 84.2805 312.336 82.9802 318.553C82.9329 318.813 82.6966 319.002 82.4365 319.002Z" fill="#000B33"/>
<path d="M99.0087 174.58C89.4578 173.658 82.9326 163.492 83.4291 150.372C83.5946 145.62 85.1316 141.979 87.9686 139.568C92.2239 135.951 97.8975 136.282 98.9377 136.353C100.64 135.62 115.628 129.591 120.735 137.393C124.706 143.469 123.288 148.835 123.217 149.048C121.704 146.802 120.593 145.336 119.908 144.58C118.631 147.464 113.477 157.322 101.396 160.656C114.683 155.833 119.127 143.539 119.151 143.421C120.097 143.232 121.396 144.249 122.342 146.211C122.342 144.201 121.846 141.199 119.766 138.007C114.99 130.702 99.3872 137.369 99.2454 137.44C98.8907 137.487 92.8854 136.825 88.701 140.419C86.1241 142.617 84.7293 145.998 84.5638 150.419C84.091 162.925 90.1907 172.618 99.0797 173.469C99.5525 174.367 99.3161 174.604 99.0324 174.604L99.0087 174.58Z" fill="#000B33"/>
<path d="M412.204 189.024C412.795 186.849 413.694 185.974 414.946 184.91C427.523 174.082 439.202 172.262 449.51 170.655C450.408 170.513 451.283 170.371 452.134 170.229C451.448 171.482 450.574 171.624 449.676 171.766C439.51 173.35 427.996 175.146 415.68 185.761C414.474 186.778 413.599 187.605 412.653 188.811C412.535 188.953 412.37 189.024 412.204 189.024Z" fill="#000B33"/>
<path d="M459.061 204.888C458.518 204.438 451.685 171.317 451.685 171.317C451.874 170.774 461.449 162.476 461.449 162.476C462.277 162.594 473.104 178.599 473.104 178.599L483.553 162.594C484.357 162.452 494.073 169.781 494.073 169.781C494.286 170.348 488.684 197.677 488.684 197.677C487.572 197.441 493.104 170.466 493.104 170.466L484.168 163.705L473.79 179.639L485.35 200.585C484.357 201.129 473.128 180.75 473.128 180.75L459.581 204.58C459.487 204.769 459.298 204.864 459.085 204.864L459.061 204.888ZM452.867 171.412L459.321 202.736L472.466 179.639L461.732 163.729L452.891 171.388L452.867 171.412Z" fill="#000B33"/>
<path d="M469.18 200.159C468.66 199.804 465.515 192.263 465.515 192.263C466.555 191.837 469.558 199.024 469.558 199.024H477.288L479.581 192.145C480.645 192.499 478.234 199.757 478.234 199.757C477.69 200.135 469.203 200.159 469.203 200.159H469.18Z" fill="#000B33"/>
<path d="M484.026 163.468C483.458 162.924 482.371 141.174 482.371 141.174C483.506 141.127 484.594 162.853 484.594 162.853C484.05 163.444 484.026 163.444 484.026 163.444V163.468Z" fill="#000B33"/>
<path d="M461.803 163.468C461.236 162.901 461.354 154.296 461.354 154.296C462.489 154.296 462.371 162.925 462.371 162.925C462.371 163.232 462.111 163.492 461.803 163.492V163.468Z" fill="#000B33"/>
<path d="M465.798 223.091C465.231 222.453 468.636 199.521 468.636 199.521C469.747 199.686 466.366 222.618 466.366 222.618C466.318 222.902 466.082 223.091 465.798 223.091Z" fill="#000B33"/>
<path d="M479.416 214.273C478.849 213.776 477.146 199.663 477.146 199.663C478.258 199.521 479.983 213.658 479.983 213.658C479.463 214.296 479.44 214.296 479.416 214.296V214.273Z" fill="#000B33"/>
<path d="M466.886 229.569C466.342 229.12 460.456 200.987 460.456 200.987C461.567 200.751 467.43 228.884 467.43 228.884C466.957 229.569 466.909 229.569 466.886 229.569Z" fill="#000B33"/>
<path d="M473.411 319.475C472.843 318.908 472.607 276.708 472.607 276.708C473.742 276.708 473.978 318.908 473.978 318.908C473.411 319.475 473.411 319.475 473.411 319.475Z" fill="#000B33"/>
<path d="M346.955 319.002C346.482 318.884 346.317 318.553 346.412 318.245C348.988 310.538 350.194 290.514 350.833 279.781C351.305 290.656 350.1 310.751 347.476 318.6C347.405 318.836 347.168 318.978 346.932 318.978L346.955 319.002Z" fill="#000B33"/>
<path d="M117.236 171.956C116.598 171.956 116.007 171.814 115.463 171.53C113.595 170.561 113.051 168.315 113.028 168.22C114.139 167.984 114.588 169.804 115.983 170.537C116.81 170.963 117.851 170.915 119.056 170.419C118.678 171.79 117.922 171.979 117.236 171.979V171.956Z" fill="#000B33"/>
<path d="M463.222 154.863C460.196 154.863 457.051 154.508 455.089 151.529C453.08 148.48 453.08 144.508 453.056 141.009C453.056 140.229 453.056 139.496 453.033 138.763C452.962 136.375 453.316 121.789 453.34 121.174C454.475 121.363 454.097 136.375 454.168 138.716C454.191 139.449 454.191 140.229 454.191 141.009C454.191 144.508 454.191 148.149 456.035 150.915C457.974 153.846 461.354 153.799 464.664 153.728C465.09 153.728 465.491 153.728 465.917 153.728C468.73 153.728 471 153.491 473.08 153.019C475.019 152.593 477.004 152.12 478.139 150.465C479.392 148.621 479.653 146.163 479.724 144.201C479.794 142.806 479.747 141.553 479.629 140.371C479.251 137.297 478.73 132.498 478.73 132.498C479.203 131.033 479.984 129.969 480.977 129.141C482.49 127.888 484.404 127.321 486.39 127.486C488.352 127.676 490.125 128.621 491.378 130.158C493.955 133.302 493.506 137.983 490.362 140.56C487.691 142.759 483.908 142.806 481.165 140.725C484.168 141.6 487.383 141.553 489.653 139.685C492.324 137.486 492.702 133.538 490.527 130.867C488.328 128.196 484.38 127.817 481.709 130.016C480.905 130.678 480.267 131.553 479.889 132.498C479.983 133.302 480.433 137.439 480.787 140.229C480.929 141.458 480.953 142.782 480.882 144.248C480.787 146.352 480.504 149.023 479.085 151.104C477.714 153.137 475.397 153.657 473.341 154.13C471.166 154.626 468.825 154.863 465.941 154.863C465.539 154.863 465.113 154.863 464.711 154.863C464.238 154.863 463.742 154.863 463.246 154.863H463.222Z" fill="#000B33"/>
<path d="M454.049 126.375C453.553 125.548 454.9 122.71 458.919 123.751C455.515 124.034 454.569 126.02 454.546 126.044C454.451 126.257 454.238 126.375 454.026 126.375H454.049Z" fill="#000B33"/>
<path d="M473.529 126.707C470.456 123.137 467.832 124.721 467.714 124.792C467.123 123.822 470.692 121.624 473.978 125.808C473.789 126.683 473.647 126.73 473.529 126.73V126.707Z" fill="#000B33"/>
<path d="M487.856 138.953C487.596 138.882 482.3 136.258 482.3 136.258C482.158 135.359 486.958 130.418 486.958 130.418C487.762 131.199 483.482 135.572 483.482 135.572L488.092 137.842C488.258 138.811 488.045 138.906 487.856 138.906V138.953Z" fill="#000B33"/>
<path d="M473.317 111.812C472.867 110.89 475.657 107.438 475.657 107.438C476.532 108.148 473.766 111.599 473.766 111.599C473.647 111.741 473.482 111.812 473.317 111.812Z" fill="#000B33"/>
<path d="M465.539 139.331C466.792 136.778 469.818 137.061 472.253 137.274C473.293 137.369 474.262 137.463 474.711 137.345C475.373 137.179 476.248 133.468 476.579 129.591L477.004 127.912C473.033 123.586 471.945 118.385 471.638 116.068C469.274 118.172 462.347 123.279 452.489 120.985C464.286 122.569 471.614 114.555 471.685 114.46C472.678 114.886 472.986 122.026 478.045 127.345C478.187 127.865 477.714 129.78 477.714 129.78C477.525 132.168 476.863 137.96 475.019 138.432C474.381 138.598 473.388 138.503 472.158 138.385C470.054 138.196 467.217 137.936 465.941 139.142C465.822 139.26 465.681 139.307 465.539 139.307V139.331Z" fill="#000B33"/>
<path d="M453.671 140.844C455.468 138.456 457.714 139.236 457.808 139.283C457.406 140.347 455.586 139.709 453.978 140.749C453.883 140.82 453.765 140.844 453.671 140.844Z" fill="#000B33"/>
<path d="M555.02 319.003H0C0 317.868 555.02 317.868 555.02 317.868C555.587 318.743 555.327 319.003 555.02 319.003Z" fill="#000B33"/>
<path d="M384.663 177.771C383.883 177.771 383.079 177.629 382.299 177.345C380.999 176.849 379.911 175.998 379.131 174.863C380.715 175.17 381.637 175.879 382.701 176.281C385.585 177.369 388.824 175.903 389.911 173.019C390.431 171.624 390.384 170.111 389.769 168.74C389.155 167.369 388.043 166.329 386.649 165.808C384.828 165.123 382.819 165.43 381.258 166.588C382.44 164.272 384.852 163.917 387.027 164.745C388.706 165.383 390.053 166.636 390.786 168.267C391.519 169.898 391.59 171.742 390.951 173.421C389.935 176.116 387.358 177.771 384.639 177.771H384.663Z" fill="#000B33"/>
<path d="M385.112 174.768C384.663 174.532 381.661 170.418 381.661 170.418C381.968 169.543 387.051 168.078 387.051 168.078C387.358 169.165 383.031 170.418 383.031 170.418L385.538 173.87C385.325 174.744 385.207 174.768 385.088 174.768H385.112Z" fill="#000B33"/>
<path d="M432.512 319.003C431.921 318.294 430.006 298.365 431.425 277.111C432.086 267.111 432.181 254.085 431.708 237.276C433.316 254.085 433.222 267.159 432.56 277.182C431.141 298.317 433.056 318.176 433.08 318.365C432.56 318.98 432.536 318.98 432.512 318.98V319.003Z" fill="#000B33"/>
<path d="M376.128 186.967C372.724 186.66 370.289 185.407 368.847 183.255C366.199 179.331 367.783 173.846 367.854 173.634L372.299 155.454C373.386 155.714 368.941 173.917 368.941 173.917C368.918 173.988 367.429 179.142 369.793 182.617C371.046 184.485 373.197 185.572 376.199 185.832C376.672 186.754 376.436 186.967 376.152 186.967H376.128Z" fill="#000B33"/>
<path d="M367.831 171.175C365.632 170.631 364.946 169.402 365.277 168.22L368.209 157.794C368.54 156.612 369.769 155.927 370.951 156.258C371.944 156.541 372.417 156.919 372.701 157.416C372.985 157.936 373.079 158.527 372.913 159.118L369.982 169.544C369.698 170.513 368.8 171.175 367.831 171.175ZM367.547 169.993C368.091 170.135 368.729 169.827 368.894 169.236L371.826 158.811C370.076 157.18 369.462 157.534 369.297 158.102L366.365 168.527C366.2 169.118 366.53 169.709 367.121 169.875L367.547 169.993Z" fill="#000B33"/>
<path d="M419.391 243.091C416.318 243.091 413.055 242.547 409.155 241.365C406.27 240.49 403.032 239.261 400.833 236.732C398.138 233.658 397.216 229.025 398.043 222.996C398.256 221.507 398.54 220.017 398.8 218.552C399.273 216.069 399.746 213.492 399.84 210.939C399.887 209.544 399.84 207.771 398.989 206.353C397.523 203.894 394.143 202.925 391.731 202.381C391.164 202.263 390.573 202.145 390.006 202.027C388.256 201.696 386.459 201.341 384.781 200.655C379.532 198.528 375.655 192.617 375.537 186.613C375.443 182.263 379.131 178.646 382.606 176.707C379.958 179.473 376.577 182.735 376.648 186.589C376.766 192.145 380.36 197.629 385.207 199.591C386.79 200.23 388.54 200.584 390.218 200.915C390.809 201.034 391.377 201.152 391.968 201.27C394.592 201.837 398.256 202.925 399.958 205.762C400.951 207.44 401.022 209.426 400.951 210.963C400.857 213.587 400.36 216.211 399.888 218.741C399.604 220.183 399.344 221.649 399.131 223.114C398.351 228.812 399.178 233.138 401.637 235.951C403.67 238.268 406.72 239.427 409.439 240.254C413.221 241.412 416.389 241.932 419.344 241.932C429.486 241.838 436.933 234.06 436.885 223.823C436.838 212.901 431.377 202.192 423.292 197.133C422.039 196.353 420.692 195.643 419.368 194.958C416.034 193.208 412.583 191.412 410.408 188.244C406.861 183.019 408.351 177.274 409.817 171.719C410.337 169.709 410.833 167.818 411.117 165.927C413.481 149.378 405.49 145.123 400.502 144.059C399.249 143.799 392.748 144.555 388.705 145.146C380.691 141.907 376.648 144.012 376.057 144.366C375.537 145.146 371.92 150.962 373.504 156.612C374.497 160.182 377.357 163.019 381.991 165.052C376.577 163.894 373.504 160.82 372.416 156.896C370.572 150.324 374.994 143.893 375.183 143.61C375.49 143.35 379.816 140.371 388.682 143.988C390.266 143.751 398.918 142.546 400.738 142.948C406.105 144.082 414.734 148.622 412.228 166.069C411.944 168.007 411.424 170.017 410.904 171.979C409.509 177.298 408.067 182.806 411.329 187.582C413.315 190.513 416.507 192.168 419.864 193.918C421.212 194.603 422.583 195.336 423.859 196.14C432.252 201.388 437.926 212.476 437.973 223.776C438.02 234.651 430.101 242.925 419.557 243.02H419.32L419.391 243.091Z" fill="#000B33"/>
<path d="M293.456 229.568H278.586C273.999 229.568 269.957 226.494 268.751 222.074L246.812 142.805C245.961 139.708 246.576 136.47 248.538 133.893C250.477 131.34 253.455 129.85 256.67 129.85H378.989C383.575 129.85 387.618 132.923 388.824 137.344L390.715 144.082C389.627 144.389 387.736 137.652 387.736 137.652C386.648 133.727 383.055 130.985 378.989 130.985H256.67C253.81 130.985 251.162 132.285 249.436 134.578C247.71 136.848 247.143 139.732 247.9 142.498L269.839 221.766C270.926 225.691 274.519 228.433 278.586 228.433H293.456C294.023 229.308 293.763 229.568 293.456 229.568Z" fill="#000B33"/>
<path d="M353.764 229.568H333.433C333.433 228.434 353.764 228.434 353.764 228.434C354.331 229.308 354.071 229.568 353.764 229.568Z" fill="#000B33"/>
<path d="M380.005 143.232C378.823 140.537 376.885 139.189 374.261 139.189H367.878C367.878 138.054 374.261 138.054 374.261 138.054C377.429 138.054 379.793 139.709 380.55 142.499C380.1 143.208 380.053 143.208 380.005 143.208V143.232Z" fill="#000B33"/>
<path d="M291.612 221.388H284.685C280.856 221.388 277.475 218.811 276.458 215.123L256.884 144.366C256.458 142.853 256.765 141.269 257.711 140.016C258.656 138.763 260.122 138.03 261.683 138.03H348.327C348.327 139.165 261.683 139.165 261.683 139.165C260.453 139.165 259.342 139.708 258.609 140.701C257.876 141.671 257.64 142.9 257.971 144.082L277.546 214.839C278.42 218.031 281.376 220.277 284.685 220.277H291.612C292.179 221.151 291.919 221.411 291.612 221.411V221.388Z" fill="#000B33"/>
<path d="M357.097 221.389H330.454C330.454 220.254 357.097 220.254 357.097 220.254C357.665 221.129 357.405 221.389 357.097 221.389Z" fill="#000B33"/>
<path d="M310.335 153.61H277.522C277.522 152.476 310.335 152.476 310.335 152.476C310.903 153.35 310.643 153.61 310.335 153.61Z" fill="#000B33"/>
<path d="M312.44 160.773H299.437C299.437 159.638 312.44 159.638 312.44 159.638C313.007 160.513 312.747 160.773 312.44 160.773Z" fill="#000B33"/>
<path d="M293.078 160.773H279.626C279.626 159.638 293.078 159.638 293.078 159.638C293.645 160.513 293.385 160.773 293.078 160.773Z" fill="#000B33"/>
<path d="M367.949 153.61H335.135C335.135 152.476 367.949 152.476 367.949 152.476C368.516 153.35 368.256 153.61 367.949 153.61Z" fill="#000B33"/>
<path d="M368.114 160.773H337.239C337.239 159.638 368.114 159.638 368.114 159.638C368.682 160.513 368.422 160.773 368.114 160.773Z" fill="#000B33"/>
<path d="M317.971 175.123H304.614C304.614 173.988 317.971 173.988 317.971 173.988C318.539 174.863 318.279 175.123 317.971 175.123Z" fill="#000B33"/>
<path d="M296.884 175.123H285.158C285.158 173.988 296.884 173.988 296.884 173.988C297.451 174.863 297.191 175.123 296.884 175.123Z" fill="#000B33"/>
<path d="M313.645 182.262H307.215C307.215 181.127 313.645 181.127 313.645 181.127C314.213 182.002 313.953 182.262 313.645 182.262Z" fill="#000B33"/>
<path d="M288.396 182.262H287.261C287.261 181.127 288.396 181.127 288.396 181.127C288.964 182.002 288.704 182.262 288.396 182.262Z" fill="#000B33"/>
<path d="M367.949 175.123H342.771C342.771 173.988 367.949 173.988 367.949 173.988C368.516 174.863 368.256 175.123 367.949 175.123Z" fill="#000B33"/>
<path d="M368.54 182.262H344.875C344.875 181.127 368.54 181.127 368.54 181.127C369.107 182.002 368.847 182.262 368.54 182.262Z" fill="#000B33"/>
<path d="M325.49 196.636H322.653C322.653 195.501 325.49 195.501 325.49 195.501C326.057 196.376 325.797 196.636 325.49 196.636Z" fill="#000B33"/>
<path d="M327.617 203.776H325.017C325.017 202.641 327.617 202.641 327.617 202.641C328.184 203.516 327.924 203.776 327.617 203.776Z" fill="#000B33"/>
<path d="M379.58 196.636H350.265C350.265 195.501 379.58 195.501 379.58 195.501C380.147 196.376 379.887 196.636 379.58 196.636Z" fill="#000B33"/>
<path d="M367.736 203.776H352.369C352.369 202.641 367.736 202.641 367.736 202.641C368.303 203.516 368.043 203.776 367.736 203.776Z" fill="#000B33"/>
<path d="M83.9491 146.328C77.306 144.626 75.0365 137.699 75.6748 131.955C76.3131 126.234 80.1193 119.496 88.7246 119.236C93.0273 119.118 96.3373 120.347 98.4887 122.924C102.697 127.936 101.066 136.139 100.995 136.47C99.9073 136.163 101.491 128.219 97.6373 123.633C95.7224 121.34 92.7909 120.205 88.772 120.347C80.8995 120.56 77.4005 126.801 76.8095 132.049C76.2185 137.321 78.2518 143.657 84.0911 145.17C84.4221 146.116 84.2092 146.281 83.9491 146.281V146.328Z" fill="#000B33"/>
<path d="M48.1096 204.887C62.6015 193.775 79.907 185.761 99.2454 179.993C80.3562 186.801 63.1456 194.792 48.4173 204.792C48.3227 204.863 48.2042 204.887 48.1096 204.887Z" fill="#000B33"/>
<path d="M125.416 174.981C128.489 173.326 131.303 172.924 134.423 172.546C131.444 174.035 128.655 174.437 125.51 174.981C125.487 174.981 125.439 174.981 125.416 174.981Z" fill="#000B33"/>
<path d="M48.3936 122.096C63.5474 110.488 81.9869 102.167 102.838 96.3039C103.547 96.0911 104.281 95.902 104.99 95.7129C104.564 96.9895 103.855 97.2023 103.146 97.3915C82.3891 103.207 64.0909 111.481 48.7006 121.978C48.606 122.049 48.4881 122.073 48.3936 122.073V122.096Z" fill="#000B33"/>
<path d="M122.342 92.9476C126.29 91.1036 130.38 90.4889 134.423 90.0161C130.546 91.6001 126.456 92.2147 122.437 92.9239C122.413 92.9239 122.366 92.9239 122.342 92.9239V92.9476Z" fill="#000B33"/>
<path d="M190.901 204.934C190.333 204.343 190.901 182.759 190.901 182.759C193.194 180.844 195.18 179.379 197.071 177.889L197.426 96.5641C198.206 96.044 202.013 97.6989 203.266 98.29C215.252 103.893 223.124 112.404 226.055 122.853C230.925 140.229 220.547 160.655 198.088 178.504C195.984 180.159 194.046 181.624 192.012 183.067L191.421 204.367C191.421 204.674 191.161 204.911 190.854 204.911L190.901 204.934ZM198.584 97.4388L198.23 176.991C219.743 159.591 229.672 139.874 224.992 123.184C222.155 113.042 214.471 104.791 202.816 99.3302C201.941 98.9046 199.766 97.9589 198.584 97.4388Z" fill="#000B33"/>
<path d="M189.199 267.512C188.631 266.921 190.334 204.344 190.334 204.344C191.468 204.367 189.766 266.945 189.766 266.945C189.766 267.252 189.506 267.489 189.199 267.489V267.512Z" fill="#000B33"/>
<path d="M189.199 267.511C211.492 251.152 225.063 232.83 226.079 216.211C226.103 215.501 226.079 192.995 226.079 192.995C227.214 192.995 227.214 215.525 227.214 215.525C226.15 233.256 212.415 251.885 189.507 267.417C189.412 267.488 189.293 267.511 189.175 267.511H189.199Z" fill="#000B33"/>
<path d="M226.67 180.443C226.103 179.875 226.079 129.638 226.079 129.638C227.214 129.638 227.237 179.875 227.237 179.875C227.237 180.183 226.977 180.443 226.67 180.443Z" fill="#000B33"/>
<path d="M134.494 292.265C133.927 291.698 134.163 273.683 134.163 273.683C135.297 273.683 135.061 291.698 135.061 291.698C135.061 292.005 134.801 292.265 134.494 292.265Z" fill="#000B33"/>
<path d="M135.109 244.816C134.541 244.249 134.99 208.788 134.99 208.788C136.125 208.788 135.676 244.249 135.676 244.249C135.676 244.556 135.416 244.816 135.109 244.816Z" fill="#000B33"/>
<path d="M82.4127 217.109C64.02 217.109 47.4006 214.036 34.729 207.913C59.0319 218.386 97.0228 219.024 134.352 208.551L135.416 208.244C135.723 209.331 134.66 209.639 134.66 209.639C116.881 214.627 98.9377 217.109 82.4127 217.109Z" fill="#000B33"/>
<path d="M19.2442 196.59C15.2488 192.405 12.7664 187.937 11.3952 183.091C10.615 180.301 10.2131 177.417 10.2131 174.485C11.3479 177.299 11.7261 180.112 12.4826 182.783C13.7828 187.441 16.1943 191.767 19.6459 195.644C19.504 196.542 19.3623 196.59 19.2205 196.59H19.2442Z" fill="#000B33"/>
<path d="M82.4128 240.986C75.6988 240.986 69.1976 240.561 62.98 239.733C75.4624 240.277 88.9141 240.277 103.099 238.599C96.0773 240.561 89.1268 240.986 82.4128 240.986Z" fill="#000B33"/>
<path d="M82.4128 250.656C75.3205 250.656 68.4649 250.183 61.9399 249.238C74.7061 249.947 88.5122 249.994 103.099 248.269C96.0773 250.231 89.1269 250.656 82.4128 250.656Z" fill="#000B33"/>
<path d="M82.4602 299.782C72.4837 299.782 63.0038 298.86 54.2566 296.993C30.8993 292.005 15.6742 280.893 11.4189 265.692C10.7096 263.186 10.3077 260.562 10.2368 257.914V256.756V201.294C11.3716 201.294 11.3715 257.89 11.3715 257.89C11.4425 260.444 11.8207 262.95 12.5063 265.385C16.6434 280.16 31.5609 290.988 54.4927 295.882C77.5663 300.799 105.912 299.12 134.352 291.13C116.81 297.229 98.9852 299.759 82.4602 299.759V299.782Z" fill="#000B33"/>
<path d="M10.7805 201.861C10.2131 201.293 10.2131 175.501 10.2131 175.501C11.3479 175.501 11.3479 201.293 11.3479 201.293C11.3479 201.601 11.0878 201.861 10.7805 201.861Z" fill="#000B33"/>
<path d="M48.3938 204.886C47.8264 204.319 47.8264 121.528 47.8264 121.528C48.9612 121.528 48.9611 204.319 48.9611 204.319C48.9611 204.626 48.7011 204.886 48.3938 204.886Z" fill="#000B33"/>
<path d="M134.494 173.681C133.926 173.114 133.927 90.583 133.927 90.583C135.061 90.583 135.061 173.114 135.061 173.114C135.061 173.421 134.801 173.681 134.494 173.681Z" fill="#000B33"/>
<path d="M199.578 215.667C203.904 211.01 210.76 205.241 216.765 198.409C211.54 206.045 204.66 211.885 199.932 215.549C199.837 215.62 199.719 215.667 199.578 215.667Z" fill="#000B33"/>
<path d="M153.809 283.47C173.951 282.335 185.038 244.321 189.885 221.531C186.079 244.912 174.755 283.47 153.809 283.47Z" fill="#000B33"/>
<path d="M147.922 223.493C147.402 222.689 160.499 194.438 160.499 194.438C161.516 194.911 148.442 223.162 148.442 223.162C148.348 223.375 148.135 223.493 147.922 223.493Z" fill="#000B33"/>
<path d="M184.707 207.369C187.024 204.745 189.057 202.641 190.452 200.064C189.955 203.374 187.78 205.62 184.991 207.299C184.896 207.346 184.802 207.369 184.707 207.369Z" fill="#000B33"/>
<path d="M106.976 249.238C107.283 248.08 142.366 245.101 157.307 236.85C142.697 246.212 107.378 249.191 107.023 249.238C107.023 249.238 106.999 249.238 106.976 249.238Z" fill="#000B33"/>
<path d="M106.976 277.867C107.283 276.708 142.366 273.73 157.307 265.479C142.697 274.841 107.378 277.82 107.023 277.867C107.023 277.867 106.999 277.867 106.976 277.867Z" fill="#000B33"/>
<path d="M106.976 277.962C106.408 277.394 106.408 248.67 106.408 248.67C107.543 248.67 107.543 277.394 107.543 277.394C107.543 277.701 107.283 277.962 106.976 277.962Z" fill="#000B33"/>
<path d="M157.568 266.59C157 266.023 157 237.299 157 237.299C158.135 237.299 158.135 266.023 158.135 266.023C158.135 266.33 157.875 266.59 157.568 266.59Z" fill="#000B33"/>
<path d="M453.6 130.206C452.702 129.118 449.345 122.239 449.463 120.395C449.487 119.922 450.267 109.047 459.912 105.572C467.974 102.687 474.499 106.423 475.822 107.274C477.43 106.801 485.633 104.744 488.801 111.766C492.182 119.26 489.795 128.078 489.676 128.456C488.613 128.078 490.953 119.354 487.761 112.238C484.688 105.406 476.272 108.314 475.917 108.432C475.326 108.314 468.589 103.68 460.291 106.636C451.331 109.851 450.621 120.016 450.574 120.442C450.503 121.624 452.702 126.541 454.073 129.378C453.742 130.182 453.647 130.182 453.577 130.182L453.6 130.206Z" fill="#000B33"/>
<path d="M34.3506 185.053C33.7832 184.485 33.7832 159.733 33.7832 159.733C38.3223 156.518 47.4949 152.688 47.8968 152.523C48.2278 153.61 39.2206 157.346 34.9179 160.041V183.469C39.457 180.774 47.5422 177.417 47.8968 177.275C48.2278 178.362 38.8427 182.263 34.6582 184.958C34.5636 185.006 34.4688 185.053 34.3506 185.053Z" fill="#000B33"/>
<path d="M169.554 125.264C168.986 124.696 168.986 103.75 168.986 103.75C189.152 104.176 197.662 109.472 198.017 109.708C197.331 110.606 188.939 105.405 170.121 104.342V124.696C170.121 125.004 169.861 125.264 169.554 125.264Z" fill="#000B33"/>
<path d="M197.71 131.695C197.332 131.553 188.75 126.234 169.53 125.265C189.152 125.123 197.662 130.418 198.017 130.655C198.088 131.6 197.899 131.695 197.71 131.695Z" fill="#000B33"/>
<path d="M462.371 141.104C461.307 141.081 460.125 140.962 459.203 140.3C458.422 139.757 457.95 139 457.832 138.125C457.666 136.943 458.139 135.501 459.132 134.272C460.007 133.161 460.905 131.955 461.425 130.584C462.489 127.842 461 125.808 460.929 125.738C461.898 125.147 463.789 127.652 462.465 131.009C461.874 132.522 460.929 133.823 460.007 134.981C459.226 135.974 458.825 137.085 458.943 137.96C459.014 138.527 459.321 139 459.841 139.378C460.526 139.851 461.496 139.946 462.371 139.969C462.914 140.868 462.654 141.104 462.371 141.104Z" fill="#000B33"/>
<path d="M276.316 112.404C251.99 112.404 230.477 95.1935 225.134 71.5052C231.47 94.4369 252.51 111.269 276.316 111.269C304.615 111.269 327.641 88.243 327.641 59.9447C327.641 31.6464 304.615 8.62007 276.316 8.62007C258.16 8.62007 241.729 17.911 232.344 33.4668C240.973 16.989 257.782 7.48535 276.316 7.48535C305.253 7.48535 328.776 31.0318 328.776 59.9447C328.776 88.8576 305.253 112.404 276.316 112.404Z" fill="#000B33"/>
<path d="M266.576 84.5309C264.779 84.5309 263.077 83.8216 261.824 82.545L244.448 65.169C243.172 63.8924 242.486 62.2138 242.486 60.4171C242.486 58.6204 243.195 56.9182 244.448 55.6416L246.836 53.2538C248.113 51.9772 249.791 51.2681 251.588 51.2681C253.385 51.2681 255.087 51.9772 256.34 53.2538L266.576 63.4904L295.205 35.7122C296.482 34.4356 298.161 33.75 299.957 33.75C301.754 33.75 303.456 34.4593 304.709 35.7122L307.097 38.1C309.721 40.7242 309.721 45.0031 307.097 47.6272L271.328 82.5214C270.051 83.798 268.373 84.4836 266.576 84.4836V84.5309ZM251.588 52.4501C250.098 52.4501 248.68 53.0411 247.616 54.0813L245.229 56.4691C244.165 57.5329 243.597 58.9277 243.597 60.4408C243.597 61.9301 244.188 63.3486 245.229 64.3888L262.604 81.7648C263.668 82.8287 265.063 83.3961 266.576 83.3961C268.089 83.3961 269.484 82.805 270.548 81.7648L306.317 46.8709C308.491 44.6959 308.491 41.1497 306.317 38.951L303.929 36.5633C302.865 35.4994 301.47 34.932 299.957 34.932C298.444 34.932 297.05 35.5231 295.986 36.5633L266.954 64.7198C266.151 64.7198 255.512 54.0813 255.512 54.0813C254.448 53.0175 253.054 52.4501 251.541 52.4501H251.588Z" fill="#000B33"/>
<path d="M85.9116 93.3491C85.3443 92.829 84.7531 90.4176 84.5403 86.3513C85.8642 90.2285 86.4553 92.6163 86.4553 92.6399C86.0062 93.3255 85.9589 93.3491 85.9116 93.3491ZM85.1786 80.3939C84.7531 77.6043 85.037 75.4056 85.4389 73.2779C86.1718 75.5948 85.8878 77.746 85.746 79.8737C85.746 80.1811 85.486 80.3939 85.1786 80.3939ZM87.5191 67.604C87.0699 67.4858 86.8808 67.1785 86.9754 66.8712C87.59 64.7908 88.3464 62.7104 89.2212 60.7009C89.4103 63.1123 88.6774 65.1691 88.0628 67.2022C87.9918 67.4386 87.7555 67.604 87.5191 67.604ZM92.6022 55.6417C93.146 52.923 94.328 51.0555 95.581 49.2351C95.2737 51.6701 94.1152 53.4904 93.0986 55.358C93.004 55.5472 92.815 55.6417 92.6022 55.6417ZM100.025 44.9796C100.995 42.4027 102.484 40.7715 104.044 39.2349C103.311 41.5517 101.822 43.1593 100.451 44.7669C100.332 44.9088 100.191 44.9561 100.025 44.9561V44.9796ZM109.269 35.8305C110.569 33.4428 112.295 32.0716 114.068 30.795C112.98 32.97 111.278 34.3175 109.624 35.6887C109.505 35.7833 109.387 35.8305 109.269 35.8305ZM119.766 28.1709C121.255 25.9959 123.146 24.8612 125.085 23.7974C123.714 25.8541 121.846 26.9653 120.073 28.0764C119.978 28.1473 119.884 28.1709 119.766 28.1709ZM224.14 27.438C222.131 26.1851 220.287 25.0267 218.325 23.9155C220.854 24.0574 222.746 25.2394 224.448 26.4215C224.495 27.3671 224.306 27.4617 224.14 27.4617V27.438ZM131.137 21.8588C132.863 19.8257 134.872 18.9272 136.858 18.0998C135.321 19.9674 133.335 20.8422 131.373 21.8115C131.302 21.8587 131.208 21.8588 131.137 21.8588ZM212.84 20.9604C210.665 19.9675 208.679 19.0928 206.67 18.3126C209.129 18.0762 211.138 18.9509 213.077 19.8965C213.242 20.8658 213.053 20.9841 212.84 20.9841V20.9604ZM143.17 16.8941C145.085 15.0737 147.189 14.4355 149.246 13.8918C147.497 15.523 145.416 16.1613 143.336 16.8706C143.265 16.8706 143.217 16.8941 143.146 16.8941H143.17ZM200.76 16.1612C198.537 15.4756 196.457 14.8846 194.353 14.3882C196.741 13.7971 198.844 14.3882 200.925 15.0738C201.209 16.0195 200.996 16.1849 200.76 16.1849V16.1612ZM155.747 13.5135C157.757 11.9768 159.932 11.6222 162.107 11.3622C160.097 12.757 157.97 13.0879 155.866 13.5135C155.842 13.5135 155.794 13.5135 155.747 13.5135ZM188.112 13.0643C185.913 12.686 183.762 12.4024 181.61 12.2132C183.88 11.2912 186.079 11.5986 188.206 11.9532C188.632 12.8752 188.395 13.0879 188.112 13.0879V13.0643ZM168.655 11.9059C170.806 10.6529 173.029 10.6294 175.18 10.6766C173.029 11.7641 170.83 11.7877 168.679 11.9059C168.679 11.9059 168.679 11.9059 168.655 11.9059Z" fill="#000B33"/>
<path d="M527.006 166.329C526.556 165.407 527.809 163.729 529.535 160.75C528.755 164.367 527.526 166.046 527.478 166.093C527.36 166.235 527.195 166.329 527.029 166.329H527.006ZM533.058 155.833C533.483 153.09 534.334 151.081 535.138 149.095C535.398 151.53 534.523 153.563 533.578 155.525C533.483 155.738 533.271 155.856 533.058 155.856V155.833ZM537.809 143.705C537.336 143.587 537.171 143.279 537.265 142.972C537.904 140.891 538.472 138.811 538.944 136.731C539.559 139.071 538.992 141.222 538.353 143.303C538.282 143.539 538.046 143.705 537.809 143.705ZM540.694 131.01C540.434 128.196 540.67 126.045 540.788 123.941C541.781 126.14 541.568 128.338 541.238 130.537C541.19 130.82 540.954 131.033 540.67 131.033L540.694 131.01ZM541.474 118.031C540.859 115.336 540.717 113.161 540.481 111.033C541.852 113.066 541.994 115.288 542.041 117.44C541.474 118.031 541.474 118.031 541.474 118.031ZM540.032 105.099C539.039 102.546 538.518 100.442 537.927 98.385C539.63 100.158 540.15 102.286 540.575 104.437C540.103 105.123 540.055 105.123 540.032 105.123V105.099ZM430.337 94.7679C428.942 94.7679 427.571 94.3187 426.295 93.444C428.706 93.7277 430.645 93.9641 432.584 93.184C432.111 94.6024 431.212 94.7679 430.337 94.7679ZM536.344 92.6166C535.067 90.2998 534.192 88.314 533.223 86.3282C535.209 87.8175 536.084 89.8506 536.864 91.8364C536.485 92.5929 536.415 92.6166 536.344 92.6166ZM437.761 90.158C438.612 87.6284 439.699 85.808 440.598 83.7985C440.692 86.3518 439.557 88.2666 438.21 89.9451C438.092 90.087 437.926 90.158 437.761 90.158ZM422.607 88.4794C421.212 86.2808 420.55 84.0822 420.195 81.789C421.661 83.7985 422.276 85.9025 423.127 87.6756C422.773 88.4794 422.701 88.4794 422.607 88.4794ZM530.67 80.8906C529.133 78.7866 527.975 76.9662 526.722 75.1459C528.92 76.3516 530.079 78.2192 531.166 80.0396C530.883 80.867 530.765 80.8906 530.67 80.8906ZM443.104 78.4083C442.986 75.6896 443.245 73.5383 443.316 71.3634C444.356 73.6329 444.097 75.8551 443.647 77.9592C443.6 78.2192 443.364 78.4083 443.104 78.4083ZM420.55 75.7606C420.196 72.9 420.668 70.725 421.401 68.6683C421.756 71.0324 421.307 73.1127 421.118 75.264C421.094 75.5477 420.834 75.7842 420.55 75.7842V75.7606ZM523.317 70.1576C521.521 68.2427 520.079 66.6114 518.637 65.0748C520.93 65.8549 522.395 67.5098 523.766 69.2356C523.577 70.1103 523.459 70.1576 523.317 70.1576ZM443.6 65.4531C442.796 62.8762 442.371 60.7485 441.827 58.6445C443.482 60.5121 443.907 62.6871 444.167 64.8148C443.647 65.4531 443.624 65.4531 443.6 65.4531ZM424.9 63.6564C425.728 60.9613 427.264 59.3301 429.014 57.9353C428.045 60.1576 426.579 61.6942 425.373 63.42C425.255 63.5855 425.089 63.6564 424.923 63.6564H424.9ZM514.334 60.7722C512.324 59.2119 510.622 57.8879 508.873 56.6586C511.284 56.9659 513.034 58.3371 514.689 59.7792C514.641 60.7012 514.476 60.7722 514.31 60.7722H514.334ZM434.9 55.5475C436.248 53.6563 437.926 52.8761 439.605 52.1432C438.848 50.3229 437.95 48.5261 436.981 46.7767C438.966 48.006 439.865 49.8501 440.645 51.7177C439.014 53.6326 437.051 54.5546 435.16 55.5002C435.066 55.5475 434.995 55.5712 434.9 55.5712V55.5475ZM503.695 53.3253C501.568 52.2141 499.605 51.2684 497.619 50.441C500.078 50.2282 502.064 51.1976 503.979 52.2614C504.097 53.207 503.908 53.3253 503.695 53.3253ZM446.886 50.4883C448.777 48.668 450.881 48.0296 452.962 47.4859C451.189 49.1171 449.108 49.7554 447.052 50.4647C446.981 50.4647 446.933 50.4883 446.862 50.4883H446.886ZM491.686 48.3371C489.511 47.7224 487.383 47.2259 485.255 46.8477C487.619 46.1148 489.771 46.6348 491.851 47.2259C492.158 48.1715 491.946 48.3371 491.686 48.3371ZM459.463 47.155C461.544 45.6184 463.718 45.311 465.846 45.0983C463.86 46.4458 461.709 46.7531 459.558 47.155C459.534 47.155 459.487 47.155 459.463 47.155ZM478.896 46.0201C476.721 45.8547 474.522 45.7838 472.395 45.8311C474.546 44.6727 476.768 44.7199 478.943 44.8854C479.44 45.7838 479.203 46.0201 478.896 46.0201ZM433.978 41.5521C432.3 39.5899 430.929 37.9113 429.487 36.2801C431.803 37.1784 433.174 38.9043 434.427 40.6537C434.191 41.5048 434.073 41.5521 433.978 41.5521ZM425.373 31.812C423.458 30.2281 421.803 28.8096 420.077 27.4857C422.512 27.9585 424.191 29.3769 425.751 30.8427C425.68 31.7647 425.515 31.8356 425.373 31.8356V31.812ZM415.113 23.8214C413.032 22.5684 411.188 21.4572 409.273 20.3934C411.756 20.488 413.647 21.6228 415.42 22.7812C415.468 23.7268 415.302 23.8214 415.113 23.8214ZM335.088 17.7928C334.828 16.7053 336.814 15.2632 340.525 13.5375C337.405 16.2562 335.443 17.6746 335.419 17.6983C335.324 17.7692 335.206 17.8165 335.088 17.8165V17.7928ZM403.741 17.5091C401.543 16.5398 399.533 15.6652 397.548 14.885C399.959 14.625 401.992 15.4997 403.978 16.4217C404.143 17.391 403.954 17.5091 403.741 17.5091ZM391.637 12.7337C389.391 12.0481 387.287 11.4806 385.231 10.9842C387.595 10.3695 389.699 10.9842 391.803 11.6225C392.087 12.5682 391.874 12.7337 391.637 12.7337ZM346.814 12.1899C348.682 10.4168 350.809 9.80225 352.96 9.32943C351.093 10.9134 348.989 11.4806 347.003 12.1662C346.932 12.1662 346.885 12.1899 346.814 12.1899ZM378.965 9.75495C376.743 9.42398 374.568 9.18759 372.464 9.04575C374.686 8.05283 376.885 8.31277 379.06 8.64375C379.486 9.56575 379.249 9.77861 378.989 9.77861L378.965 9.75495ZM359.485 9.37661C361.566 7.98179 363.764 7.83997 365.963 7.76904C363.835 8.95109 361.66 9.11668 359.556 9.35309C359.533 9.35309 359.509 9.35309 359.485 9.35309V9.37661Z" fill="#000B33"/>
<path d="M475.751 107.675C475.302 107.58 475.137 107.273 475.208 106.966C475.231 106.871 475.704 104.791 473.175 102.616C477.028 104.412 476.343 107.131 476.296 107.249C476.225 107.509 476.011 107.675 475.751 107.675Z" fill="#000B33"/>
<path d="M477.146 108.078C476.579 107.392 476.72 105.288 477.832 103.775C477.832 105.69 477.713 107.534 477.713 107.534C477.713 107.841 477.453 108.054 477.146 108.054V108.078Z" fill="#000B33"/>
<path d="M505.847 291.295C505.634 291.248 455.397 269.687 455.397 269.687C455.089 268.955 462.465 251.768 462.465 251.768C463.506 252.217 456.366 268.884 456.366 268.884L505.563 289.995L506.012 288.955C507.052 289.404 506.367 290.964 506.367 290.964C506.272 291.177 506.06 291.295 505.847 291.295Z" fill="#000B33"/>
<path d="M522.111 253.398C521.591 252.618 536.106 218.788 536.106 218.788L486.91 197.677L471.591 233.398C470.551 232.949 486.106 196.707 486.106 196.707C486.839 196.4 537.076 217.961 537.076 217.961C537.383 218.693 522.631 253.044 522.631 253.044C522.537 253.256 522.324 253.398 522.111 253.398Z" fill="#000B33"/>
<path d="M526.745 319.002C526.745 310.397 526.178 297.773 526.178 297.631C527.313 297.702 527.903 310.397 527.312 318.482C527.312 318.79 527.052 319.002 526.745 319.002Z" fill="#000B33"/>
<path d="M299.981 291.673H281.351C280.808 291.248 274.023 266.779 274.023 266.779C274.567 266.07 300.737 266.07 300.737 266.07C301.281 266.495 306.009 283.47 306.009 283.47C304.922 283.777 300.311 267.205 300.311 267.205H275.323L281.801 290.538H300.004C300.572 291.413 300.312 291.673 300.004 291.673H299.981Z" fill="#000B33"/>
<path d="M54.7768 233.352V252.075C54.7768 252.075 42.8851 252.217 34.9653 245.645V226.259C34.9653 226.259 40.6395 231.791 54.7768 233.352Z" fill="#000B33"/>
<path d="M199.979 227.086C203.478 223.257 207.096 220.349 210.358 217.441C207.829 221.223 204.188 224.155 200.311 226.992C200.216 227.063 200.098 227.11 199.979 227.11V227.086Z" fill="#000B33"/>
<path d="M358.185 276.661C355.844 268.718 348.256 263.682 338.752 263.682C330.241 263.682 322.582 268.529 320.123 275.456C321.707 267.583 329.626 262.571 338.752 262.571C348.776 262.571 356.813 267.961 358.728 275.976C358.279 276.661 358.232 276.685 358.185 276.685V276.661Z" fill="#000B33"/>
</svg>
